<svg width="24" height="24" viewBox="0 0 24 24" fill="none" xmlns="http://www.w3.org/2000/svg">
<g clip-path="url(#clip0_654_1116)">
<path d="M10 11.3335H12V12.6668H10V11.3335Z" fill="#3DB44A"/>
<path d="M17.6335 9.44686C16.4511 7.51206 14.8382 5.87627 12.9202 4.66686C12.0341 4.10529 11.024 3.76916 9.97816 3.68781C8.93229 3.60646 7.8824 3.78238 6.92016 4.20019C6.0785 4.5972 5.34612 5.19311 4.78628 5.93647C4.22644 6.67983 3.85596 7.54829 3.70683 8.46686C3.6535 8.78019 3.6135 9.08019 3.5735 9.37353C2.94933 9.4747 2.38141 9.79437 1.97112 10.2755C1.56082 10.7566 1.33483 11.3679 1.3335 12.0002V16.0869C1.3335 16.4405 1.47397 16.7796 1.72402 17.0297C1.97407 17.2797 2.31321 17.4202 2.66683 17.4202V12.0002C2.66683 11.6466 2.80731 11.3074 3.05735 11.0574C3.3074 10.8073 3.64654 10.6669 4.00016 10.6669H16.4868C17.7717 10.6686 19.0035 11.1798 19.912 12.0884C20.8205 12.9969 21.3317 14.2287 21.3335 15.5135V16.0002H20.0002C19.7186 15.3136 19.1941 14.7547 18.5268 14.4302C17.8594 14.1056 17.0959 14.0382 16.382 14.2406C15.6681 14.4431 15.0537 14.9013 14.6561 15.5279C14.2585 16.1545 14.1055 16.9055 14.2263 17.6377C14.3471 18.3699 14.7332 19.032 15.3111 19.4976C15.8889 19.9632 16.6179 20.1998 17.3591 20.1622C18.1002 20.1246 18.8015 19.8154 19.3292 19.2937C19.8569 18.7719 20.1741 18.0742 20.2202 17.3335H21.3335C21.6871 17.3335 22.0263 17.193 22.2763 16.943C22.5264 16.693 22.6668 16.3538 22.6668 16.0002V15.5135C22.6641 14.0748 22.1601 12.682 21.2415 11.5748C20.3228 10.4675 19.047 9.71507 17.6335 9.44686ZM7.3335 9.33353H4.62016C4.62016 9.12686 4.68016 8.91353 4.72016 8.66686C4.83534 7.9345 5.13593 7.24377 5.59334 6.66034C6.05075 6.0769 6.64979 5.62016 7.3335 5.33353V9.33353ZM8.66683 9.33353V5.05353C9.91147 4.8919 11.1737 5.16508 12.2402 5.82686C13.696 6.73365 14.9525 7.92664 15.9335 9.33353H8.66683ZM17.2002 18.9202C16.8705 18.9202 16.5483 18.8224 16.2742 18.6393C16.0001 18.4562 15.7865 18.1959 15.6604 17.8913C15.5342 17.5868 15.5012 17.2517 15.5655 16.9284C15.6298 16.6051 15.7886 16.3081 16.0217 16.075C16.2547 15.8419 16.5517 15.6832 16.875 15.6189C17.1983 15.5546 17.5334 15.5876 17.838 15.7137C18.1425 15.8399 18.4028 16.0535 18.5859 16.3276C18.7691 16.6017 18.8668 16.9239 18.8668 17.2535C18.8668 17.6956 18.6912 18.1195 18.3787 18.432C18.0661 18.7446 17.6422 18.9202 17.2002 18.9202Z" fill="#3DB44A"/>
<path d="M9.44651 16.0001C9.16495 15.3135 8.64045 14.7546 7.9731 14.4301C7.30575 14.1056 6.54226 14.0381 5.82834 14.2406C5.11442 14.443 4.50003 14.9013 4.10242 15.5279C3.70481 16.1544 3.55181 16.9055 3.67262 17.6376C3.79343 18.3698 4.17959 19.0319 4.75741 19.4975C5.33523 19.9631 6.06427 20.1997 6.80539 20.1621C7.54652 20.1245 8.24786 19.8153 8.77557 19.2936C9.30329 18.7719 9.62044 18.0741 9.66651 17.3335H13.1998V17.1668C13.1867 16.7735 13.2316 16.3803 13.3332 16.0001H9.44651ZM6.66651 18.9201C6.33687 18.9201 6.01464 18.8224 5.74056 18.6392C5.46648 18.4561 5.25285 18.1958 5.12671 17.8913C5.00056 17.5867 4.96756 17.2516 5.03187 16.9283C5.09617 16.605 5.25491 16.308 5.488 16.0749C5.72108 15.8419 6.01806 15.6831 6.34136 15.6188C6.66466 15.5545 6.99977 15.5875 7.30431 15.7137C7.60886 15.8398 7.86916 16.0534 8.05229 16.3275C8.23543 16.6016 8.33318 16.9238 8.33318 17.2535C8.33318 17.6955 8.15758 18.1194 7.84502 18.432C7.53246 18.7445 7.10854 18.9201 6.66651 18.9201Z" fill="#3DB44A"/>
</g>
<defs>
<clipPath id="clip0_654_1116">
<rect width="24" height="24" fill="white"/>
</clipPath>
</defs>
</svg>
