<svg width="195" height="195" viewBox="0 0 195 195" fill="none" xmlns="http://www.w3.org/2000/svg">
<g id="7741857_3707917 1">
<g id="Background_Complete">
<g id="Group">
<g id="Group_2">
<path id="Vector" d="M176.178 22.5487C176.392 20.9894 174.192 19.7067 172.538 19.5733C171.75 19.5098 170.931 19.6303 170.184 19.3702C168.565 18.8058 167.918 16.715 166.339 16.0489C165.159 15.5509 163.799 15.9943 162.655 16.5703C161.51 17.1464 160.379 17.8714 159.1 17.9533C157.987 18.0243 156.78 17.612 155.806 18.1553C155.081 18.5601 154.701 19.3959 154.032 19.8889C153.378 20.3713 152.526 20.4735 151.714 20.5175C150.903 20.5616 150.063 20.5698 149.324 20.9079C148.585 21.2461 147.974 22.0276 148.127 22.8256L176.178 22.5487Z" fill="#EAEAEA"/>
</g>
</g>
<g id="Group_3">
<g id="Group_4">
<path id="Vector_2" d="M62.9093 24.3668C63.2451 21.9274 59.8022 19.9204 57.2149 19.7118C55.9814 19.6123 54.6998 19.8011 53.531 19.3935C50.9987 18.511 49.9871 15.2393 47.516 14.1972C45.6686 13.418 43.5419 14.1118 41.751 15.0131C39.9602 15.9144 38.1903 17.0489 36.1896 17.1768C34.4491 17.2883 32.5595 16.6429 31.0366 17.4931C29.9021 18.1264 29.3077 19.4341 28.2617 20.2055C27.2387 20.9602 25.9042 21.1201 24.6347 21.1891C23.3653 21.2581 22.051 21.271 20.895 21.8002C19.739 22.3295 18.7828 23.5517 19.0226 24.8001L62.9093 24.3668Z" fill="#F5F5F5"/>
</g>
</g>
<g id="Group_5">
<g id="Group_6">
<path id="Vector_3" d="M152.48 38.2308C152.808 35.8482 149.445 33.8881 146.919 33.6845C145.714 33.5874 144.462 33.7715 143.321 33.3737C140.848 32.5118 139.86 29.3165 137.447 28.2986C135.643 27.5377 133.566 28.2152 131.817 29.0954C130.068 29.9756 128.339 31.0836 126.385 31.2084C124.686 31.3172 122.84 30.687 121.353 31.5173C120.245 32.1358 119.664 33.4127 118.643 34.1662C117.643 34.9033 116.34 35.0593 115.1 35.1267C113.86 35.1942 112.577 35.2067 111.448 35.7238C110.319 36.2406 109.385 37.4344 109.619 38.6539L152.48 38.2308Z" fill="#F5F5F5"/>
</g>
</g>
<g id="Group_7">
<g id="Group_8">
<g id="Group_9">
<g id="Group_10">
<g id="Group_11">
<g id="Group_12">
<path id="Vector_4" d="M148.041 181.503C139.808 177.705 136.445 168.515 135.203 159.934C134.996 158.502 134.57 157.029 135.023 155.659C135.477 154.288 136.903 153.151 138.285 153.522C139.432 153.83 140.113 154.978 140.887 155.888C141.917 157.1 143.291 158.01 144.799 158.478C145.79 158.786 146.963 158.872 147.769 158.218C148.876 157.32 148.716 155.597 148.453 154.183C147.963 151.547 147.473 148.911 146.983 146.275C146.72 144.861 146.456 143.416 146.655 141.993C146.854 140.57 147.603 139.147 148.882 138.528C150.162 137.909 151.967 138.387 152.5 139.722C152.722 140.277 152.712 140.897 152.857 141.477C153.002 142.058 153.392 142.659 153.98 142.723C154.575 142.788 155.069 142.284 155.418 141.794C156.623 140.102 157.284 138.082 157.882 136.085C158.48 134.087 159.043 132.05 160.09 130.253C161.136 128.456 162.748 126.891 164.755 126.412C166.762 125.933 169.148 126.797 170.017 128.696C170.889 130.6 170.088 132.834 169.111 134.677C167.661 137.412 165.818 139.931 163.656 142.131C163.267 142.528 162.844 142.957 162.768 143.512C162.63 144.511 163.693 145.288 164.68 145.431C165.799 145.593 166.924 145.278 168.051 145.21C169.179 145.142 170.462 145.414 171.067 146.383C171.907 147.726 170.969 149.46 169.956 150.667C167.929 153.085 165.488 155.145 162.774 156.731C161.8 157.299 160.764 157.83 160.056 158.713C159.347 159.596 159.069 160.959 159.755 161.865C160.442 162.772 161.802 162.858 162.857 162.459C163.911 162.062 164.781 161.294 165.75 160.715C167.564 159.631 170.101 159.314 171.65 160.772C172.667 161.73 173.015 163.257 172.837 164.649C172.66 166.041 172.024 167.327 171.319 168.534C168.857 172.752 165.394 176.414 161.16 178.79C156.928 181.164 152.821 182.338 148.041 181.503Z" fill="#EAEAEA"/>
</g>
</g>
</g>
</g>
</g>
<g id="Group_13">
<g id="Group_14">
<g id="Group_15">
<g id="Group_16">
<g id="Group_17">
<g id="Group_18">
<path id="Vector_5" d="M149.283 175.761C149.766 171.232 150.707 166.311 151.868 161.198C152.163 159.921 152.455 158.659 152.742 157.415C153.031 156.174 153.318 154.944 153.673 153.758C154.373 151.381 155.228 149.151 156.105 147.058C156.981 144.965 157.89 143.01 158.751 141.188C159.618 139.368 160.458 137.686 161.288 136.187C162.941 133.179 164.558 130.916 165.731 129.407C166.316 128.651 166.789 128.079 167.115 127.695C167.273 127.513 167.396 127.37 167.489 127.262C167.574 127.165 167.619 127.117 167.623 127.12C167.627 127.123 167.588 127.177 167.51 127.279C167.422 127.391 167.305 127.54 167.157 127.73C166.845 128.124 166.385 128.706 165.813 129.471C164.667 130.997 163.079 133.269 161.453 136.279C160.634 137.78 159.806 139.463 158.95 141.285C158.097 143.109 157.197 145.064 156.329 147.155C155.461 149.245 154.615 151.469 153.922 153.833C153.571 155.013 153.287 156.233 152.998 157.477C152.711 158.72 152.421 159.982 152.126 161.258C150.966 166.367 150.021 171.275 149.526 175.789" fill="#E0E0E0"/>
</g>
</g>
</g>
</g>
</g>
</g>
<g id="Group_19">
<g id="Group_20">
<g id="Group_21">
<g id="Group_22">
<g id="Group_23">
<g id="Group_24">
<path id="Vector_6" d="M153.746 153.734C153.729 153.74 153.642 153.534 153.499 153.155C153.354 152.777 153.163 152.224 152.937 151.536C152.484 150.162 151.923 148.244 151.312 146.126C150.701 144.007 150.115 142.102 149.642 140.739C149.407 140.057 149.212 139.506 149.072 139.128C148.934 138.748 148.866 138.535 148.883 138.528C148.899 138.521 149 138.72 149.167 139.089C149.337 139.457 149.56 139.999 149.817 140.675C150.337 142.026 150.955 143.931 151.566 146.051C152.164 148.143 152.703 150.034 153.116 151.48C153.307 152.132 153.468 152.681 153.597 153.122C153.709 153.511 153.763 153.728 153.746 153.734Z" fill="#E0E0E0"/>
</g>
</g>
</g>
</g>
</g>
</g>
<g id="Group_25">
<g id="Group_26">
<g id="Group_27">
<g id="Group_28">
<g id="Group_29">
<g id="Group_30">
<path id="Vector_7" d="M171.339 147.065C171.343 147.083 171.089 147.159 170.629 147.282C170.169 147.408 169.503 147.585 168.687 147.831C167.052 148.311 164.817 149.052 162.386 149.977C159.957 150.907 157.794 151.843 156.249 152.565C155.474 152.92 154.854 153.224 154.425 153.432C153.996 153.642 153.755 153.75 153.746 153.734C153.737 153.717 153.962 153.579 154.377 153.339C154.793 153.103 155.401 152.772 156.169 152.393C157.697 151.625 159.856 150.659 162.292 149.726C164.73 148.798 166.983 148.083 168.636 147.649C169.461 147.425 170.136 147.275 170.605 147.181C171.074 147.089 171.335 147.046 171.339 147.065Z" fill="#E0E0E0"/>
</g>
</g>
</g>
</g>
</g>
</g>
<g id="Group_31">
<g id="Group_32">
<g id="Group_33">
<g id="Group_34">
<g id="Group_35">
<g id="Group_36">
<path id="Vector_8" d="M149.447 175.387C149.439 175.392 149.383 175.323 149.282 175.187C149.166 175.024 149.024 174.825 148.853 174.584C148.482 174.059 147.966 173.285 147.34 172.321C146.087 170.394 144.441 167.676 142.665 164.653C140.888 161.629 139.269 158.9 138.058 156.949C137.466 156.001 136.979 155.221 136.617 154.642C136.462 154.39 136.334 154.182 136.229 154.012C136.143 153.866 136.101 153.787 136.108 153.781C136.116 153.777 136.172 153.845 136.273 153.982C136.39 154.145 136.531 154.343 136.703 154.584C137.073 155.109 137.59 155.882 138.216 156.846C139.468 158.774 141.115 161.492 142.891 164.516C144.668 167.539 146.287 170.268 147.498 172.219C148.09 173.166 148.576 173.946 148.938 174.526C149.094 174.778 149.221 174.986 149.326 175.156C149.413 175.303 149.455 175.382 149.447 175.387Z" fill="#E0E0E0"/>
</g>
</g>
</g>
</g>
</g>
</g>
<g id="Group_37">
<g id="Group_38">
<g id="Group_39">
<g id="Group_40">
<g id="Group_41">
<g id="Group_42">
<path id="Vector_9" d="M172.238 163.248C172.242 163.257 172.165 163.305 172.016 163.39C171.838 163.488 171.62 163.607 171.355 163.752C170.744 164.079 169.919 164.52 168.916 165.056C166.856 166.158 164.028 167.713 160.906 169.435C157.783 171.158 154.939 172.688 152.855 173.747C151.814 174.277 150.967 174.698 150.376 174.976C150.102 175.103 149.877 175.207 149.693 175.293C149.536 175.362 149.451 175.395 149.447 175.386C149.443 175.378 149.52 175.329 149.669 175.244C149.847 175.147 150.065 175.028 150.33 174.883C150.941 174.556 151.765 174.115 152.769 173.579C154.829 172.477 157.657 170.922 160.78 169.2C163.902 167.477 166.746 165.947 168.829 164.888C169.871 164.358 170.718 163.938 171.309 163.659C171.583 163.532 171.808 163.427 171.992 163.342C172.149 163.272 172.233 163.24 172.238 163.248Z" fill="#E0E0E0"/>
</g>
</g>
</g>
</g>
</g>
</g>
</g>
<g id="Group_43">
<path id="Vector_10" d="M184.376 83.6165L176.892 77.4678L176.851 80.7917L155.972 80.5328L155.905 85.9936L176.783 86.2529L176.743 89.4583L184.376 83.6165Z" fill="#EAEAEA"/>
</g>
<g id="Group_44">
<path id="Vector_11" d="M173.25 92.4597L168.418 88.4902L168.391 90.6364L154.911 90.4687L154.867 93.9947L168.347 94.162L168.322 96.2313L173.25 92.4597Z" fill="#EAEAEA"/>
</g>
<g id="Group_45">
<g id="Group_46">
<g id="Group_47">
<path id="Vector_12" d="M14.4741 42.9216C14.4741 42.9216 10.1221 44.2749 14.2307 53.6174C18.3394 62.9598 21.2893 67.6379 21.2893 67.6379C21.2893 67.6379 21.9894 69.7922 20.197 70.0173C18.4045 70.2427 14.5345 69.3952 13.6196 71.5203C12.6707 73.7242 14.1836 75.9417 17.3917 77.9951C20.5998 80.0484 27.4634 84.8053 28.082 85.2378C28.6896 85.6625 29.2652 86.6792 28.0687 87.0283C26.8722 87.3777 18.0348 87.7892 18.481 91.9707C18.9275 96.1523 28.8046 100.404 29.8752 100.89C30.9461 101.376 31.1813 101.855 31.0573 102.451C30.9337 103.047 27.9498 102.905 25.4413 103.125C22.9324 103.345 20.062 104.04 20.5218 106.431C20.9816 108.822 26.6725 114.118 41.101 116.374L47.855 116.982L51.8661 111.477C59.7324 99.1725 59.5347 91.4017 58.048 89.4736C56.5609 87.5454 54.139 89.2357 52.3127 90.9692C50.4863 92.7028 48.6159 95.0319 48.0878 94.73C47.5594 94.4281 47.3558 93.9344 47.7017 92.8104C48.0472 91.6864 51.4036 81.4704 48.5663 78.366C45.7291 75.2616 39.5671 81.61 38.5129 82.2749C37.4587 82.9399 37.0781 81.8354 37.1627 81.0987C37.2489 80.3487 38.2309 72.0558 38.8175 68.2923C39.4041 64.5288 38.7446 61.9263 36.465 61.1779C34.267 60.456 32.3384 63.9165 30.9824 65.1099C29.6264 66.3033 28.4763 64.3521 28.4763 64.3521C28.4763 64.3521 26.9252 59.0438 22.6477 49.7774C18.3698 40.511 14.3875 42.9544 14.3875 42.9544" fill="#EAEAEA"/>
</g>
</g>
<g id="Group_48">
<g id="Group_49">
<g id="Group_50">
<path id="Vector_13" d="M48.1147 118.595C44.9998 111.777 39.6673 99.5668 35.0341 89.1074C30.4028 78.6515 26.201 69.1889 23.1208 62.3561C21.5799 58.9471 20.3319 56.1859 19.4649 54.2679C19.0367 53.319 18.7028 52.5792 18.4723 52.0679C18.3635 51.8214 18.2797 51.6307 18.2188 51.4934C18.1631 51.3636 18.1393 51.2949 18.1393 51.2949C18.1393 51.2949 18.1759 51.3577 18.2387 51.4845C18.3039 51.6194 18.3943 51.8074 18.511 52.05C18.75 52.5574 19.096 53.2917 19.5394 54.2336C20.4305 56.1309 21.7004 58.8851 23.2565 62.2945C26.3714 69.1121 30.5951 78.5661 35.2264 89.022C39.8592 99.4814 45.1702 111.7 48.25 118.533" fill="#E0E0E0"/>
</g>
</g>
</g>
<g id="Group_51">
<g id="Group_52">
<g id="Group_53">
<path id="Vector_14" d="M18.9856 72.9238C18.9915 72.9105 19.1565 72.9674 19.4501 73.0825C19.7446 73.196 20.1646 73.3727 20.6821 73.5957C21.716 74.0438 23.1282 74.6994 24.6734 75.451C26.1948 76.1974 27.5699 76.8725 28.6221 77.3893C29.0979 77.619 29.4993 77.8128 29.8218 77.9688C30.1057 78.1045 30.2601 78.1856 30.2547 78.1993C30.2492 78.2126 30.0839 78.1568 29.789 78.0441C29.495 77.9294 29.0745 77.7531 28.5594 77.5242C27.5298 77.0656 26.1265 76.392 24.5814 75.6405C23.0557 74.9054 21.6759 74.2404 20.6201 73.7315C20.1432 73.5041 19.7407 73.3122 19.417 73.1578C19.1338 73.0197 18.9798 72.937 18.9856 72.9238Z" fill="#E0E0E0"/>
</g>
</g>
</g>
<g id="Group_54">
<g id="Group_55">
<g id="Group_56">
<path id="Vector_15" d="M30.7422 77.7925C30.6887 77.7695 31.9118 74.7984 33.4737 71.1574C35.0361 67.5152 36.3457 64.582 36.3991 64.6046C36.4525 64.6276 35.2299 67.5979 33.6672 71.2405C32.1052 74.8815 30.7956 77.8155 30.7422 77.7925Z" fill="#E0E0E0"/>
</g>
</g>
</g>
<g id="Group_57">
<g id="Group_58">
<g id="Group_59">
<path id="Vector_16" d="M37.1311 94.1733C37.1202 94.1636 37.2275 94.0209 37.4299 93.7713C37.6615 93.4897 37.9509 93.1379 38.2945 92.7206C39.023 91.8326 40.0245 90.6017 41.0791 89.2036C42.1376 87.807 43.0513 86.5102 43.7054 85.5657C44.0139 85.1214 44.2732 84.7474 44.4815 84.4475C44.6663 84.1843 44.7743 84.0423 44.7864 84.0501C44.7989 84.0579 44.7143 84.2147 44.5505 84.492C44.3867 84.7689 44.1422 85.1655 43.8294 85.6483C43.2062 86.6155 42.3088 87.9298 41.2472 89.3303C40.1891 90.7328 39.1669 91.9523 38.408 92.8169C38.0266 93.2479 37.7142 93.593 37.4911 93.8251C37.2696 94.0587 37.1421 94.1827 37.1311 94.1733Z" fill="#E0E0E0"/>
</g>
</g>
</g>
<g id="Group_60">
<g id="Group_61">
<g id="Group_62">
<path id="Vector_17" d="M25.5282 92.1093C25.5306 92.0948 25.6948 92.1081 25.99 92.1436C26.3289 92.1904 26.7454 92.2473 27.2368 92.3148C28.2879 92.4684 29.7375 92.6954 31.3369 92.9587C32.9363 93.2219 34.3824 93.4719 35.4276 93.6634C35.9147 93.757 36.3273 93.8362 36.6635 93.9009C36.9544 93.9618 37.1143 94.0019 37.112 94.0164C37.1097 94.0308 36.9455 94.0175 36.6502 93.9816C36.3113 93.9352 35.8948 93.8779 35.4038 93.8104C34.3528 93.6568 32.9027 93.4298 31.3033 93.1666C29.7043 92.9033 28.2582 92.6533 27.2134 92.4618C26.7267 92.3682 26.3137 92.2891 25.9775 92.2243C25.6854 92.1639 25.5259 92.1233 25.5282 92.1093Z" fill="#E0E0E0"/>
</g>
</g>
</g>
<g id="Group_63">
<g id="Group_64">
<g id="Group_65">
<path id="Vector_18" d="M29.3312 107.287C29.3335 107.273 29.5437 107.291 29.9217 107.337C30.3382 107.393 30.8752 107.464 31.5199 107.551C32.8681 107.74 34.7284 108.016 36.781 108.334C38.8343 108.652 40.6911 108.952 42.0335 109.179C42.6743 109.292 43.2078 109.386 43.6216 109.459C43.996 109.53 44.2015 109.576 44.1996 109.59C44.1972 109.604 43.9874 109.586 43.6091 109.54C43.1926 109.484 42.6555 109.413 42.0109 109.326C40.6626 109.137 38.802 108.861 36.7486 108.542C34.696 108.225 32.8392 107.925 31.4969 107.698C30.8565 107.585 30.3226 107.491 29.9088 107.418C29.5348 107.347 29.3292 107.301 29.3312 107.287Z" fill="#E0E0E0"/>
</g>
</g>
</g>
<g id="Group_66">
<g id="Group_67">
<g id="Group_68">
<path id="Vector_19" d="M43.8598 109.434C43.8485 109.425 43.9795 109.241 44.2256 108.916C44.4959 108.562 44.8488 108.1 45.2739 107.544C46.1577 106.385 47.3725 104.779 48.663 102.969C49.9571 101.16 51.0846 99.492 51.8926 98.2788C52.2811 97.6965 52.6036 97.2129 52.8509 96.8424C53.0786 96.5039 53.2104 96.3206 53.2225 96.3284C53.235 96.3362 53.1266 96.5343 52.9203 96.8865C52.714 97.2382 52.407 97.7429 52.0178 98.3599C51.2409 99.595 50.1306 101.279 48.8346 103.091C47.5418 104.905 46.3063 106.499 45.3913 107.636C44.9323 108.203 44.5563 108.658 44.2896 108.967C44.0236 109.277 43.8711 109.444 43.8598 109.434Z" fill="#E0E0E0"/>
</g>
</g>
</g>
</g>
</g>
<g id="Plant">
<g id="Group_69">
<g id="Group_70">
<g id="Group_71">
<g id="Group_72">
<path id="Vector_20" d="M144.877 165.34C145.669 165.655 146.266 166.359 146.579 167.152C146.893 167.945 146.946 168.819 146.877 169.669C146.742 171.312 145.863 172.995 144.901 174.335C143.484 173.174 143.102 171.084 142.974 170.012C142.773 168.317 143.438 165.131 144.877 165.34Z" fill="#3DB44A"/>
</g>
</g>
</g>
<g id="Group_73">
<g id="Group_74">
<g id="Group_75">
<path id="Vector_21" d="M146.588 176.988C146.339 176.07 146.693 175.042 147.383 174.387C148.074 173.732 149.059 173.433 150.01 173.476C150.45 173.496 150.928 173.609 151.19 173.962C151.436 174.293 151.424 174.765 151.245 175.136C151.066 175.506 150.744 175.789 150.403 176.019C149.231 176.806 147.952 177.352 146.588 176.988Z" fill="#3DB44A"/>
</g>
</g>
</g>
<g id="Group_76">
<g id="Group_77">
<g id="Group_78">
<g id="Group_79">
<path id="Vector_22" d="M144.976 182.065C144.967 182.064 144.983 181.944 145.014 181.728C145.05 181.49 145.097 181.182 145.153 180.813C145.282 180.048 145.443 178.953 146.001 177.877C146.551 176.805 147.343 176.003 148.017 175.597C148.352 175.389 148.647 175.262 148.856 175.194C148.959 175.156 149.044 175.14 149.099 175.124C149.155 175.111 149.185 175.106 149.186 175.11C149.196 175.136 148.712 175.239 148.063 175.668C147.412 176.085 146.648 176.879 146.107 177.933C145.56 178.986 145.385 180.066 145.236 180.827C145.164 181.211 145.106 181.522 145.06 181.736C145.014 181.949 144.984 182.067 144.976 182.065Z" fill="#263238"/>
</g>
</g>
</g>
</g>
<g id="Group_80">
<g id="Group_81">
<g id="Group_82">
<g id="Group_83">
<path id="Vector_23" d="M144.584 167.811C144.588 167.81 144.596 167.861 144.606 167.957C144.615 168.066 144.628 168.205 144.644 168.378C144.675 168.744 144.713 169.274 144.755 169.93C144.838 171.241 144.928 173.054 144.982 175.058C145.035 177.063 145.042 178.878 145.029 180.191C145.023 180.848 145.013 181.38 145.002 181.747C144.996 181.92 144.99 182.06 144.986 182.17C144.982 182.266 144.977 182.317 144.973 182.317C144.969 182.317 144.965 182.266 144.962 182.17C144.96 182.06 144.958 181.92 144.955 181.746C144.952 181.364 144.949 180.837 144.945 180.191C144.936 178.878 144.915 177.064 144.862 175.061C144.808 173.058 144.732 171.246 144.67 169.934C144.64 169.289 144.615 168.763 144.597 168.381C144.591 168.207 144.586 168.067 144.582 167.958C144.58 167.862 144.58 167.811 144.584 167.811Z" fill="#263238"/>
</g>
</g>
</g>
</g>
<g id="Group_84">
<g id="Group_85">
<g id="Group_86">
<path id="Vector_24" d="M144.233 178.059C143.858 176.087 142.467 174.337 140.63 173.527C140.162 173.321 139.556 173.195 139.188 173.55C138.819 173.905 138.923 174.518 139.124 174.989C139.958 176.95 142.077 178.286 144.205 178.195" fill="#3DB44A"/>
</g>
</g>
</g>
<g id="Group_87">
<g id="Group_88">
<g id="Group_89">
<g id="Group_90">
<path id="Vector_25" d="M140.901 175.074C140.905 175.067 141.01 175.109 141.198 175.193C141.293 175.234 141.408 175.285 141.534 175.359C141.661 175.432 141.813 175.503 141.964 175.61C142.117 175.711 142.289 175.819 142.457 175.957C142.632 176.085 142.804 176.241 142.984 176.407C143.335 176.746 143.69 177.154 143.997 177.628C144.3 178.105 144.524 178.597 144.684 179.059C144.757 179.292 144.827 179.513 144.867 179.728C144.92 179.939 144.943 180.14 144.968 180.322C144.999 180.504 144.996 180.673 145.006 180.818C145.018 180.964 145.012 181.091 145.007 181.193C144.998 181.399 144.989 181.512 144.981 181.511C144.954 181.511 144.987 181.055 144.884 180.334C144.854 180.154 144.826 179.956 144.769 179.75C144.726 179.54 144.653 179.323 144.579 179.095C144.415 178.643 144.193 178.161 143.895 177.693C143.594 177.227 143.247 176.825 142.906 176.486C142.732 176.321 142.565 176.164 142.394 176.035C142.232 175.895 142.065 175.785 141.916 175.68C141.311 175.274 140.89 175.097 140.901 175.074Z" fill="#263238"/>
</g>
</g>
</g>
</g>
</g>
<g id="Group_91">
<g id="Group_92">
<g id="Group_93">
<g id="Group_94">
<g id="Group_95">
<path id="Vector_26" d="M27.8643 172.394C28.2242 170.999 27.3097 169.599 26.2844 168.587C25.2591 167.575 24.0333 166.668 23.4998 165.33C22.6355 163.162 23.7973 160.355 22.3228 158.546C21.4554 157.482 19.8997 157.126 19.1298 155.989C18.7262 155.393 18.5955 154.66 18.4368 153.957C17.6272 150.375 15.8339 147.019 13.3048 144.354C13.1289 147.545 13.8329 150.78 15.3184 153.609C15.9155 154.746 16.649 155.855 16.8468 157.124C17.1681 159.185 16.0176 161.309 16.5242 163.332C17.1034 165.647 19.7031 167.196 19.8264 169.578C19.9305 171.592 18.1751 173.36 18.3058 175.373C18.3615 176.23 18.7593 177.026 19.202 177.761C20.7593 180.35 23.047 182.133 26.5149 182.075L30.7624 182.224L27.8643 172.394Z" fill="#3DB44A"/>
</g>
</g>
</g>
</g>
<g id="Group_96" opacity="0.3">
<g id="Group_97">
<g id="Group_98">
<g id="Group_99">
<g id="Group_100">
<path id="Vector_27" d="M27.8643 172.394C28.2242 170.999 27.3097 169.599 26.2844 168.587C25.2591 167.575 24.0333 166.668 23.4998 165.33C22.6355 163.162 23.7973 160.355 22.3228 158.546C21.4554 157.482 19.8997 157.126 19.1298 155.989C18.7262 155.393 18.5955 154.66 18.4368 153.957C17.6272 150.375 15.8339 147.019 13.3048 144.354C13.1289 147.545 13.8329 150.78 15.3184 153.609C15.9155 154.746 16.649 155.855 16.8468 157.124C17.1681 159.185 16.0176 161.309 16.5242 163.332C17.1034 165.647 19.7031 167.196 19.8264 169.578C19.9305 171.592 18.1751 173.36 18.3058 175.373C18.3615 176.23 18.7593 177.026 19.202 177.761C20.7593 180.35 23.047 182.133 26.5149 182.075L30.7624 182.224L27.8643 172.394Z" fill="black"/>
</g>
</g>
</g>
</g>
</g>
<g id="Group_101">
<g id="Group_102">
<g id="Group_103">
<g id="Group_104">
<g id="Group_105">
<g id="Group_106">
<g id="Group_107">
<path id="Vector_28" d="M31.6218 182.336C31.6218 182.336 32.0266 182.43 32.7914 182.311C33.1721 182.255 33.6405 182.154 34.1716 181.963C34.6997 181.77 35.3007 181.495 35.8763 181.03C36.1528 180.788 36.429 180.49 36.5776 180.095C36.7238 179.702 36.7503 179.269 36.7776 178.826C36.8002 178.382 36.8006 177.92 36.8767 177.452C36.9484 176.984 37.1321 176.525 37.3958 176.086C37.8965 175.206 38.728 174.374 38.9967 173.179C39.2873 172.004 39.079 170.733 38.8813 169.456C38.6839 168.183 38.4932 166.793 38.9803 165.466C39.4359 164.138 40.3676 162.939 40.8332 161.441C41.2969 159.929 41.0809 158.302 41.1788 156.697C41.2236 155.891 41.3792 155.086 41.7322 154.339C42.0758 153.587 42.5524 152.878 42.9248 152.087C43.6787 150.487 43.8117 148.673 44.018 146.896C44.1186 146.001 44.22 145.096 44.3226 144.182C44.424 143.264 44.5051 142.349 44.7945 141.466C45.0562 140.576 45.4352 139.714 45.8104 138.837C45.9941 138.396 46.1887 137.954 46.3034 137.464C46.3864 136.963 46.4106 136.495 46.4403 136.003C46.4878 135.029 46.4477 134.042 46.3272 133.063C46.2117 132.083 46.0351 131.111 45.9294 130.129C45.9227 130.071 45.9161 130.013 45.9103 129.959L45.8884 129.764L45.7145 129.851C44.805 130.306 44.0262 130.985 43.4279 131.78C42.8195 132.571 42.3769 133.462 42.0231 134.369C41.3137 136.194 41.0583 138.107 40.7006 139.931C40.3516 141.756 39.891 143.551 38.9554 145.068C38.4901 145.824 37.927 146.515 37.434 147.253C36.9426 147.986 36.5097 148.79 36.3802 149.674C36.1291 151.47 37.1189 153.048 36.9126 154.639C36.8392 155.43 36.5245 156.169 36.1376 156.844C35.7519 157.522 35.2987 158.151 34.8686 158.784C34.4388 159.417 34.0297 160.058 33.7282 160.744C33.4217 161.427 33.2528 162.158 33.2064 162.874C33.1027 164.306 33.3062 165.665 33.2013 166.947C33.1151 168.232 32.6639 169.397 32.153 170.438C31.639 171.484 31.0676 172.428 30.5887 173.345C30.3477 173.802 30.1258 174.249 29.9448 174.698C29.7533 175.146 29.659 175.605 29.572 176.041C29.4328 176.922 29.446 177.742 29.5408 178.465C29.7256 179.92 30.2681 180.968 30.756 181.557C30.868 181.714 30.9974 181.825 31.0996 181.929C31.1991 182.036 31.2977 182.109 31.3785 182.166C31.5372 182.283 31.6218 182.336 31.6218 182.336C31.6405 182.315 31.2724 182.12 30.7993 181.523C30.3317 180.931 29.8126 179.891 29.6465 178.452C29.5611 177.737 29.556 176.927 29.7007 176.063C29.79 175.635 29.8863 175.186 30.0763 174.752C30.2568 174.313 30.4815 173.869 30.724 173.416C31.2065 172.508 31.7841 171.567 32.309 170.515C32.83 169.469 33.2988 168.281 33.394 166.963C33.5055 165.653 33.3082 164.29 33.4166 162.891C33.4654 162.191 33.6299 161.494 33.9287 160.833C34.2227 160.169 34.6264 159.54 35.0558 158.913C35.4856 158.284 35.9442 157.653 36.3408 156.96C36.7378 156.272 37.0709 155.502 37.1512 154.666C37.356 152.971 36.3736 151.382 36.6286 149.712C36.7511 148.886 37.1622 148.116 37.6469 147.397C38.1317 146.673 38.698 145.981 39.1773 145.206C40.1425 143.645 40.6102 141.815 40.9631 139.983C41.3242 138.147 41.5801 136.255 42.2766 134.467C42.6233 133.579 43.0566 132.71 43.6447 131.946C44.2231 131.177 44.9684 130.531 45.835 130.096L45.6392 129.988C45.6451 130.042 45.6517 130.101 45.6583 130.159C45.7652 131.153 45.9426 132.127 46.0565 133.095C46.1758 134.064 46.2156 135.031 46.1692 135.991C46.1415 136.464 46.1127 136.961 46.0386 137.408C45.9348 137.854 45.7445 138.295 45.562 138.732C45.1891 139.605 44.805 140.48 44.5382 141.389C44.243 142.294 44.1584 143.243 44.0601 144.15C43.9587 145.065 43.8581 145.971 43.759 146.866C43.5562 148.651 43.4228 150.436 42.697 151.98C42.3382 152.749 41.8624 153.46 41.5087 154.237C41.1437 155.011 40.9818 155.863 40.9393 156.682C40.8469 158.321 41.0598 159.924 40.6168 161.376C40.1765 162.821 39.2498 164.026 38.7818 165.397C38.2807 166.782 38.4882 168.216 38.691 169.486C38.8961 170.765 39.102 172.009 38.8282 173.139C38.5825 174.279 37.7752 175.105 37.264 176.009C36.998 176.458 36.8073 176.945 36.7371 177.43C36.6626 177.913 36.6665 178.38 36.6478 178.82C36.6255 179.258 36.6006 179.687 36.4664 180.055C36.333 180.422 36.0733 180.711 35.8077 180.948C35.2531 181.407 34.663 181.688 34.144 181.887C33.6217 182.083 33.1592 182.192 32.7832 182.256C32.4069 182.324 32.1148 182.334 31.9194 182.34C31.7232 182.333 31.6218 182.336 31.6218 182.336Z" fill="#263238"/>
</g>
</g>
</g>
</g>
</g>
<g id="Group_108">
<g id="Group_109">
<g id="Group_110">
<g id="Group_111">
<g id="Group_112">
<path id="Vector_29" d="M45.0422 132.299C45.0375 132.298 45.0238 132.341 45.0012 132.427C44.9762 132.529 44.9454 132.655 44.9076 132.81C44.8241 133.144 44.7243 133.649 44.564 134.28C44.3971 134.91 44.0118 135.621 43.6822 136.499C43.3398 137.369 42.9923 138.378 42.6725 139.512C42.3484 140.644 42.0614 141.902 41.7611 143.25C41.4514 144.595 41.1425 146.037 40.4015 147.398C40.0533 148.088 39.6613 148.786 39.3501 149.55C39.0311 150.314 38.8587 151.149 38.7386 151.987C38.5346 153.669 38.2257 155.378 37.8229 157.125C36.9711 160.606 36.1599 163.921 35.4212 166.94C34.6646 169.948 33.9829 172.659 33.4085 174.944C32.8492 177.209 32.3948 179.049 32.0743 180.346C31.9265 180.969 31.8098 181.461 31.7248 181.819C31.6909 181.975 31.6632 182.101 31.6406 182.203C31.623 182.29 31.6164 182.335 31.6211 182.337C31.6258 182.338 31.6414 182.295 31.6675 182.21C31.6967 182.11 31.733 181.986 31.7779 181.832C31.8746 181.478 32.008 180.99 32.1768 180.373C32.5173 179.081 33.0005 177.248 33.5949 174.992C34.1857 172.711 34.8866 170.005 35.6642 167.002C36.4099 163.983 37.2285 160.667 38.0885 157.185C38.4913 155.44 38.8033 153.7 39.0022 152.025C39.1204 151.193 39.2846 150.388 39.5907 149.647C39.891 148.903 40.2767 148.208 40.625 147.511C41.3723 146.125 41.6835 144.638 41.981 143.299C42.2716 141.948 42.5469 140.694 42.8574 139.563C43.1635 138.432 43.4962 137.425 43.8234 136.554C44.1358 135.679 44.5086 134.959 44.665 134.309C44.8121 133.662 44.8932 133.162 44.9599 132.821C44.9872 132.664 45.0094 132.537 45.0269 132.433C45.0422 132.345 45.0468 132.3 45.0422 132.299Z" fill="#263238"/>
</g>
</g>
</g>
</g>
</g>
</g>
<g id="Group_113">
<g id="Group_114">
<g id="Group_115">
<g id="Group_116">
<g id="Group_117">
<path id="Vector_30" d="M32.3715 182.35C35.1455 180.701 35.9419 175.695 34.7848 172.682C33.6276 169.67 31.602 166.917 31.2896 163.705C31.0494 161.235 31.8582 158.701 31.283 156.287C30.5069 153.03 27.3268 150.508 27.3635 147.16C27.3841 145.281 28.4527 143.513 28.3677 141.637C28.2632 139.335 26.4965 137.509 25.4022 135.481C23.7271 132.377 23.6171 128.707 23.0442 125.227C22.4717 121.746 21.1453 118.02 18.0608 116.309C17.6053 119.263 16.8276 121.287 17.0718 125.29C17.1595 126.727 18.8295 129.479 19.0565 132.63C19.1922 134.513 19.2866 136.399 19.4012 138.283C19.5132 140.117 19.6321 141.984 20.2893 143.7C20.7927 145.015 21.6024 146.209 21.9764 147.566C22.68 150.12 21.7557 152.886 22.3239 155.473C22.8051 157.665 24.3222 159.551 24.6323 161.774C25.0679 164.896 23.0466 168.141 24.0812 171.12C24.5945 172.598 25.8105 173.784 26.1556 175.311C26.4236 176.495 26.1315 177.749 26.374 178.938C26.7644 180.855 30.4203 182.343 32.3726 182.225" fill="#3DB44A"/>
</g>
</g>
</g>
</g>
<g id="Group_118">
<g id="Group_119">
<g id="Group_120">
<g id="Group_121">
<g id="Group_122">
<path id="Vector_31" d="M18.8256 119.242C18.8209 119.243 18.8252 119.3 18.8377 119.409C18.8537 119.533 18.8743 119.693 18.9001 119.895C18.9636 120.321 19.0354 120.948 19.1793 121.758C19.3345 122.573 19.7542 123.49 20.0896 124.596C20.4437 125.699 20.7955 126.971 21.1071 128.395C21.4238 129.819 21.6886 131.394 21.9666 133.09C22.2541 134.772 22.5477 136.633 23.3886 138.397C23.7778 139.284 24.2142 140.172 24.5418 141.118C24.8776 142.06 25.032 143.074 25.1272 144.116C25.2703 146.208 25.5492 148.385 25.9407 150.578C26.7905 154.956 27.5998 159.126 28.3365 162.922C29.113 166.702 29.8127 170.108 30.4016 172.976C30.9963 175.822 31.4787 178.131 31.8169 179.749C31.9869 180.533 32.1203 181.149 32.2151 181.588C32.2607 181.785 32.2973 181.942 32.3254 182.065C32.3516 182.172 32.3675 182.226 32.3722 182.225C32.3769 182.224 32.3703 182.168 32.3527 182.059C32.3313 181.936 32.3036 181.777 32.2689 181.577C32.1858 181.136 32.0692 180.517 31.9206 179.728C31.6028 178.106 31.1492 175.791 30.5903 172.937C30.0178 170.067 29.3376 166.657 28.5826 162.872C27.8529 159.078 27.0511 154.909 26.2094 150.532C25.8179 148.337 25.541 146.192 25.3932 144.091C25.2965 143.043 25.1354 141.999 24.7883 141.033C24.4505 140.067 24.0079 139.176 23.6187 138.296C22.7825 136.557 22.4888 134.741 22.1897 133.052C21.9023 131.359 21.6254 129.779 21.2954 128.353C20.9706 126.926 20.604 125.651 20.2346 124.549C19.8821 123.439 19.4496 122.53 19.283 121.736C19.1251 120.94 19.035 120.308 18.9543 119.886C18.9172 119.686 18.888 119.528 18.865 119.405C18.8435 119.296 18.8299 119.241 18.8256 119.242Z" fill="#263238"/>
</g>
</g>
</g>
</g>
</g>
</g>
</g>
</g>
</g>
<g id="Device">
<g id="Group_123">
<g id="Group_124">
<g id="Group_125">
<g id="Group_126">
<g id="Group_127">
<g id="Group_128">
<g id="Group_129">
<g id="Group_130">
<g id="Group_131">
<g id="Group_132">
<g id="Group_133">
<g id="Group_134">
<g id="Group_135">
<path id="Vector_32" d="M104.909 182.221H50.6321C44.0743 182.191 38.5316 176.599 38.5593 170.041L39.1369 33.3404C39.1646 26.7786 44.5076 21.4824 51.0693 21.5128L105.596 21.7648C112.154 21.7952 117.447 27.1347 117.419 33.6925L116.841 170.393C116.814 176.955 111.471 182.251 104.909 182.221Z" fill="#263238"/>
</g>
</g>
</g>
</g>
</g>
</g>
</g>
</g>
</g>
</g>
</g>
<g id="Group_136">
<g id="Group_137">
<g id="Group_138">
<g id="Group_139">
<g id="Group_140">
<path id="Vector_33" d="M105.638 26.9589L95.0664 26.9101C93.6488 26.9039 92.494 28.1 92.4881 29.582L92.4795 31.4996C92.4737 32.9816 91.3189 34.1782 89.9013 34.1715L69.2944 34.0764C67.8768 34.0701 66.7325 32.8631 66.7388 31.3807L66.747 29.4631C66.7532 27.9811 65.6085 26.774 64.1909 26.7678L60.4726 26.7506L51.2199 26.7081C46.6245 26.687 42.8825 30.3959 42.863 34.9917L42.299 168.421C42.2795 173.015 45.9861 176.754 50.5791 176.775L104.997 177.027C109.592 177.048 113.334 173.339 113.354 168.743L113.918 35.3134C113.937 30.7196 110.231 26.9803 105.638 26.9589Z" fill="#F5F5F5"/>
</g>
</g>
</g>
</g>
<g id="Group_141">
<g id="Group_142">
<path id="Vector_34" d="M82.5427 151.812C82.4803 153.423 82.4215 154.934 82.3723 156.19H90.1891L89.232 151.389L82.5427 151.812Z" fill="#F5F5F5"/>
</g>
<g id="Group_143">
<path id="Vector_35" d="M50.7737 153.821L50.8419 156.19H81.5919C81.6437 154.86 81.7015 153.383 81.7604 151.861L50.7737 153.821Z" fill="#F5F5F5"/>
</g>
<g id="Group_144">
<path id="Vector_36" d="M89.6251 151.364L90.5869 156.19H104.998L104.824 150.402L89.6251 151.364Z" fill="#F5F5F5"/>
</g>
<g id="Group_145">
<path id="Vector_37" d="M83.3231 83.8957L86.0484 68.0968L78.911 67.5684V83.8957H83.3231Z" fill="#F5F5F5"/>
</g>
<g id="Group_146">
<path id="Vector_38" d="M50.131 145.05L42.3852 148.084L42.3622 153.571L50.3619 153.065L50.131 145.05Z" fill="#F5F5F5"/>
</g>
<g id="Group_147">
<path id="Vector_39" d="M50.0955 143.816L49.6723 129.101L49.6665 129.101V123.912L42.4842 124.673L42.3906 146.826L50.0927 143.808L50.0955 143.816Z" fill="#F5F5F5"/>
</g>
<g id="Group_148">
<path id="Vector_40" d="M49.6664 112.327L42.5403 111.387L42.4893 123.496L49.6664 122.736V112.327Z" fill="#F5F5F5"/>
</g>
<g id="Group_149">
<path id="Vector_41" d="M102.779 124.131L102.479 128.348L94.0629 129.255L94.7142 132.592L104.268 131.872L104.124 127.087L104.887 123.918L102.779 124.131Z" fill="#F5F5F5"/>
</g>
<g id="Group_150">
<path id="Vector_42" d="M87.6103 133.128L94.3226 132.622L92.8605 125.132L87.0023 125.723L87.6103 133.128Z" fill="#F5F5F5"/>
</g>
<g id="Group_151">
<path id="Vector_43" d="M87.6743 133.905L88.1872 140.15L89.0974 148.716L89.471 150.592L104.801 149.622L104.291 132.652L87.6743 133.905Z" fill="#F5F5F5"/>
</g>
<g id="Group_152">
<path id="Vector_44" d="M61.2897 104.42L61.8794 105.431L50.0565 112.327V128.684L62.5342 127.801L86.5824 125.374L85.7021 114.651L62.728 111.65L62.8797 110.49L85.6042 113.459L84.114 95.3121L61.622 97.4747L61.5475 96.6982L84.0505 94.5344L83.2732 85.0664H61.6376L42.6375 88.5241L42.5459 110.207L49.7398 111.156L61.2897 104.42ZM51.2671 127.122C51.2671 127.122 51.3564 113.634 51.2671 113.131L60.9141 107.999L62.1649 126.433L51.2671 127.122Z" fill="#F5F5F5"/>
</g>
<g id="Group_153">
<path id="Vector_45" d="M101.991 124.21L93.2501 125.092L93.9127 128.487L101.747 127.642L101.991 124.21Z" fill="#F5F5F5"/>
</g>
<g id="Group_154">
<path id="Vector_46" d="M82.6539 148.922C82.6269 149.63 82.5996 150.336 82.5731 151.028L89.0787 150.616L88.7441 148.938L82.6539 148.922Z" fill="#F5F5F5"/>
</g>
<g id="Group_155">
<path id="Vector_47" d="M68.6408 83.8961L69.7882 78.7006H78.521V67.5395L51.2117 65.5166V75.9963L42.682 77.9256L42.6422 87.334L61.5315 83.8961H68.6408Z" fill="#F5F5F5"/>
</g>
<g id="Group_156">
<path id="Vector_48" d="M86.8635 52.8413L86.6306 51.885L97.0592 47.758L90.276 34.1416C90.1535 34.1599 90.0291 34.172 89.9016 34.1716L78.3771 34.1182L78.6906 53.1751L86.8635 52.8413Z" fill="#F5F5F5"/>
</g>
<g id="Group_157">
<path id="Vector_49" d="M102.668 45.5385L102.656 26.9453L95.0668 26.9102C93.6491 26.9039 92.4944 28.1001 92.4885 29.5821L92.4799 31.4997C92.4764 32.4142 92.0345 33.2192 91.3641 33.7005L98.1517 47.3259L102.668 45.5385Z" fill="#F5F5F5"/>
</g>
<g id="Group_158">
<path id="Vector_50" d="M63.4643 46.3359L62.5848 26.7599L60.4726 26.7501L52.2241 26.7119L48.7102 44.2178L63.4643 46.3359ZM61.5845 28.7438L61.8657 44.6862L50.902 43.0818L53.3028 28.7438H61.5845Z" fill="#F5F5F5"/>
</g>
<g id="Group_159">
<path id="Vector_51" d="M63.8625 46.3928L63.8644 46.5597C63.8832 48.0873 63.9148 50.8368 63.9374 53.7774L78.3003 53.1905L77.9863 34.1156L69.294 34.0754C67.8764 34.0691 66.7321 32.8621 66.7384 31.3801L66.7465 29.4625C66.7528 27.9805 65.6081 26.7734 64.1905 26.7672L62.9749 26.7617L63.8566 46.3924L63.8625 46.3928Z" fill="#F5F5F5"/>
</g>
<g id="Group_160">
<path id="Vector_52" d="M47.5507 44.0509L51.0303 26.7158C46.5231 26.7969 42.8824 30.459 42.8633 34.9905L42.8267 43.6325L42.8633 43.3782L47.5507 44.0509Z" fill="#F5F5F5"/>
</g>
<g id="Group_161">
<path id="Vector_53" d="M50.0416 65.4296L42.7369 64.8887L42.687 76.7244L50.0416 75.061V65.4296Z" fill="#F5F5F5"/>
</g>
<g id="Group_162">
<path id="Vector_54" d="M47.4739 44.4349L42.8262 43.7676L42.7451 62.9345L43.7459 63.0086L47.4739 44.4349Z" fill="#F5F5F5"/>
</g>
<g id="Group_163">
<path id="Vector_55" d="M62.2284 143.592L62.3512 128.204L50.0615 129.073L50.4956 144.149L62.2284 143.592Z" fill="#F5F5F5"/>
</g>
<g id="Group_164">
<path id="Vector_56" d="M64.4888 140.041L81.8937 148.379C82.1008 142.93 82.2864 137.835 82.2689 137.511L82.646 137.49L82.8305 137.123C83.0777 137.247 83.0777 137.247 82.9483 140.961C82.8761 143.033 82.7728 145.791 82.6679 148.55H88.6871L87.7987 140.188L86.6143 125.763L63.8741 128.057L64.4888 140.041Z" fill="#F5F5F5"/>
</g>
<g id="Group_165">
<path id="Vector_57" d="M107.151 114.502L106.955 112.474L86.0925 114.644L86.9704 125.334L104.983 123.516L107.151 114.502Z" fill="#F5F5F5"/>
</g>
<g id="Group_166">
<path id="Vector_58" d="M78.521 79.8701H70.728L69.8392 83.8957H78.521V79.8701Z" fill="#F5F5F5"/>
</g>
<g id="Group_167">
<path id="Vector_59" d="M103.929 81.2291L84.4119 79.8789L83.6163 84.4903L84.4381 94.4973L105.022 92.518L103.929 81.2291ZM85.1295 84.4813L86.1771 81.5715L103.13 82.6436L104.111 90.9686L85.7036 93.1514L85.1295 84.4813Z" fill="#F5F5F5"/>
</g>
<g id="Group_168">
<path id="Vector_60" d="M105.955 102.145L105.098 93.2939L84.5021 95.2744L85.2754 104.694L105.955 102.145Z" fill="#F5F5F5"/>
</g>
<g id="Group_169">
<path id="Vector_61" d="M50.384 153.845L42.3937 154.351L42.361 153.831L42.3508 156.19H50.4515L50.384 153.845Z" fill="#F5F5F5"/>
</g>
<g id="Group_170">
<path id="Vector_62" d="M113.775 41.1423L113.892 41.4395L113.918 35.3118C113.937 30.7188 110.231 26.9794 105.638 26.9584L103.046 26.9463L103.058 45.3835L113.775 41.1423Z" fill="#F5F5F5"/>
</g>
<g id="Group_171">
<path id="Vector_63" d="M81.8778 148.804L64.1117 140.293L63.4858 128.097L62.7416 128.172L62.6157 143.965L50.507 144.539L50.5171 144.891L50.5198 144.898L50.5175 144.899L50.7519 153.041L81.7908 151.078C81.8197 150.323 81.8485 149.561 81.8778 148.804ZM51.2671 145.543L68.2153 144.353L79.2418 149.469L51.2671 150.983V145.543Z" fill="#F5F5F5"/>
</g>
<g id="Group_172">
<path id="Vector_64" d="M108.725 61.6201L109.452 57.309C103.081 55.0357 102.64 48.3921 102.659 46.3809L98.4999 48.0267L104.761 60.596L108.725 61.6201Z" fill="#F5F5F5"/>
</g>
<g id="Group_173">
<path id="Vector_65" d="M85.9969 113.478L94.6584 112.577L92.9514 104.927L85.3713 105.861L85.9969 113.478Z" fill="#F5F5F5"/>
</g>
<g id="Group_174">
<path id="Vector_66" d="M103.96 68.2282L87.782 68.2254L86.4392 68.126L84.6121 78.7199L103.815 80.0483L103.369 75.4424L105.259 68.6384L103.96 68.2282Z" fill="#F5F5F5"/>
</g>
<g id="Group_175">
<path id="Vector_67" d="M103.564 66.2785L103.767 61.2221L97.4084 48.459L87.5496 52.3605L90.9391 66.2789H103.564V66.2785ZM97.0246 50.0112L102.851 61.0954L102.009 64.5496L92.04 64.1744L89.5479 53.6901L97.0246 50.0112Z" fill="#F5F5F5"/>
</g>
<g id="Group_176">
<path id="Vector_68" d="M106.081 127.29L106.38 137.222L113.389 136.827L113.411 137.217L106.391 137.611L106.748 149.499L113.375 149.08L113.424 149.858L106.771 150.279L106.949 156.19H113.407L113.547 123.044L106.942 123.711L106.081 127.29Z" fill="#F5F5F5"/>
</g>
<g id="Group_177">
<path id="Vector_69" d="M63.4768 46.7321L48.6338 44.6016L44.9218 63.0958L63.5423 64.4752C63.6168 61.6278 63.5517 52.8937 63.4768 46.7321Z" fill="#F5F5F5"/>
</g>
<g id="Group_178">
<path id="Vector_70" d="M87.89 66.2781H90.136L86.9579 53.2275L78.6973 53.5649L78.8954 65.612L87.89 66.2781Z" fill="#F5F5F5"/>
</g>
<g id="Group_179">
<path id="Vector_71" d="M42.3107 165.684L42.299 168.421C42.2986 168.505 42.3083 168.587 42.3107 168.671V165.684Z" fill="#F5F5F5"/>
</g>
<g id="Group_180">
<path id="Vector_72" d="M63.9225 64.503L78.505 65.5833L78.3076 53.5811L63.9412 54.168C63.9708 58.2267 63.9833 62.5561 63.9225 64.503Z" fill="#F5F5F5"/>
</g>
<g id="Group_181">
<path id="Vector_73" d="M106.067 103.311L93.3402 104.879L95.0492 112.536L106.842 111.309L106.067 103.311Z" fill="#F5F5F5"/>
</g>
<g id="Group_182">
<path id="Vector_74" d="M109.518 56.9178L110.333 52.0798L113.846 52.3532L113.89 41.9355L103.054 46.224C102.833 53.5548 107.438 56.1327 109.518 56.9178Z" fill="#F5F5F5"/>
</g>
<g id="Group_183">
<path id="Vector_75" d="M105.345 75.615L105.787 80.1846L113.726 80.7337L113.766 71.3246L107.12 69.2256L105.345 75.615Z" fill="#F5F5F5"/>
</g>
<g id="Group_184">
<path id="Vector_76" d="M109.124 114.64L107.039 123.309L113.549 122.652L113.587 113.561C111.589 113.035 109.846 112.606 108.909 112.426L109.124 114.64Z" fill="#F5F5F5"/>
</g>
<g id="Group_185">
<path id="Vector_77" d="M104.729 66.4261L113.775 69.2824L113.796 64.1383L104.913 61.8428L104.729 66.4261Z" fill="#F5F5F5"/>
</g>
<g id="Group_186">
<path id="Vector_78" d="M108.794 111.236C109.523 111.346 110.905 111.64 113.593 112.346L113.676 92.4697L107.039 93.1082L108.794 111.236Z" fill="#F5F5F5"/>
</g>
<g id="Group_187">
<path id="Vector_79" d="M106.964 92.3309L113.68 91.685L113.721 81.9062L105.902 81.3652L106.964 92.3309Z" fill="#F5F5F5"/>
</g>
<g id="Group_188">
<path id="Vector_80" d="M110.267 57.1645C111.54 57.5517 112.725 57.8509 113.822 58.0708L113.843 53.1358L110.984 52.9131L110.267 57.1645Z" fill="#F5F5F5"/>
</g>
<g id="Group_189">
<path id="Vector_81" d="M109.484 61.816L113.802 62.9318L113.82 58.4718C112.703 58.2479 111.498 57.9441 110.202 57.5518L109.484 61.816Z" fill="#F5F5F5"/>
</g>
<g id="Group_190">
<path id="Vector_82" d="M113.424 149.858L113.375 149.079L106.748 149.499L106.392 137.612L113.411 137.216L113.389 136.827L106.38 137.222L106.082 127.29L106.942 123.711L113.547 123.044L113.549 122.652L107.039 123.309L109.124 114.641L108.909 112.427C109.846 112.607 111.59 113.036 113.587 113.562L113.592 112.346C110.904 111.639 109.523 111.346 108.794 111.236L107.038 93.1083L113.676 92.4698L113.68 91.6859L106.963 92.3318L105.902 81.3661L113.721 81.9071L113.726 80.7343L105.788 80.1852L105.345 75.6156L107.12 69.2262L113.766 71.3252L113.775 69.2832L104.729 66.4268L104.913 61.8439L113.797 64.1394L113.802 62.9328L109.484 61.817L110.202 57.5527C111.498 57.9455 112.703 58.2493 113.82 58.4727L113.822 58.0718C112.725 57.8519 111.54 57.5523 110.267 57.1655L110.983 52.9141L113.843 53.1368L113.846 52.3548L110.333 52.0814L109.517 56.9194C107.437 56.1343 102.832 53.5564 103.053 46.2256L113.889 41.9371L113.891 41.4411L113.774 41.1439L103.057 45.3847L103.045 26.9475L102.655 26.9459L102.667 45.5392L98.1498 47.3265L91.3622 33.7011C91.044 33.9297 90.6738 34.0829 90.2745 34.1422L97.0578 47.7587L86.6292 51.8856L86.862 52.8419L78.6891 53.1758L78.3756 34.1188L77.9856 34.1169L78.2995 53.1918L63.9366 53.7787C63.9136 50.8381 63.8824 48.0886 63.8637 46.561L63.8617 46.3941L63.8563 46.3933L62.9745 26.7626L62.5841 26.7607L63.4635 46.3367L48.7098 44.2186L52.2237 26.7127L51.2191 26.708C51.1551 26.7076 51.0931 26.7154 51.0296 26.7166L47.55 44.0517L42.8626 43.3786L42.8259 43.6329L42.8255 43.7674L47.4732 44.4347L43.7451 63.0084L42.7448 62.9343L42.7366 64.889L50.0413 65.43V75.0614L42.6867 76.7247L42.6816 77.9256L51.2113 75.9962V65.5165L78.5207 67.5395V78.7001H69.7878L68.6404 83.8961H61.5311L42.6414 87.3335L42.6364 88.5234L61.6364 85.0657H83.272L84.0493 94.5337L61.5463 96.6974L61.6208 97.4739L84.1129 95.3114L85.6031 113.458L62.8785 110.489L62.7268 111.65L85.701 114.651L86.5812 125.373L62.533 127.8L50.0553 128.683V112.326L61.8782 105.43L61.2885 104.419L49.7383 111.156L42.5443 110.206L42.5393 111.386L49.6653 112.327V122.735L42.4882 123.495L42.4831 124.672L49.6653 123.911V129.101L49.6712 129.1L50.0947 143.815L50.092 143.807L42.3899 146.825L42.3844 148.083L50.1302 145.049L50.3607 153.065L42.361 153.571L42.3599 153.83L42.3926 154.35L50.3829 153.845L50.4504 156.189H50.8408L50.7726 153.82L81.7588 151.86C81.6999 153.382 81.6426 154.859 81.5904 156.188H82.3707C82.4199 154.932 82.4788 153.421 82.5412 151.81L89.2308 151.387L90.1879 156.188H90.5853L89.6236 151.362L104.823 150.401L104.997 156.188H106.948M82.5732 151.028C82.5997 150.335 82.627 149.63 82.6539 148.922L88.7441 148.939L89.0787 150.617L82.5732 151.028ZM89.4711 150.592L89.0975 148.716L88.1872 140.151L87.6744 133.905L104.292 132.653L104.801 149.622L89.4711 150.592ZM93.2502 125.093L101.991 124.21L101.747 127.642L93.9128 128.487L93.2502 125.093ZM92.8606 125.132L94.3223 132.621L87.61 133.127L87.002 125.723L92.8606 125.132ZM104.268 131.872L94.7142 132.592L94.0629 129.255L102.479 128.347L102.779 124.13L104.887 123.917L104.125 127.087L104.268 131.872ZM92.9515 104.926L94.6585 112.576L85.9966 113.477L85.371 105.86L92.9515 104.926ZM95.0493 112.536L93.3407 104.878L106.068 103.31L106.842 111.309L95.0493 112.536ZM103.815 80.0483L84.6121 78.7196L86.4396 68.126L87.7824 68.2255L103.961 68.2282L105.259 68.6385L103.369 75.4424L103.815 80.0483ZM102.659 46.3804C102.641 48.3916 103.081 55.0353 109.452 57.3086L108.726 61.6197L104.762 60.5955L98.5008 48.0262L102.659 46.3804ZM97.4084 48.4587L103.767 61.2219L103.564 66.2782H90.9387L87.5492 52.3599L97.4084 48.4587ZM86.9579 53.2276L90.136 66.2786H87.8904L78.8958 65.6125L78.6977 53.5658L86.9579 53.2276ZM78.3073 53.581L78.5047 65.5832L63.9222 64.5029C63.983 62.556 63.9709 58.227 63.9405 54.1679L78.3073 53.581ZM48.6338 44.6012L63.4768 46.7318C63.5517 52.8934 63.6168 61.6275 63.5423 64.4748L44.9218 63.0954L48.6338 44.6012ZM86.0484 68.0972L83.3231 83.8961H78.9111V67.5683L86.0484 68.0972ZM70.7281 79.8705H78.5211V83.8965H69.8393L70.7281 79.8705ZM83.6164 84.49L84.412 79.8787L103.93 81.2289L105.023 92.5174L84.4385 94.4967L83.6164 84.49ZM105.098 93.2943L105.955 102.146L85.2755 104.694L84.5021 95.2747L105.098 93.2943ZM86.0925 114.644L106.955 112.474L107.151 114.502L104.983 123.517L86.9704 125.334L86.0925 114.644ZM87.7988 140.187L88.6872 148.549H82.6679C82.7728 145.79 82.8758 143.033 82.9483 140.96C83.0782 137.246 83.0782 137.246 82.8306 137.122L82.6461 137.49L82.269 137.51C82.2865 137.835 82.1009 142.93 81.8938 148.378L64.4889 140.04L63.8738 128.057L86.6139 125.762L87.7988 140.187ZM62.3513 128.204L62.2288 143.592L50.496 144.149L50.0624 129.073L62.3513 128.204ZM50.5171 144.899L50.5194 144.898L50.5167 144.89L50.5066 144.538L62.6153 143.964L62.7413 128.171L63.4854 128.096L64.1113 140.292L81.8774 148.803C81.8485 149.56 81.8193 150.322 81.7904 151.077L50.7515 153.04L50.5171 144.899Z" fill="white"/>
</g>
<g id="Group_191">
<path id="Vector_83" d="M68.2153 144.353L51.2671 145.542V150.982L79.2422 149.468L68.2153 144.353Z" fill="#EBEBEB"/>
</g>
<g id="Group_192">
<path id="Vector_84" d="M103.13 82.643L86.1771 81.5713L85.1295 84.4811L85.7036 93.1508L104.111 90.9679L103.13 82.643Z" fill="#EBEBEB"/>
</g>
<g id="Group_193">
<path id="Vector_85" d="M42.3508 151.027L42.3107 165.683V168.67C42.4249 173.147 46.0707 176.753 50.5791 176.774L104.997 177.025C109.592 177.047 113.334 173.338 113.354 168.742L113.407 151.027H42.3508Z" fill="#EBEBEB"/>
</g>
<g id="Group_194">
<path id="Vector_86" d="M61.8657 44.6866L61.5845 28.7441H53.3032L50.902 43.0821L61.8657 44.6866Z" fill="#EBEBEB"/>
</g>
<g id="Group_195">
<path id="Vector_87" d="M102.009 64.5492L102.851 61.0953L97.0246 50.0107L89.5475 53.69L92.04 64.174L102.009 64.5492Z" fill="#EBEBEB"/>
</g>
<g id="Group_196">
<path id="Vector_88" d="M51.2671 113.131C51.3564 113.634 51.2671 127.122 51.2671 127.122L62.1645 126.433L60.9137 107.999L51.2671 113.131Z" fill="#EBEBEB"/>
</g>
</g>
<g id="Group_197">
<path id="Vector_89" d="M87.6132 124.085L87.0367 115.726L105.727 113.323V114.765L103.467 122.451L87.6132 124.085Z" fill="#EBEBEB"/>
</g>
<g id="Group_198">
<g id="Group_199">
<g id="Group_200">
<g id="Group_201">
<path id="Vector_90" d="M105.038 145.379L104.803 139.928L88.3729 140.727C87.9411 140.747 87.5133 140.656 87.1307 140.463L63.8278 128.693C63.2888 128.421 62.9339 127.877 62.9031 127.273L59.7309 65.7558C59.7157 65.4613 59.8276 65.1739 60.0386 64.9676C60.2496 64.7605 60.5417 64.6572 60.8342 64.6763L70.8213 65.4165V54.498H71.9913V65.5674C71.9913 65.8529 71.8716 66.1275 71.6625 66.3217C71.4539 66.5159 71.1719 66.6146 70.886 66.5939L60.9075 65.8548L64.0716 127.212C64.0809 127.398 64.1897 127.565 64.3551 127.648L87.6588 139.418C87.8616 139.52 88.0889 139.57 88.3163 139.557L104.882 138.752C105.165 138.738 105.425 138.835 105.63 139.022C105.835 139.208 105.954 139.464 105.966 139.741L106.207 145.329L105.038 145.379Z" fill="white"/>
</g>
</g>
</g>
</g>
</g>
</g>
<g id="Group_202">
<g id="Group_203">
<path id="Vector_91" d="M100.211 47.8126C100.211 49.0699 99.1918 50.089 97.9344 50.089C96.677 50.089 95.658 49.0699 95.658 47.8126C95.658 46.5552 96.677 45.5361 97.9344 45.5361C99.1914 45.5365 100.211 46.5556 100.211 47.8126Z" fill="#3DB44A"/>
</g>
<g id="Group_204" opacity="0.6">
<path id="Vector_92" d="M100.209 47.7148C100.262 48.971 99.2877 50.0326 98.0319 50.0864C96.7758 50.1403 95.7142 49.1656 95.66 47.9098C95.6061 46.654 96.5808 45.5921 97.8366 45.5383C99.0927 45.4844 100.155 46.459 100.209 47.7148Z" fill="white"/>
</g>
<g id="Group_205">
<path id="Vector_93" d="M99.4484 47.7337C99.4484 48.5699 98.7706 49.2477 97.9344 49.2477C97.0982 49.2477 96.4204 48.5699 96.4204 47.7337C96.4204 46.8975 97.0982 46.2197 97.9344 46.2197C98.7706 46.2197 99.4484 46.8975 99.4484 47.7337Z" fill="#3DB44A"/>
</g>
</g>
<g id="Group_206">
<path id="Vector_94" d="M105.532 146.216L105.249 139.826C105.245 139.733 105.205 139.648 105.137 139.586C105.068 139.524 104.981 139.491 104.887 139.497L87.7313 140.386L85.6655 114.397L83.0802 84.472L83.0849 84.4463L86.0122 68.4625C86.1222 67.8616 86.6456 67.424 87.2563 67.422L102.751 67.3737C103.335 67.3737 103.82 66.9177 103.856 66.3355L104.122 62.0377C104.156 61.4901 104.049 60.9394 103.811 60.4449L97.7578 47.8183L98.1096 47.6494L104.163 60.276C104.429 60.8306 104.549 61.448 104.511 62.0619L104.245 66.3597C104.197 67.1471 103.54 67.7637 102.752 67.7637L87.2575 67.812C86.8343 67.8132 86.4716 68.1166 86.3956 68.5327L83.4729 84.4908L86.054 114.364L88.0898 139.977L104.866 139.108C105.068 139.096 105.252 139.165 105.398 139.297C105.545 139.43 105.63 139.612 105.638 139.809L105.921 146.199L105.532 146.216Z" fill="#3DB44A"/>
</g>
<g id="Group_207">
<path id="Vector_95" d="M106.595 145.695C106.595 146.233 106.159 146.668 105.622 146.668C105.085 146.668 104.65 146.232 104.65 145.695C104.65 145.158 105.085 144.723 105.622 144.723C106.159 144.723 106.595 145.158 106.595 145.695Z" fill="#3DB44A"/>
</g>
<g id="Group_208">
<g id="Group_209">
<path id="Vector_96" d="M87.8295 127.704C87.8643 128.208 87.4836 128.645 86.9797 128.679C86.4759 128.714 86.0394 128.333 86.0051 127.829C85.9704 127.325 86.3511 126.889 86.8549 126.855C87.3588 126.82 87.7952 127.201 87.8295 127.704Z" fill="#3DB44A"/>
</g>
<g id="Group_210">
<path id="Vector_97" d="M87.0015 128.479C86.0932 128.541 85.4076 129.328 85.47 130.235L88.7589 130.01C88.6965 129.102 87.9098 128.416 87.0015 128.479Z" fill="#3DB44A"/>
</g>
</g>
<g id="Group_211">
<g id="Group_212">
<g id="Group_213">
<path id="Vector_98" d="M99.996 118.014H91.898C91.2155 118.014 90.6621 118.567 90.6621 119.249V124.334C90.6621 125.017 91.2155 125.57 91.898 125.57H92.0618V126.782L93.4674 125.57H99.996C100.678 125.57 101.232 125.017 101.232 124.334V119.249C101.232 118.567 100.678 118.014 99.996 118.014Z" fill="#3DB44A"/>
</g>
</g>
<g id="Group_214" opacity="0.4">
<g id="Group_215">
<path id="Vector_99" d="M99.996 118.014H91.898C91.2155 118.014 90.6621 118.567 90.6621 119.249V124.334C90.6621 125.017 91.2155 125.57 91.898 125.57H92.0618V126.782L93.4674 125.57H99.996C100.678 125.57 101.232 125.017 101.232 124.334V119.249C101.232 118.567 100.678 118.014 99.996 118.014Z" fill="white"/>
</g>
</g>
<g id="Group_216">
<path id="Vector_100" d="M94.4701 121.999V122.664H94.1979V121.993L93.4335 120.739H93.7275L94.3433 121.754L94.9619 120.739H95.2341L94.4701 121.999Z" fill="white"/>
<path id="Vector_101" d="M95.1725 121.936C95.1725 121.501 95.4942 121.193 95.9314 121.193C96.3686 121.193 96.6876 121.501 96.6876 121.936C96.6876 122.37 96.369 122.68 95.9314 122.68C95.4942 122.68 95.1725 122.37 95.1725 121.936ZM96.4209 121.936C96.4209 121.625 96.2118 121.424 95.9314 121.424C95.651 121.424 95.4392 121.625 95.4392 121.936C95.4392 122.246 95.651 122.45 95.9314 122.45C96.2118 122.45 96.4209 122.246 96.4209 121.936Z" fill="white"/>
<path id="Vector_102" d="M98.4099 121.206V122.663H98.1595V122.443C98.0526 122.594 97.8709 122.68 97.6646 122.68C97.2878 122.68 97.0378 122.474 97.0378 122.045V121.206H97.3019V122.015C97.3019 122.3 97.4446 122.444 97.695 122.444C97.9699 122.444 98.1458 122.273 98.1458 121.96V121.206H98.4099V121.206Z" fill="white"/>
</g>
</g>
<g id="Group_217">
<g id="Group_218">
<g id="Group_219">
<path id="Vector_103" d="M51.9925 158.564C52.0485 158.564 52.0939 158.302 52.0939 157.979C52.0939 157.655 52.0485 157.394 51.9925 157.394C51.9365 157.394 51.8911 157.655 51.8911 157.979C51.8911 158.302 51.9365 158.564 51.9925 158.564Z" fill="#263238"/>
</g>
</g>
<g id="Group_220">
<g id="Group_221">
<path id="Vector_104" d="M51.9925 160.903C52.0485 160.903 52.0939 160.641 52.0939 160.318C52.0939 159.995 52.0485 159.733 51.9925 159.733C51.9365 159.733 51.8911 159.995 51.8911 160.318C51.8911 160.641 51.9365 160.903 51.9925 160.903Z" fill="#263238"/>
</g>
</g>
<g id="Group_222">
<g id="Group_223">
<path id="Vector_105" d="M51.9925 163.243C52.0485 163.243 52.0939 162.981 52.0939 162.658C52.0939 162.335 52.0485 162.073 51.9925 162.073C51.9365 162.073 51.8911 162.335 51.8911 162.658C51.8911 162.981 51.9365 163.243 51.9925 163.243Z" fill="#263238"/>
</g>
</g>
<g id="Group_224">
<g id="Group_225">
<path id="Vector_106" d="M51.9925 165.583C52.0485 165.583 52.0939 165.321 52.0939 164.998C52.0939 164.675 52.0485 164.413 51.9925 164.413C51.9365 164.413 51.8911 164.675 51.8911 164.998C51.8911 165.321 51.9365 165.583 51.9925 165.583Z" fill="#263238"/>
</g>
</g>
<g id="Group_226">
<g id="Group_227">
<path id="Vector_107" d="M51.9925 167.596C52.0485 167.596 52.0939 167.408 52.0939 167.175C52.0939 166.942 52.0485 166.754 51.9925 166.754C51.9365 166.754 51.8911 166.942 51.8911 167.175C51.8911 167.408 51.9365 167.596 51.9925 167.596Z" fill="#263238"/>
</g>
</g>
</g>
<g id="Group_228">
<g id="Group_229">
<g id="Group_230">
<path id="Vector_108" d="M53.6495 169.599C53.6495 168.579 52.7276 167.774 51.6714 167.973C51.0073 168.097 50.4777 168.64 50.3614 169.306C50.2889 169.722 50.3747 170.113 50.5642 170.437H50.5635L50.5681 170.443C50.6317 170.55 50.7113 170.627 50.7916 170.739L51.7537 172.013C51.8735 172.172 52.1118 172.172 52.2315 172.013L53.1776 170.76C53.1776 170.76 53.3543 170.549 53.4183 170.441L53.4218 170.436H53.421C53.5653 170.191 53.6495 169.905 53.6495 169.599ZM51.9924 170.321C51.5895 170.321 51.2631 169.994 51.2631 169.592C51.2631 169.189 51.5895 168.862 51.9924 168.862C52.3953 168.862 52.7217 169.189 52.7217 169.592C52.7217 169.994 52.3953 170.321 51.9924 170.321Z" fill="#455A64"/>
</g>
</g>
<g id="Group_231">
<g id="Group_232">
<path id="Vector_109" d="M94.0629 170.321C94.0629 170.377 85.6565 170.423 75.2887 170.423C64.9174 170.423 56.5129 170.377 56.5129 170.321C56.5129 170.265 64.9178 170.22 75.2887 170.22C85.6565 170.219 94.0629 170.265 94.0629 170.321Z" fill="#263238"/>
</g>
</g>
<g id="Group_233">
<g id="Group_234">
<path id="Vector_110" d="M79.2421 168.674C79.2421 168.73 74.1487 168.775 67.8665 168.775C61.5825 168.775 56.4902 168.729 56.4902 168.674C56.4902 168.618 61.5829 168.572 67.8665 168.572C74.1483 168.572 79.2421 168.618 79.2421 168.674Z" fill="#3DB44A"/>
</g>
</g>
<g id="Group_235">
<g id="Group_236">
<path id="Vector_111" d="M62.6496 172.183C62.6496 172.24 61.3029 172.285 59.6415 172.285C57.9797 172.285 56.6334 172.239 56.6334 172.183C56.6334 172.127 57.9801 172.082 59.6415 172.082C61.3029 172.082 62.6496 172.128 62.6496 172.183Z" fill="#263238"/>
</g>
</g>
</g>
<g id="Group_237">
<g id="Group_238">
<g id="Group_239">
<path id="Vector_112" d="M53.6495 156.672C53.6495 155.651 52.7276 154.846 51.6714 155.045C51.0073 155.17 50.4777 155.712 50.3614 156.378C50.2889 156.794 50.3747 157.186 50.5642 157.509H50.5635L50.5681 157.515C50.6317 157.622 50.7113 157.699 50.7916 157.811L51.7537 159.086C51.8735 159.244 52.1118 159.244 52.2315 159.086L53.1776 157.832C53.1776 157.832 53.3543 157.622 53.4183 157.514L53.4218 157.509H53.421C53.5653 157.263 53.6495 156.977 53.6495 156.672ZM51.9924 157.393C51.5895 157.393 51.2631 157.067 51.2631 156.664C51.2631 156.261 51.5895 155.935 51.9924 155.935C52.3953 155.935 52.7217 156.261 52.7217 156.664C52.7217 157.067 52.3953 157.393 51.9924 157.393Z" fill="#3DB44A"/>
</g>
</g>
<g id="Group_240">
<g id="Group_241">
<path id="Vector_113" d="M101.991 157.393C101.991 157.45 91.8095 157.495 79.2531 157.495C66.6923 157.495 56.5129 157.45 56.5129 157.393C56.5129 157.337 66.6923 157.292 79.2531 157.292C91.8095 157.292 101.991 157.337 101.991 157.393Z" fill="#263238"/>
</g>
</g>
<g id="Group_242">
<g id="Group_243">
<path id="Vector_114" d="M88.6871 155.746C88.6871 155.802 81.4791 155.847 72.5894 155.847C63.6967 155.847 56.4902 155.802 56.4902 155.746C56.4902 155.69 63.6967 155.645 72.5894 155.645C81.4791 155.645 88.6871 155.69 88.6871 155.746Z" fill="#3DB44A"/>
</g>
</g>
<g id="Group_244">
<g id="Group_245">
<path id="Vector_115" d="M74.2774 159.256C74.2774 159.312 70.3275 159.357 65.456 159.357C60.5829 159.357 56.6338 159.311 56.6338 159.256C56.6338 159.2 60.5829 159.154 65.456 159.154C70.3271 159.154 74.2774 159.2 74.2774 159.256Z" fill="#263238"/>
</g>
</g>
</g>
</g>
</g>
<g id="Speech_Bubble">
<g id="Group_246">
<g id="Group_247">
<g id="Group_248">
<g id="Group_249">
<g id="Group_250">
<path id="Vector_116" d="M167.095 63.7335L165.319 59.775C163.519 59.6291 161.735 59.0001 160.172 57.8538C155.678 54.5568 154.707 48.24 158.004 43.7452C161.301 39.2505 167.618 38.2794 172.113 41.5768C176.607 44.8739 177.578 51.1907 174.281 55.6854C172.904 57.5621 171 58.8222 168.923 59.4158H168.929L167.095 63.7335Z" fill="white"/>
</g>
<g id="Group_251">
<g id="Group_252">
<path id="Vector_117" d="M167.095 63.7335C167.23 63.4059 167.767 62.1025 168.882 59.3959L168.93 59.4661C168.93 59.4661 168.926 59.4661 168.924 59.4661L168.532 59.4762L168.909 59.3666C170.29 58.9661 171.941 58.153 173.361 56.6667C173.712 56.2946 174.056 55.891 174.355 55.4355C174.502 55.2065 174.659 54.9791 174.805 54.7397C174.934 54.4913 175.065 54.2389 175.197 53.9835C175.681 52.9398 176.014 51.7558 176.108 50.4941C176.313 47.9837 175.503 45.1281 173.528 42.9788C172.545 41.9138 171.301 41.032 169.891 40.4622C168.484 39.8971 166.911 39.6143 165.337 39.7641C163.735 39.9084 162.178 40.3963 160.869 41.2328C159.553 42.0569 158.465 43.1676 157.679 44.4168C156.892 45.6656 156.397 47.0504 156.227 48.4279C156.052 49.805 156.17 51.1646 156.512 52.3993C156.853 53.6364 157.416 54.7471 158.102 55.6851C158.793 56.6242 159.627 57.3566 160.452 57.9642C162.144 59.1467 163.919 59.6046 165.323 59.7262L165.353 59.729L165.364 59.7551C166.446 62.2437 166.96 63.4234 167.095 63.7335C166.953 63.4265 166.413 62.2585 165.274 59.7949L165.315 59.8233C163.896 59.7165 162.095 59.2684 160.371 58.08C159.53 57.4697 158.681 56.7306 157.973 55.7798C157.272 54.8302 156.695 53.7031 156.344 52.4461C155.991 51.1915 155.866 49.8078 156.042 48.4045C156.211 47.0009 156.712 45.5876 157.512 44.313C158.312 43.0385 159.42 41.9036 160.762 41.062C162.098 40.2079 163.686 39.7091 165.32 39.5617C166.926 39.4096 168.531 39.6982 169.966 40.2758C171.404 40.8588 172.671 41.7589 173.671 42.847C174.672 43.9383 175.385 45.2245 175.814 46.5442C176.243 47.8667 176.384 49.2263 176.282 50.5078C176.181 51.7913 175.838 52.994 175.341 54.0521C175.205 54.3111 175.071 54.5661 174.939 54.8181C174.79 55.0603 174.63 55.2908 174.479 55.522C174.173 55.9826 173.821 56.3902 173.464 56.7653C172.014 58.2641 170.336 59.0738 168.937 59.4634L168.922 59.3639C168.924 59.3639 168.927 59.3639 168.927 59.3639L169.006 59.3627L168.975 59.4345C167.802 62.1177 167.237 63.4094 167.095 63.7335Z" fill="#263238"/>
</g>
</g>
</g>
</g>
</g>
<g id="Group_253">
<g id="Group_254">
<path id="Vector_118" d="M170.42 49.3363C170.42 46.9982 168.307 45.1539 165.886 45.6083C164.364 45.8941 163.15 47.1375 162.884 48.6635C162.717 49.6175 162.914 50.5145 163.349 51.2551H163.347L163.358 51.2695C163.504 51.5148 163.686 51.6903 163.871 51.9481L166.075 54.8688C166.349 55.2323 166.895 55.2323 167.17 54.8688L169.338 51.9965C169.338 51.9965 169.743 51.514 169.89 51.2656L169.897 51.2551H169.896C170.226 50.6911 170.42 50.0371 170.42 49.3363ZM166.622 50.9895C165.699 50.9895 164.951 50.2411 164.951 49.3183C164.951 48.3952 165.699 47.6472 166.622 47.6472C167.545 47.6472 168.293 48.3956 168.293 49.3183C168.293 50.2415 167.545 50.9895 166.622 50.9895Z" fill="#3DB44A"/>
</g>
</g>
</g>
</g>
<g id="Character">
<g id="Group_255">
<g id="Group_256">
<g id="Group_257">
<g id="Group_258">
<g id="Group_259">
<g id="Group_260">
<g id="Group_261">
<g id="Group_262">
<g id="Group_263">
<path id="Vector_119" d="M138.638 45.2412C138.989 43.9405 139.967 43.3005 141.242 42.8657C142.517 42.4308 144.001 42.6718 145.073 43.4877C145.79 44.0333 146.351 44.8262 147.202 45.1218C148.603 45.6089 150.245 44.5598 151.588 45.1885C152.383 45.5606 152.846 46.5309 152.634 47.383C152.422 48.2352 151.559 48.876 150.682 48.8323C151.596 49.1661 151.881 50.4707 151.347 51.2842C150.813 52.0977 149.716 52.4055 148.758 52.2268C147.801 52.0482 146.968 51.4679 146.243 50.8174C145.519 50.1669 144.871 49.4305 144.097 48.8393C143.324 48.2481 142.385 47.8011 141.413 47.8534C140.097 47.9244 138.968 48.9165 138.382 50.0967C137.796 51.2768 137.66 52.6246 137.587 53.9405C137.513 55.2564 137.49 56.5941 137.1 57.853C137.055 58.0008 136.985 58.1661 136.837 58.2118C136.623 58.2773 136.441 58.0507 136.335 57.8538C135.138 55.6323 134.382 53.1738 134.126 50.6629C133.977 49.2047 134.015 47.8237 134.817 46.5968C135.619 45.3702 137.644 44.4666 138.638 45.2412Z" fill="#263238"/>
</g>
</g>
</g>
</g>
<g id="Group_264">
<g id="Group_265">
<g id="Group_266">
<g id="Group_267">
<g id="Group_268">
<g id="Group_269">
<g id="Group_270">
<g id="Group_271">
<g id="Group_272">
<g id="Group_273">
<g id="Group_274">
<g id="Group_275">
<g id="Group_276">
<g id="Group_277">
<g id="Group_278">
<g id="Group_279">
<g id="Group_280">
<path id="Vector_120" d="M136.093 51.3478L135.42 66.1097C135.306 68.6201 135.65 72.331 139.628 72.331C143.078 72.0709 144.099 68.8459 144.203 66.5032C144.253 65.3921 144.296 64.4655 144.309 64.3516C144.309 64.3516 148.083 64.1695 148.524 60.4625C148.737 58.6712 148.875 54.9456 148.962 51.5736C149.054 47.9525 146.346 44.8687 142.744 44.4854L142.386 44.4472C138.499 44.2615 136.171 47.4583 136.093 51.3478Z" fill="#FFBE9D"/>
</g>
</g>
</g>
</g>
</g>
</g>
</g>
</g>
</g>
</g>
</g>
<g id="Group_281">
<g id="Group_282">
<g id="Group_283">
<g id="Group_284">
<g id="Group_285">
<g id="Group_286">
<g id="Group_287">
<g id="Group_288">
<g id="Group_289">
<g id="Group_290">
<g id="Group_291">
<path id="Vector_121" d="M144.321 64.2985C144.321 64.2985 141.954 64.2396 139.628 62.4082C139.628 62.4082 140.487 65.2014 144.227 65.2614L144.321 64.2985Z" fill="#EB996E"/>
</g>
</g>
</g>
</g>
</g>
</g>
</g>
</g>
</g>
</g>
</g>
</g>
</g>
</g>
<g id="Group_292">
<g id="Group_293">
<g id="Group_294">
<g id="Group_295">
<g id="Group_296">
<g id="Group_297">
<g id="Group_298">
<g id="Group_299">
<g id="Group_300">
<g id="Group_301">
<g id="Group_302">
<g id="Group_303">
<g id="Group_304">
<g id="Group_305">
<g id="Group_306">
<g id="Group_307">
<g id="Group_308">
<path id="Vector_122" d="M148.006 54.3343C147.986 54.6151 147.732 54.83 147.437 54.8148C147.144 54.7992 146.922 54.5597 146.942 54.2785C146.962 53.9977 147.216 53.7824 147.509 53.7976C147.803 53.8132 148.026 54.0535 148.006 54.3343Z" fill="#263238"/>
</g>
</g>
</g>
</g>
</g>
</g>
</g>
</g>
</g>
</g>
</g>
<g id="Group_309">
<g id="Group_310">
<g id="Group_311">
<g id="Group_312">
<g id="Group_313">
<g id="Group_314">
<g id="Group_315">
<g id="Group_316">
<g id="Group_317">
<g id="Group_318">
<g id="Group_319">
<g id="Group_320">
<path id="Vector_123" d="M147.97 53.3103C147.897 53.3723 147.527 53.0326 146.957 52.9733C146.388 52.9058 145.938 53.1551 145.883 53.0786C145.856 53.0443 145.936 52.9269 146.133 52.8134C146.326 52.7003 146.646 52.6044 147.001 52.6438C147.357 52.6835 147.641 52.8462 147.799 52.9983C147.96 53.1512 148.006 53.2826 147.97 53.3103Z" fill="#263238"/>
</g>
</g>
</g>
</g>
</g>
</g>
</g>
</g>
</g>
</g>
</g>
</g>
</g>
<g id="Group_321">
<g id="Group_322">
<g id="Group_323">
<g id="Group_324">
<g id="Group_325">
<g id="Group_326">
<g id="Group_327">
<g id="Group_328">
<g id="Group_329">
<g id="Group_330">
<g id="Group_331">
<g id="Group_332">
<path id="Vector_124" d="M142.39 53.9329C142.37 54.2141 142.116 54.4286 141.822 54.4134C141.529 54.3982 141.306 54.1583 141.326 53.8771C141.346 53.5963 141.6 53.3811 141.894 53.3963C142.188 53.4119 142.41 53.6521 142.39 53.9329Z" fill="#263238"/>
</g>
</g>
</g>
</g>
</g>
</g>
</g>
</g>
</g>
</g>
</g>
<g id="Group_333">
<g id="Group_334">
<g id="Group_335">
<g id="Group_336">
<g id="Group_337">
<g id="Group_338">
<g id="Group_339">
<g id="Group_340">
<g id="Group_341">
<g id="Group_342">
<g id="Group_343">
<g id="Group_344">
<path id="Vector_125" d="M142.352 52.8199C142.279 52.8819 141.908 52.5422 141.338 52.4829C140.769 52.4158 140.319 52.6647 140.264 52.5882C140.237 52.5539 140.317 52.4365 140.514 52.3234C140.707 52.2103 141.027 52.1144 141.382 52.1534C141.737 52.1932 142.022 52.3558 142.18 52.5079C142.341 52.6612 142.387 52.7926 142.352 52.8199Z" fill="#263238"/>
</g>
</g>
</g>
</g>
</g>
</g>
</g>
</g>
</g>
</g>
</g>
</g>
</g>
<g id="Group_345">
<g id="Group_346">
<g id="Group_347">
<g id="Group_348">
<g id="Group_349">
<g id="Group_350">
<g id="Group_351">
<g id="Group_352">
<g id="Group_353">
<g id="Group_354">
<g id="Group_355">
<g id="Group_356">
<path id="Vector_126" d="M143.972 57.2704C143.972 57.2377 144.333 57.2143 144.916 57.2018C145.063 57.2022 145.204 57.1881 145.239 57.091C145.285 56.9896 145.24 56.8258 145.188 56.6488C145.088 56.2818 144.984 55.8968 144.875 55.4936C144.445 53.8509 144.15 52.5062 144.216 52.4894C144.282 52.4726 144.685 53.7908 145.115 55.4335C145.218 55.8383 145.316 56.2241 145.409 56.5934C145.447 56.7646 145.521 56.9627 145.424 57.1733C145.373 57.2778 145.258 57.3457 145.162 57.3609C145.066 57.3796 144.983 57.3722 144.911 57.3691C144.33 57.3387 143.97 57.3032 143.972 57.2704Z" fill="#263238"/>
</g>
</g>
</g>
</g>
</g>
</g>
</g>
</g>
</g>
</g>
</g>
</g>
</g>
</g>
</g>
<g id="Group_357">
<g id="Group_358">
<g id="Group_359">
<g id="Group_360">
<g id="Group_361">
<g id="Group_362">
<g id="Group_363">
<g id="Group_364">
<g id="Group_365">
<g id="Group_366">
<g id="Group_367">
<path id="Vector_127" d="M142.737 50.6001C142.664 50.7491 142.102 50.6149 141.425 50.6247C140.746 50.6204 140.186 50.7588 140.112 50.6106C140.079 50.5396 140.189 50.4039 140.423 50.2768C140.655 50.15 141.015 50.0443 141.422 50.042C141.829 50.0408 142.19 50.1438 142.423 50.269C142.658 50.3942 142.769 50.5291 142.737 50.6001Z" fill="#263238"/>
</g>
</g>
</g>
</g>
</g>
</g>
</g>
</g>
</g>
</g>
</g>
<g id="Group_368">
<g id="Group_369">
<g id="Group_370">
<g id="Group_371">
<g id="Group_372">
<g id="Group_373">
<g id="Group_374">
<g id="Group_375">
<g id="Group_376">
<g id="Group_377">
<g id="Group_378">
<path id="Vector_128" d="M147.936 51.6374C147.822 51.7563 147.444 51.58 146.972 51.5235C146.502 51.4502 146.09 51.5176 146.012 51.3722C145.979 51.302 146.056 51.1791 146.244 51.075C146.429 50.9713 146.728 50.9018 147.051 50.9463C147.375 50.9911 147.644 51.1386 147.794 51.2887C147.946 51.4396 147.987 51.5789 147.936 51.6374Z" fill="#263238"/>
</g>
</g>
</g>
</g>
</g>
</g>
</g>
</g>
</g>
</g>
</g>
</g>
</g>
</g>
</g>
</g>
<g id="Group_379">
<g id="Group_380">
<g id="Group_381">
<g id="Group_382">
<g id="Group_383">
<g id="Group_384">
<g id="Group_385">
<g id="Group_386">
<g id="Group_387">
<g id="Group_388">
<g id="Group_389">
<g id="Group_390">
<path id="Vector_129" d="M136.104 54.1283C136.043 54.0944 133.633 53.1026 133.444 55.6489C133.255 58.1952 135.851 57.8598 135.86 57.7873C135.871 57.7144 136.104 54.1283 136.104 54.1283Z" fill="#FFBE9D"/>
</g>
</g>
</g>
</g>
</g>
</g>
</g>
</g>
</g>
</g>
</g>
<g id="Group_391">
<g id="Group_392">
<g id="Group_393">
<g id="Group_394">
<g id="Group_395">
<g id="Group_396">
<g id="Group_397">
<g id="Group_398">
<g id="Group_399">
<g id="Group_400">
<g id="Group_401">
<g id="Group_402">
<path id="Vector_130" d="M135.155 56.7641C135.144 56.7551 135.108 56.7918 135.03 56.8207C134.955 56.8487 134.827 56.8624 134.698 56.8027C134.436 56.6838 134.242 56.24 134.263 55.7801C134.274 55.5481 134.339 55.3309 134.434 55.1542C134.526 54.9736 134.656 54.8523 134.793 54.8387C134.93 54.8176 135.02 54.9058 135.046 54.9799C135.075 55.0536 135.055 55.1031 135.068 55.1086C135.075 55.1156 135.126 55.07 135.113 54.9631C135.107 54.9116 135.081 54.8496 135.025 54.7962C134.968 54.742 134.879 54.71 134.784 54.7131C134.587 54.7119 134.397 54.8796 134.292 55.0735C134.176 55.2673 134.097 55.511 134.085 55.772C134.064 56.2864 134.291 56.786 134.651 56.9197C134.826 56.9798 134.98 56.9369 135.062 56.8823C135.145 56.8253 135.163 56.7696 135.155 56.7641Z" fill="#EB996E"/>
</g>
</g>
</g>
</g>
</g>
</g>
</g>
</g>
</g>
</g>
</g>
</g>
</g>
<g id="Group_403">
<g id="Group_404">
<g id="Group_405">
<g id="Group_406">
<path id="Vector_131" d="M149.829 50.8862C148.148 51.1475 146.355 50.5383 145.181 49.3067C144.36 48.4448 143.78 47.2701 142.685 46.8013C141.949 46.4858 141.085 46.5603 140.346 46.8711C139.607 47.182 138.98 47.7108 138.427 48.2915C138.944 50.2544 138.238 52.3089 137.541 54.2148C137.464 54.4254 137.375 54.6516 137.184 54.769C136.859 54.9679 136.429 54.7398 136.196 54.4379C135.824 53.9551 135.727 53.3182 135.684 52.7098C135.585 51.3242 135.7 49.9116 136.146 48.5961C136.592 47.2806 137.381 46.065 138.481 45.2168C139.856 44.1567 141.671 43.7242 143.394 43.9344C145.117 44.1447 146.74 44.973 148.007 46.1598C148.595 46.7105 149.122 47.3563 149.374 48.1211" fill="#263238"/>
</g>
</g>
</g>
</g>
</g>
<g id="Group_407">
<g id="Group_408">
<g id="Group_409">
<path id="Vector_132" d="M144.148 58.8829C144.059 59.1079 143.968 59.3361 143.82 59.5268C143.671 59.7175 143.453 59.8684 143.212 59.8797C142.954 59.8918 142.706 59.7397 142.562 59.5256C142.419 59.3115 142.37 59.0447 142.381 58.7873C142.392 58.5545 142.498 58.2768 142.729 58.2491C142.826 58.2378 142.921 58.2749 143.01 58.3115C143.415 58.4757 143.821 58.6403 144.226 58.8049" fill="#EB996E"/>
</g>
</g>
<g id="Group_410">
<g id="Group_411">
<g id="Group_412">
<path id="Vector_133" d="M143.662 59.8835C143.656 59.8453 143.389 59.9537 143.014 59.8031C142.832 59.7298 142.633 59.5851 142.524 59.3578C142.414 59.1327 142.392 58.8285 142.508 58.5622C142.534 58.4955 142.574 58.4346 142.614 58.3804C142.662 58.3297 142.653 58.3321 142.705 58.3399C142.755 58.3531 142.835 58.3909 142.9 58.4163C142.968 58.444 143.034 58.4709 143.1 58.4974C143.36 58.6027 143.596 58.6948 143.795 58.7692C144.193 58.9178 144.445 58.9962 144.457 58.9685C144.468 58.9408 144.238 58.8129 143.855 58.6281C143.664 58.5356 143.434 58.4292 143.178 58.3137C143.114 58.2849 143.048 58.2556 142.981 58.2256C142.91 58.1963 142.856 58.1647 142.759 58.1343C142.712 58.1211 142.645 58.1133 142.579 58.1394C142.515 58.1655 142.475 58.2092 142.445 58.2455C142.391 58.318 142.343 58.3921 142.308 58.476C142.165 58.8082 142.2 59.176 142.345 59.449C142.494 59.7275 142.747 59.8843 142.962 59.9478C143.181 60.0153 143.369 59.9989 143.489 59.9685C143.61 59.9365 143.667 59.8956 143.662 59.8835Z" fill="#263238"/>
</g>
</g>
</g>
</g>
</g>
<g id="Group_413">
<g id="Group_414">
<g id="Group_415">
<g id="Group_416">
<g id="Group_417">
<g id="Group_418">
<path id="Vector_134" d="M166.555 164.884L169.395 173.13C169.395 173.13 178.731 173.011 179.404 174.484L163.614 180.566L158.66 167.9L166.555 164.884Z" fill="#3DB44A"/>
</g>
</g>
</g>
<g id="Group_419">
<g id="Group_420">
<g id="Group_421">
<g id="Group_422">
<path id="Vector_135" d="M164.25 174.326C163.976 174.527 163.897 174.952 164.087 175.233C164.277 175.515 164.708 175.599 164.985 175.402C165.262 175.206 165.372 174.699 165.152 174.44C164.932 174.182 164.42 174.111 164.198 174.368" fill="#E0E0E0"/>
</g>
</g>
</g>
</g>
<g id="Group_423" opacity="0.6">
<g id="Group_424">
<g id="Group_425">
<path id="Vector_136" d="M163.614 180.567L163.165 179.27L178.473 173.923C178.473 173.923 179.293 173.958 179.405 174.484L163.614 180.567Z" fill="white"/>
</g>
</g>
</g>
<g id="Group_426">
<g id="Group_427">
<g id="Group_428">
<g id="Group_429">
<path id="Vector_137" d="M169.621 172.951C169.648 173.029 169.276 173.212 168.992 173.606C168.698 173.993 168.631 174.402 168.548 174.399C168.471 174.412 168.409 173.906 168.761 173.435C169.108 172.961 169.61 172.873 169.621 172.951Z" fill="#263238"/>
</g>
</g>
</g>
</g>
<g id="Group_430">
<g id="Group_431">
<g id="Group_432">
<g id="Group_433">
<path id="Vector_138" d="M171.541 172.997C171.587 173.065 171.304 173.325 171.168 173.752C171.019 174.175 171.088 174.553 171.01 174.579C170.942 174.619 170.715 174.188 170.895 173.661C171.07 173.132 171.511 172.925 171.541 172.997Z" fill="#263238"/>
</g>
</g>
</g>
</g>
<g id="Group_434">
<g id="Group_435">
<g id="Group_436">
<g id="Group_437">
<path id="Vector_139" d="M173.245 174.617C173.181 174.66 172.926 174.317 172.961 173.818C172.993 173.319 173.292 173.013 173.349 173.064C173.417 173.111 173.271 173.428 173.248 173.837C173.215 174.246 173.318 174.58 173.245 174.617Z" fill="#263238"/>
</g>
</g>
</g>
</g>
<g id="Group_438">
<g id="Group_439">
<g id="Group_440">
<g id="Group_441">
<path id="Vector_140" d="M168.765 171.143C168.76 171.226 168.365 171.256 167.94 171.453C167.512 171.642 167.229 171.919 167.163 171.868C167.097 171.829 167.318 171.416 167.822 171.191C168.323 170.962 168.779 171.068 168.765 171.143Z" fill="#263238"/>
</g>
</g>
</g>
</g>
</g>
</g>
</g>
<g id="Group_442">
<g id="Group_443">
<g id="Group_444">
<g id="Group_445">
<path id="Vector_141" d="M108.623 163.799L108.445 164.03L105.029 168.492L100.796 171.394L106.463 182.311L112.703 182.318C112.703 182.318 112.253 180.818 109.25 180.041L109.053 174.048L114.443 168.128" fill="#3DB44A"/>
</g>
</g>
<g id="Group_446" opacity="0.6">
<g id="Group_447">
<path id="Vector_142" d="M100.796 171.394L106.463 182.311L112.703 182.317L112.001 181.379L106.927 181.095L101.696 170.776L100.796 171.394Z" fill="white"/>
</g>
</g>
</g>
<g id="Group_448">
<g id="Group_449">
<g id="Group_450">
<path id="Vector_143" d="M109.212 177.295C109.166 177.359 108.806 177.154 108.324 177.167C107.841 177.167 107.487 177.381 107.439 177.319C107.38 177.271 107.732 176.898 108.32 176.893C108.908 176.882 109.269 177.246 109.212 177.295Z" fill="#263238"/>
</g>
</g>
</g>
<g id="Group_451">
<g id="Group_452">
<g id="Group_453">
<path id="Vector_144" d="M109.113 175.809C109.05 175.853 108.773 175.485 108.275 175.388C107.778 175.285 107.38 175.517 107.339 175.453C107.318 175.425 107.39 175.32 107.565 175.225C107.737 175.129 108.021 175.057 108.329 175.119C108.636 175.181 108.87 175.357 108.992 175.512C109.117 175.667 109.143 175.791 109.113 175.809Z" fill="#263238"/>
</g>
</g>
</g>
<g id="Group_454">
<g id="Group_455">
<g id="Group_456">
<path id="Vector_145" d="M109.154 173.9C109.086 173.935 108.874 173.574 108.439 173.423C108.006 173.267 107.614 173.414 107.583 173.345C107.566 173.313 107.645 173.226 107.818 173.162C107.987 173.097 108.257 173.069 108.53 173.165C108.804 173.262 108.995 173.453 109.086 173.61C109.18 173.769 109.187 173.886 109.154 173.9Z" fill="#263238"/>
</g>
</g>
</g>
<g id="Group_457">
<g id="Group_458">
<g id="Group_459">
<path id="Vector_146" d="M110.825 172.421C110.751 172.447 110.576 172.092 110.189 171.841C109.809 171.579 109.414 171.553 109.409 171.474C109.388 171.402 109.872 171.296 110.341 171.613C110.814 171.926 110.9 172.413 110.825 172.421Z" fill="#263238"/>
</g>
</g>
</g>
<g id="Group_460" opacity="0.6">
<g id="Group_461">
<path id="Vector_147" d="M105.774 171.207C105.774 171.616 105.443 171.947 105.034 171.947C104.625 171.947 104.294 171.616 104.294 171.207C104.294 170.798 104.625 170.467 105.034 170.467C105.443 170.467 105.774 170.798 105.774 171.207Z" fill="white"/>
</g>
</g>
</g>
<g id="Group_462">
<g id="Group_463">
<path id="Vector_148" d="M129.402 118.874L148.696 147.149L159.125 171.874L167.959 167.151L159.028 142.39L145.905 116.379L129.402 118.874Z" fill="#263238"/>
</g>
<g id="Group_464">
<path id="Vector_149" d="M121.435 116.379L118.215 139.142L105.046 167.862L112.89 172.423L129.639 143.955L138.937 116.379H121.435Z" fill="#263238"/>
</g>
<g id="Group_465">
<g id="Group_466">
<path id="Vector_150" d="M112.89 172.423C112.887 172.421 112.91 172.375 112.958 172.285C113.012 172.188 113.084 172.058 113.176 171.891C113.378 171.537 113.665 171.032 114.032 170.386C114.789 169.074 115.875 167.191 117.214 164.869C119.921 160.212 123.653 153.795 127.776 146.706C128.45 145.55 129.115 144.412 129.745 143.331L129.737 143.35C132.034 136.434 134.066 130.314 135.528 125.912C136.264 123.726 136.855 121.968 137.267 120.744C137.472 120.147 137.632 119.681 137.744 119.353C137.798 119.202 137.841 119.084 137.873 118.994C137.903 118.914 137.919 118.873 137.922 118.874C137.925 118.875 137.914 118.918 137.891 119C137.863 119.091 137.826 119.212 137.78 119.365C137.675 119.695 137.526 120.165 137.336 120.767C136.938 121.995 136.366 123.76 135.656 125.954C134.209 130.362 132.2 136.489 129.928 143.414L129.924 143.424L129.919 143.434C129.289 144.515 128.625 145.653 127.95 146.809C123.808 153.886 120.058 160.293 117.337 164.942C115.975 167.25 114.87 169.122 114.1 170.427C113.719 171.064 113.42 171.563 113.211 171.912C113.112 172.074 113.034 172.201 112.975 172.296C112.922 172.382 112.893 172.425 112.89 172.423Z" fill="#455A64"/>
</g>
</g>
</g>
<g id="Group_467">
<g id="Group_468">
<path id="Vector_151" d="M147.132 104.055L146.481 94.2851L144.007 71.2548L144.885 66.4508L135.135 62.5508L133.965 64.8908C128.109 65.7718 125.646 77.3283 125.646 77.3283L125.442 100.825L118.942 116.755L120.628 118.241C123.292 119.839 148.108 118.832 148.108 118.832L147.132 104.055Z" fill="#3DB44A"/>
</g>
<g id="Group_469" opacity="0.3">
<g id="Group_470">
<path id="Vector_152" d="M121.435 110.644C123.192 112.87 125.055 114.638 127.324 116.34C128.535 117.248 129.969 118.11 131.464 117.872C132.911 117.641 133.985 116.449 134.933 115.331C136.71 113.235 138.488 111.138 140.265 109.042C140.567 108.686 140.88 108.305 140.953 107.844C141.046 107.249 140.697 106.649 140.207 106.3C139.716 105.951 139.106 105.814 138.508 105.743C134.764 105.3 131.106 107.159 127.336 107.192C126.047 107.203 123.951 106.947 122.733 107.369L121.435 110.644Z" fill="black"/>
</g>
</g>
<g id="Group_471">
<path id="Vector_153" d="M141.531 95.3111C143.523 97.2674 143.827 100.371 142.252 102.676L138.919 107.556L134.08 113.858C132.687 115.672 130.021 115.857 128.391 114.253L106.321 97.249C104.916 96.1672 104.618 94.1684 105.646 92.7239L114.632 80.0945C115.691 78.6063 117.757 78.2619 119.242 79.3262L141.531 95.3111Z" fill="#455A64"/>
</g>
<g id="Group_472">
<g id="Group_473">
<path id="Vector_154" d="M130.1 115.223C130.097 115.222 130.117 115.182 130.16 115.107C130.209 115.023 130.272 114.913 130.353 114.775C130.53 114.487 130.795 114.066 131.145 113.529C131.844 112.455 132.875 110.914 134.157 109.015C135.436 107.114 136.978 104.862 138.645 102.336C139.051 101.701 139.495 101.057 139.819 100.349C139.975 99.9955 140.086 99.6144 140.067 99.2307C140.05 98.8469 139.891 98.4776 139.648 98.1636C139.155 97.5307 138.421 97.0943 137.737 96.5923C137.043 96.0994 136.339 95.5994 135.626 95.0932C129.937 91.0356 124.788 87.363 121.048 84.6958C119.196 83.3632 117.695 82.2821 116.644 81.5259C116.135 81.1542 115.735 80.8625 115.452 80.6558C115.325 80.5598 115.223 80.4838 115.145 80.4253C115.077 80.3722 115.043 80.3438 115.045 80.341C115.047 80.3383 115.085 80.3609 115.158 80.4085C115.238 80.4627 115.344 80.5333 115.476 80.6226C115.764 80.8219 116.171 81.1031 116.69 81.4619C117.75 82.2056 119.264 83.2684 121.132 84.5792C124.88 87.2339 130.042 90.8894 135.744 94.9278C136.456 95.434 137.16 95.9344 137.854 96.4278C138.533 96.9297 139.276 97.3645 139.806 98.0427C140.066 98.3789 140.246 98.7927 140.264 99.2213C140.284 99.6495 140.16 100.059 139.997 100.427C139.657 101.162 139.212 101.8 138.802 102.438C137.124 104.963 135.57 107.205 134.276 109.095C131.673 112.867 130.1 115.223 130.1 115.223Z" fill="#263238"/>
</g>
</g>
<g id="Group_474">
<path id="Vector_155" d="M138.475 65.6778C138.475 65.6778 132.21 62.3605 122.744 77.3724L124.422 79.3298C124.422 79.3298 132.325 65.4325 137.55 67.1119C142.775 68.7912 135.105 90.7038 135.105 90.7038C135.105 90.7038 146.591 68.8579 138.475 65.6778Z" fill="#263238"/>
</g>
<g id="Group_475">
<path id="Vector_156" d="M117.539 82.5698C114.887 85.2873 114.369 89.5044 116.443 92.6856C116.514 92.7956 116.587 92.9021 116.66 93.0039L125.177 106.241L132.314 101.841L125.406 89.3024C125.406 89.3024 128.617 85.987 132.112 82.2574C136.819 77.2338 141.832 71.066 138.24 67.5232C138.24 67.5232 135.791 65.5861 132.03 68.4967C129.31 70.6015 121.599 78.4089 117.539 82.5698Z" fill="#3DB44A"/>
</g>
</g>
</g>
<g id="Group_476">
<g id="Group_477">
<g id="Group_478">
<g id="Group_479">
<g id="Group_480">
<path id="Vector_157" d="M162.445 73.1615L166.163 72.2372C166.163 72.2372 167.167 73.1378 166.649 74.0687C166.131 74.9996 165.254 77.354 165.254 77.354L162.38 78.2811L161.57 80.6113L156.623 78.5014L157.942 74.1229L160.715 70.6905L162.804 70.373L164.213 71.5645C164.213 71.5645 163.039 72.4198 162.248 71.499L161.287 71.8683L161.375 72.4463C161.451 72.9537 161.947 73.2856 162.445 73.1615Z" fill="#FFBE9D"/>
</g>
</g>
<g id="Group_481">
<g id="Group_482">
<path id="Vector_158" d="M166.142 72.3861L168.574 71.2052C168.574 71.2052 169.146 71.0312 169.49 71.3826L169.612 71.6342L166.701 73.5374L166.142 72.3861Z" fill="#FFBE9D"/>
</g>
</g>
<g id="Group_483">
<g id="Group_484">
<g id="Group_485">
<path id="Vector_159" d="M161.031 76.1755C161.005 76.1615 161.114 75.9286 161.282 75.5574C161.443 75.1876 161.669 74.6596 161.65 74.0559C161.641 73.7548 161.563 73.4837 161.436 73.2536C161.374 73.1351 161.308 73.0169 161.268 72.8913C161.224 72.7638 161.223 72.6363 161.224 72.5353C161.232 72.1172 161.28 71.8664 161.306 71.8672C161.336 71.868 161.339 72.125 161.367 72.5294C161.368 72.7404 161.451 72.9229 161.6 73.1636C161.747 73.4038 161.845 73.7212 161.853 74.0488C161.872 74.7142 161.606 75.2629 161.41 75.6213C161.206 75.9829 161.054 76.1876 161.031 76.1755Z" fill="#EB996E"/>
</g>
</g>
</g>
<g id="Group_486">
<g id="Group_487">
<g id="Group_488">
<path id="Vector_160" d="M172.029 67.3076C172.062 67.3766 172.569 68.1266 172.569 68.1266L161.483 76.2823L160.79 75.3978L172.029 67.3076Z" fill="#263238"/>
</g>
</g>
<g id="Group_489">
<g id="Group_490">
<g id="Group_491">
<path id="Vector_161" d="M165.201 77.1899C165.424 76.9438 165.289 76.5199 165.016 76.3303C164.744 76.1408 164.392 76.1221 164.06 76.1127C163.518 76.0975 162.97 76.0921 162.438 76.2009C162.263 76.2367 162.084 76.2878 161.948 76.4041C161.812 76.5199 161.729 76.7157 161.793 76.883C161.871 77.0866 162.114 77.1638 162.328 77.2059C162.902 77.319 163.49 77.3654 164.075 77.3436" fill="#FFBE9D"/>
</g>
</g>
<g id="Group_492">
<g id="Group_493">
<g id="Group_494">
<path id="Vector_162" d="M164.074 77.3427C164.076 77.3669 163.678 77.4254 163.031 77.3817C162.869 77.37 162.692 77.3521 162.504 77.3232C162.32 77.2893 162.106 77.2772 161.894 77.1446C161.79 77.0787 161.694 76.9597 161.678 76.815C161.66 76.6723 161.71 76.535 161.791 76.4262C161.965 76.1992 162.243 76.1337 162.482 76.0885C162.976 75.9964 163.452 76.0007 163.877 76.014C164.293 76.0265 164.712 76.0421 165.008 76.2394C165.31 76.4383 165.382 76.7569 165.348 76.9418C165.312 77.1376 165.203 77.1976 165.201 77.1891C165.185 77.1781 165.263 77.1017 165.27 76.9336C165.278 76.7741 165.189 76.507 164.933 76.3615C164.674 76.2074 164.295 76.202 163.873 76.2008C163.451 76.1977 162.989 76.2004 162.519 76.2878C162.286 76.3287 162.063 76.3954 161.949 76.5459C161.827 76.7008 161.846 76.8954 161.999 76.989C162.147 77.0904 162.351 77.1185 162.532 77.1563C162.715 77.1914 162.887 77.2175 163.045 77.2378C163.676 77.3181 164.073 77.3111 164.074 77.3427Z" fill="#EB996E"/>
</g>
</g>
</g>
</g>
<g id="Group_495">
<g id="Group_496">
<g id="Group_497">
<path id="Vector_163" d="M166.131 74.9204C165.246 74.7028 164.613 74.6158 163.729 74.3982C163.44 74.3272 163.128 74.2578 162.855 74.3728C162.581 74.4879 162.408 74.874 162.61 75.0924C162.681 75.1696 162.782 75.2105 162.88 75.2491C163.762 75.5951 164.643 75.941 165.524 76.2869" fill="#FFBE9D"/>
</g>
</g>
<g id="Group_498">
<g id="Group_499">
<g id="Group_500">
<path id="Vector_164" d="M165.524 76.2869C165.514 76.3131 165.12 76.1859 164.491 75.959C164.158 75.8349 163.789 75.698 163.392 75.5506C163.182 75.4695 162.965 75.3857 162.741 75.2991C162.624 75.2523 162.478 75.1454 162.436 74.9828C162.396 74.8244 162.44 74.6684 162.516 74.5421C162.594 74.4177 162.713 74.3116 162.853 74.2652C162.987 74.2168 163.126 74.2067 163.254 74.2141C163.513 74.2313 163.737 74.3054 163.949 74.3545C164.361 74.4497 164.743 74.5378 165.089 74.6181C165.742 74.7663 166.137 74.8939 166.131 74.9204C166.124 74.9485 165.718 74.8705 165.061 74.7589C164.732 74.702 164.34 74.6333 163.906 74.537C163.688 74.4906 163.466 74.4239 163.244 74.413C163.02 74.4005 162.798 74.4598 162.689 74.6486C162.634 74.7386 162.61 74.8447 162.632 74.9297C162.654 75.014 162.722 75.0729 162.823 75.1177C163.043 75.2066 163.255 75.2928 163.46 75.3763C163.852 75.5381 164.215 75.6887 164.544 75.8248C165.159 76.0865 165.534 76.2608 165.524 76.2869Z" fill="#EB996E"/>
</g>
</g>
</g>
</g>
<g id="Group_501">
<g id="Group_502">
<g id="Group_503">
<path id="Vector_165" d="M166.701 73.5376C165.805 73.3773 165.202 73.265 164.305 73.1047C164.013 73.0525 163.697 73.0033 163.431 73.1355C163.165 73.2681 163.018 73.664 163.233 73.8691C163.309 73.9417 163.413 73.976 163.513 74.008C164.415 74.2966 165.316 74.5852 166.218 74.8738" fill="#FFBE9D"/>
</g>
</g>
<g id="Group_504">
<g id="Group_505">
<g id="Group_506">
<path id="Vector_166" d="M166.218 74.8739C166.209 74.9004 165.81 74.7994 165.17 74.6138C164.83 74.5116 164.454 74.3993 164.05 74.278C163.836 74.2109 163.615 74.1419 163.387 74.0701C163.27 74.0311 163.114 73.9426 163.059 73.7831C163.003 73.6302 163.032 73.4688 163.098 73.3381C163.165 73.2067 163.274 73.094 163.41 73.0339C163.539 72.9742 163.676 72.9543 163.805 72.9512C164.064 72.9493 164.292 73.007 164.507 73.0456C164.921 73.1283 165.305 73.2051 165.654 73.2749C166.305 73.4114 166.706 73.5093 166.701 73.537C166.696 73.5647 166.287 73.5163 165.629 73.4161C165.278 73.3596 164.891 73.2972 164.474 73.2297C164.256 73.195 164.03 73.1451 163.809 73.1501C163.587 73.1552 163.372 73.2312 163.28 73.4298C163.019 73.9052 163.738 73.9387 164.107 74.0994C164.507 74.2355 164.878 74.3619 165.214 74.4765C165.842 74.6976 166.227 74.847 166.218 74.8739Z" fill="#EB996E"/>
</g>
</g>
</g>
</g>
</g>
</g>
</g>
<g id="Group_507">
<g id="Group_508">
<g id="Group_509">
<path id="Vector_167" d="M161.845 80.2815L154.633 95.6963C153.949 97.1595 152.562 98.1708 150.96 98.3759C148.882 98.6419 146.878 97.5051 146.039 95.5855L140.656 83.2592L143.715 69.9609L150.946 85.4736L156.859 77.094L161.845 80.2815Z" fill="#3DB44A"/>
</g>
</g>
<g id="Group_510">
<g id="Group_511">
<g id="Group_512">
<path id="Vector_168" d="M148.823 90.6737C148.771 90.6534 149.187 89.439 149.754 87.9609C150.322 86.4824 150.823 85.3003 150.876 85.3206C150.928 85.3405 150.511 86.5549 149.944 88.0334C149.377 89.5119 148.875 90.694 148.823 90.6737Z" fill="#263238"/>
</g>
</g>
</g>
</g>
</g>
<g id="Group_513">
<g id="Group_514">
<path id="Vector_169" d="M147.225 103.892C147.221 103.906 147.205 103.782 147.184 103.567C147.162 103.331 147.133 103.013 147.096 102.613C147.024 101.765 146.922 100.571 146.797 99.1047C146.538 96.1259 146.184 92.0426 145.792 87.5314C145.382 83.0125 144.977 78.9249 144.651 75.9703C144.484 74.5082 144.348 73.3179 144.252 72.4728C144.206 72.0742 144.169 71.7571 144.142 71.5219C144.118 71.3043 144.108 71.1897 144.115 71.1885C144.122 71.1873 144.145 71.3004 144.182 71.5161C144.219 71.7505 144.268 72.0656 144.33 72.4622C144.452 73.2851 144.614 74.4777 144.794 75.9539C145.156 78.9062 145.585 82.993 145.995 87.5135C146.405 92.0324 146.727 96.1278 146.94 99.0938C147.039 100.563 147.118 101.758 147.175 102.608C147.196 103.009 147.213 103.327 147.225 103.564C147.233 103.78 147.235 103.905 147.225 103.892Z" fill="#263238"/>
</g>
</g>
</g>
<g id="Group_515">
<g id="Group_516">
<g id="Group_517">
<path id="Vector_170" d="M130.825 102.727L131.765 104.691C131.765 104.691 133.63 104.916 134.402 105.274C135.173 105.633 137.946 108.045 137.946 108.045C137.946 108.045 137.613 108.74 136.888 108.534C136.563 108.442 135.132 107.357 135.132 107.357C134.47 107.455 134.134 108.231 134.509 108.794C135.06 109.621 135.698 110.587 135.757 110.725C135.824 110.88 137.047 111.395 137.966 111.763C138.516 111.984 138.459 112.858 137.871 112.942C137.81 112.95 137.754 112.945 137.706 112.923C137.706 112.923 138.15 113.858 136.533 113.588C136.533 113.588 135.463 114.318 134.633 113.867C134.633 113.867 133.109 114.212 132.435 113.988C131.761 113.763 128.96 109.819 128.96 109.819L126.529 105.409L130.825 102.727Z" fill="#FFBE9D"/>
</g>
</g>
<g id="Group_518">
<g id="Group_519">
<g id="Group_520">
<path id="Vector_171" d="M133.353 109.796C133.329 109.81 133.44 110.114 133.672 110.587C133.909 111.048 134.274 111.714 134.938 112.204C135.613 112.684 136.359 112.791 136.865 112.848C137.38 112.897 137.698 112.889 137.702 112.861C137.705 112.828 137.389 112.78 136.887 112.693C136.392 112.599 135.684 112.466 135.064 112.023C134.449 111.571 134.072 110.946 133.806 110.509C133.543 110.063 133.382 109.781 133.353 109.796Z" fill="#EB996E"/>
</g>
</g>
</g>
<g id="Group_521">
<g id="Group_522">
<g id="Group_523">
<path id="Vector_172" d="M132.557 110.705C132.529 110.712 132.588 111.015 132.81 111.444C132.92 111.658 133.066 111.905 133.252 112.164C133.444 112.414 133.662 112.703 134.001 112.898C134.331 113.08 134.665 113.171 134.964 113.256C135.238 113.328 135.502 113.397 135.757 113.465C136.21 113.579 136.495 113.635 136.503 113.606C136.512 113.577 136.243 113.467 135.801 113.314C135.581 113.238 135.315 113.149 135.02 113.059C134.728 112.966 134.403 112.868 134.107 112.704C133.819 112.542 133.602 112.273 133.41 112.038C133.222 111.795 133.066 111.564 132.942 111.365C132.692 110.967 132.586 110.696 132.557 110.705Z" fill="#EB996E"/>
</g>
</g>
</g>
<g id="Group_524">
<g id="Group_525">
<g id="Group_526">
<path id="Vector_173" d="M131.72 111.829C131.647 111.879 132.145 112.585 132.796 113.39C132.895 113.528 133.032 113.579 133.142 113.635C133.259 113.688 133.372 113.73 133.482 113.763C133.7 113.832 133.903 113.873 134.074 113.894C134.419 113.938 134.635 113.894 134.633 113.866C134.632 113.834 134.425 113.821 134.103 113.74C133.942 113.701 133.751 113.646 133.546 113.57C133.443 113.533 133.337 113.489 133.232 113.439C133.13 113.385 133.018 113.335 132.967 113.252C132.639 112.839 132.331 112.485 132.106 112.228C131.876 111.973 131.742 111.818 131.72 111.829Z" fill="#EB996E"/>
</g>
</g>
</g>
</g>
<g id="Group_527">
<g id="Group_528">
<path id="Vector_174" d="M143.124 65.8429C143.18 65.8566 143.017 66.7122 142.835 67.7684C142.651 68.8249 142.517 69.6852 142.46 69.6794C142.406 69.6739 142.449 68.798 142.634 67.7337C142.818 66.6697 143.071 65.8297 143.124 65.8429Z" fill="#263238"/>
</g>
</g>
<g id="Group_529">
<g id="Group_530">
<path id="Vector_175" d="M140.131 67.0252C140.077 67.008 140.186 66.5178 140.374 65.9301C140.562 65.3423 140.758 64.8798 140.811 64.8969C140.865 64.9141 140.756 65.4043 140.568 65.9921C140.38 66.5798 140.184 67.0423 140.131 67.0252Z" fill="#263238"/>
</g>
</g>
<g id="Group_531">
<g id="Group_532">
<path id="Vector_176" d="M137.922 65.942C137.872 65.9162 138.044 65.4818 138.306 64.9713C138.568 64.4604 138.821 64.0673 138.87 64.093C138.92 64.1187 138.748 64.5532 138.487 65.0641C138.225 65.5742 137.972 65.9673 137.922 65.942Z" fill="#263238"/>
</g>
</g>
<g id="Group_533">
<g id="Group_534">
<path id="Vector_177" d="M135.026 65.6075C134.981 65.5736 135.326 65.0459 135.796 64.4297C136.266 63.8131 136.683 63.3408 136.727 63.3748C136.771 63.4087 136.427 63.936 135.957 64.553C135.488 65.1692 135.071 65.6414 135.026 65.6075Z" fill="#263238"/>
</g>
</g>
<g id="Group_535">
<g id="Group_536">
<path id="Vector_178" d="M125.443 89.4356C125.418 89.4594 125.197 89.2453 124.796 88.9645C124.397 88.6829 123.801 88.353 123.087 88.1408C122.372 87.9318 121.693 87.8854 121.205 87.9052C120.715 87.9236 120.414 87.9832 120.406 87.9501C120.4 87.929 120.694 87.8183 121.195 87.7621C121.694 87.7044 122.403 87.729 123.145 87.9462C123.886 88.1662 124.495 88.5308 124.883 88.8498C125.273 89.1692 125.459 89.4212 125.443 89.4356Z" fill="#263238"/>
</g>
</g>
<g id="Group_537">
<g id="Group_538">
<path id="Vector_179" d="M123.347 84.4513C123.362 84.4338 123.623 84.6225 123.974 85.0043C124.325 85.3846 124.75 85.9723 125.077 86.6969C125.401 87.4227 125.557 88.1314 125.607 88.6462C125.659 89.1621 125.626 89.4823 125.603 89.4819C125.536 89.4905 125.537 88.1953 124.892 86.7796C124.265 85.3565 123.297 84.4958 123.347 84.4513Z" fill="#263238"/>
</g>
</g>
<g id="Group_539">
<g id="Group_540">
<path id="Vector_180" d="M132.355 101.749C132.35 101.752 132.297 101.671 132.202 101.513C132.1 101.338 131.964 101.106 131.794 100.815C131.435 100.187 130.932 99.3033 130.309 98.2105C129.055 95.9754 127.323 92.8878 125.365 89.3988L125.329 89.3345L125.38 89.2807C125.865 88.7702 126.375 88.2323 126.894 87.6863C130.015 84.4193 132.84 81.4623 134.901 79.3052C135.922 78.2503 136.753 77.3915 137.344 76.7816C137.625 76.4969 137.849 76.2707 138.015 76.1026C138.17 75.9489 138.254 75.8705 138.259 75.8752C138.264 75.8799 138.19 75.968 138.045 76.1306C137.885 76.3054 137.671 76.5401 137.401 76.8362C136.822 77.457 136.006 78.3306 135.005 79.4043C132.955 81.5719 130.146 84.543 127.041 87.8264C126.522 88.372 126.011 88.909 125.526 89.4191L125.541 89.3009C127.475 92.8031 129.187 95.9021 130.426 98.1454C131.027 99.2506 131.512 100.144 131.857 100.779C132.015 101.078 132.141 101.316 132.235 101.494C132.319 101.658 132.361 101.745 132.355 101.749Z" fill="#263238"/>
</g>
</g>
<g id="Group_541" opacity="0.3">
<g id="Group_542">
<path id="Vector_181" d="M128.618 86.0187L131.401 88.0143C131.72 87.8926 132.213 87.4328 132.412 87.1552C134.501 84.2399 136.039 80.9311 136.92 77.4551L128.618 86.0187Z" fill="black"/>
</g>
</g>
<g id="Group_543">
<g id="Group_544">
<path id="Vector_182" d="M132.64 81.6336C132.597 81.6429 132.662 81.0002 132.187 80.1543C131.95 79.7389 131.586 79.2861 131.083 78.9008C130.582 78.51 129.956 78.1844 129.269 77.913C128.583 77.6361 127.9 77.4473 127.293 77.2028C126.687 76.9621 126.167 76.6365 125.839 76.2539C125.503 75.8783 125.352 75.4836 125.307 75.2091C125.263 74.9318 125.3 74.7777 125.309 74.7793C125.328 74.7793 125.319 74.933 125.385 75.1923C125.45 75.4497 125.613 75.8124 125.944 76.1564C126.269 76.5062 126.766 76.8022 127.361 77.0284C127.956 77.2574 128.647 77.443 129.344 77.7238C130.042 77.9999 130.685 78.34 131.198 78.7534C131.715 79.1629 132.083 79.6446 132.312 80.0856C132.542 80.5291 132.628 80.9304 132.653 81.2053C132.676 81.4818 132.649 81.6339 132.64 81.6336Z" fill="#F5F5F5"/>
</g>
</g>
<g id="Group_545">
<g id="Group_546">
<path id="Vector_183" d="M145.39 83.3733C145.387 83.3905 145.204 83.362 144.871 83.3382C144.538 83.3132 144.055 83.3039 143.461 83.3468C142.866 83.3893 142.162 83.4903 141.378 83.6104C140.594 83.7286 139.724 83.8573 138.798 83.86C137.875 83.86 136.98 83.7118 136.245 83.3616C135.511 83.011 134.962 82.4958 134.622 81.988C134.281 81.4771 134.146 80.9842 134.119 80.646C134.108 80.4756 134.107 80.3442 134.12 80.2553C134.129 80.1663 134.137 80.1207 134.144 80.1211C134.166 80.1219 134.147 80.3087 134.198 80.6359C134.247 80.9612 134.398 81.4264 134.74 81.9061C135.08 82.3831 135.619 82.8663 136.324 83.1923C137.029 83.5172 137.895 83.6572 138.798 83.6572C139.705 83.6545 140.567 83.5336 141.351 83.4256C142.136 83.3156 142.849 83.2286 143.452 83.2037C144.055 83.1787 144.545 83.2103 144.879 83.2598C145.213 83.3082 145.392 83.3632 145.39 83.3733Z" fill="#F5F5F5"/>
</g>
</g>
<g id="Group_547">
<g id="Group_548">
<path id="Vector_184" d="M148.009 79.7407C148.054 79.763 147.643 80.4919 146.826 81.0917C146.015 81.6985 145.198 81.8799 145.19 81.83C145.169 81.7715 145.928 81.5113 146.705 80.9287C147.489 80.3542 147.959 79.7041 148.009 79.7407Z" fill="#F5F5F5"/>
</g>
</g>
<g id="Group_549">
<g id="Group_550">
<path id="Vector_185" d="M149.12 82.3696C149.164 82.391 148.607 83.2939 147.554 84.0325C146.508 84.7801 145.472 85.006 145.466 84.9572C145.445 84.8971 146.425 84.5914 147.437 83.8668C148.457 83.1527 149.07 82.3298 149.12 82.3696Z" fill="#F5F5F5"/>
</g>
</g>
<g id="Group_551">
<g id="Group_552">
<path id="Vector_186" d="M145.899 87.7419C145.882 87.7898 145.119 87.1822 143.633 87.0363C142.898 86.9587 142.015 86.9837 141.032 87.0434C140.052 87.105 138.956 87.1557 137.817 87.0231C135.532 86.7774 133.574 85.9767 132.283 85.2287C131.631 84.8601 131.144 84.4978 130.809 84.249C130.483 83.9865 130.31 83.8344 130.319 83.8239C130.327 83.8126 130.518 83.9436 130.856 84.1851C131.203 84.4132 131.698 84.7545 132.353 85.1031C133.65 85.8121 135.587 86.5789 137.839 86.8211C138.962 86.9517 140.038 86.9076 141.023 86.8562C142.007 86.8066 142.903 86.7961 143.65 86.8936C144.397 86.9903 144.98 87.1978 145.353 87.3905C145.542 87.4821 145.678 87.5734 145.768 87.6377C145.858 87.7005 145.903 87.736 145.899 87.7419Z" fill="#F5F5F5"/>
</g>
</g>
<g id="Group_553">
<g id="Group_554">
<path id="Vector_187" d="M131.042 82.9679C131.053 82.9722 131.026 83.0592 130.959 83.2378L130.932 83.3104L130.901 83.2363C130.777 82.9367 130.403 82.3595 129.64 81.9391C129.266 81.725 128.809 81.5554 128.304 81.4083C127.799 81.2586 127.243 81.1295 126.68 80.9267C125.274 80.4169 124.211 79.5207 123.593 78.7801C123.28 78.4092 123.061 78.082 122.928 77.8472C122.793 77.6125 122.734 77.4752 122.744 77.4693C122.778 77.4487 123.058 77.9802 123.701 78.6854C124.335 79.3885 125.383 80.2407 126.749 80.736C127.297 80.9337 127.849 81.0659 128.359 81.2242C128.869 81.3795 129.339 81.5643 129.723 81.7983C130.505 82.2574 130.873 82.8923 130.96 83.214L130.902 83.2129C130.987 83.042 131.032 82.9637 131.042 82.9679Z" fill="#F5F5F5"/>
</g>
</g>
</g>
</g>
<g id="Floor">
<g id="Group_555">
<g id="Group_556">
<path id="Vector_188" d="M186.443 182.317C186.443 182.373 146.261 182.419 96.7048 182.419C47.1319 182.419 6.95837 182.373 6.95837 182.317C6.95837 182.261 47.1319 182.216 96.7048 182.216C146.261 182.216 186.443 182.261 186.443 182.317Z" fill="#263238"/>
</g>
</g>
</g>
</g>
</svg>
