<svg width="180" height="160" viewBox="0 0 180 160" fill="none" xmlns="http://www.w3.org/2000/svg">
<path d="M38.8949 113.163L38.8619 98.7927L31.8171 110.631H29.3197L22.3116 99.101V113.163H17.1151V89.2147H21.6955L30.6546 104.099L39.4744 89.2147H44.0218L44.0914 113.163H38.8949Z" fill="white"/>
<path d="M65.5266 108.029H54.4148L52.2951 113.163H46.6182L57.2862 89.2147H62.7578L73.4588 113.163H67.6462L65.5266 108.029ZM63.7846 103.82L59.989 94.6496L56.1934 103.82H63.7846Z" fill="white"/>
<path d="M78.3326 112.804C76.565 112.29 75.1458 111.622 74.075 110.804L75.9563 106.631C76.9831 107.384 78.2006 107.989 79.6162 108.444C81.0281 108.899 82.4436 109.127 83.8555 109.127C85.4288 109.127 86.5913 108.892 87.3431 108.426C88.0949 107.96 88.4726 107.336 88.4726 106.562C88.4726 105.993 88.2489 105.519 87.8052 105.141C87.3614 104.763 86.7893 104.462 86.0962 104.235C85.3994 104.007 84.4606 103.754 83.2761 103.483C81.4535 103.05 79.9609 102.617 78.7984 102.184C77.6359 101.75 76.6384 101.053 75.8059 100.095C74.9734 99.1377 74.559 97.8606 74.559 96.2643C74.559 94.8734 74.9368 93.611 75.6885 92.4844C76.4403 91.3542 77.5735 90.4587 79.0918 89.7982C80.6063 89.1376 82.4583 88.8074 84.6477 88.8074C86.1732 88.8074 87.6695 88.9909 89.1254 89.3542C90.5849 89.7175 91.8611 90.2459 92.954 90.9285L91.245 95.1376C89.0337 93.8826 86.8223 93.2551 84.611 93.2551C83.0597 93.2551 81.9155 93.5046 81.1748 94.0074C80.434 94.5101 80.0636 95.1707 80.0636 95.9927C80.0636 96.8147 80.4927 97.4239 81.3471 97.8239C82.2016 98.2239 83.5071 98.6166 85.2638 99.0055C87.0864 99.4386 88.579 99.8716 89.7415 100.305C90.904 100.738 91.9015 101.424 92.734 102.356C93.5664 103.292 93.9808 104.558 93.9808 106.154C93.9808 107.523 93.5994 108.771 92.8366 109.901C92.0738 111.031 90.926 111.927 89.4004 112.587C87.8748 113.248 86.0155 113.578 83.8262 113.578C81.9339 113.578 80.1039 113.321 78.34 112.807L78.3326 112.804Z" fill="white"/>
<path d="M113.531 108.029H102.419L100.3 113.163H94.6226L105.291 89.2147H110.762L121.463 113.163H115.651L113.531 108.029ZM111.789 103.82L107.993 94.6496L104.198 103.82H111.789Z" fill="white"/>
<path d="M139.209 113.163L134.592 106.492H129.498V113.163H123.961V89.2147H134.321C136.44 89.2147 138.281 89.567 139.844 90.2753C141.402 90.9835 142.609 91.9854 143.452 93.2844C144.296 94.5835 144.717 96.1248 144.717 97.9046C144.717 99.6844 144.292 101.218 143.434 102.506C142.576 103.795 141.365 104.782 139.792 105.468L145.161 113.167H139.213L139.209 113.163ZM137.808 94.8074C136.943 94.0881 135.678 93.7285 134.013 93.7285H129.498V102.077H134.013C135.678 102.077 136.943 101.714 137.808 100.984C138.674 100.253 139.106 99.2257 139.106 97.9046C139.106 96.5835 138.674 95.5267 137.808 94.8074Z" fill="white"/>
<path d="M157.809 103.754L154.597 107.108V113.163H149.092V89.2147H154.597V100.404L165.195 89.2147H171.349L161.433 99.89L171.928 113.163H165.467L157.809 103.754Z" fill="white"/>
<path d="M114.352 38.2018C110.285 34.1394 104.884 31.8972 99.1443 31.8972C93.4051 31.8972 87.9995 34.1431 83.9362 38.2018L69.0435 53.1046L69.0361 53.1119L68.4054 53.7357L77.0601 62.3963L77.6835 61.7651L77.6909 61.7724L92.5909 46.8624C96.2032 43.2477 102.082 43.2477 105.701 46.8624C109.314 50.477 109.314 56.3669 105.701 59.9816C102.082 63.5963 96.2032 63.5963 92.5909 59.9816L91.9602 59.3504L83.3054 68.011L83.9362 68.6422C88.1315 72.833 93.6361 74.9321 99.1443 74.9321C104.653 74.9321 110.157 72.833 114.352 68.6422C122.736 60.2532 122.736 46.5945 114.352 38.2018ZM90.1009 66.8147L89.7891 66.5871C89.3601 66.2752 88.942 65.9376 88.5423 65.5816L88.2562 65.3247L88.766 64.7486L89.052 65.0055C89.4334 65.3431 89.8332 65.666 90.2402 65.9633L90.5519 66.1908L90.1009 66.811V66.8147ZM95.9795 69.3504L95.6054 69.2624C94.5603 69.0165 93.5371 68.6642 92.5653 68.2165L92.2169 68.055L92.5396 67.3578L92.888 67.5192C93.8158 67.9449 94.7913 68.2825 95.7851 68.5174L96.1592 68.6055L95.9831 69.3541L95.9795 69.3504ZM102.001 69.4789C101.242 69.6073 100.465 69.677 99.6944 69.6954C99.5807 69.6954 99.467 69.6954 99.3534 69.6954C99.1663 69.6954 98.9793 69.6954 98.7923 69.6844L98.4072 69.6697L98.4329 68.9027L98.8179 68.9174C99.104 68.9284 99.39 68.9284 99.6761 68.9247C100.41 68.9101 101.15 68.8403 101.873 68.7192L102.25 68.6568L102.379 69.4165L102.001 69.4789ZM107.979 67.1853C107.069 67.7614 106.105 68.2458 105.104 68.6312L104.744 68.7706L104.469 68.0513L104.829 67.9119C105.778 67.5449 106.699 67.0825 107.568 66.5357L107.894 66.3302L108.305 66.9798L107.979 67.1853ZM112.816 44.2569L113.025 44.5798C113.608 45.4825 114.103 46.444 114.495 47.4422L114.635 47.7981L113.92 48.0807L113.78 47.7247C113.406 46.7743 112.937 45.8569 112.379 44.9981L112.17 44.6752L112.816 44.2569ZM73.8036 57.4495L73.2608 56.9064L74.9111 55.255L75.4538 55.7981L73.8036 57.4495ZM77.1628 54.088L76.62 53.5449L79.3888 50.7743L79.9316 51.3174L77.1628 54.088ZM81.6112 49.6367L81.0684 49.0935L83.8372 46.3229L84.3799 46.866L81.6112 49.6367ZM86.0559 45.189L85.5131 44.6458L88.2819 41.8752L88.8247 42.4183L86.0559 45.189ZM93.5297 39.1413C92.6056 39.5559 91.7145 40.0697 90.8747 40.6679L90.5629 40.8917L90.1155 40.2642L90.4272 40.0403C91.3074 39.4091 92.2462 38.8697 93.2144 38.4367L93.5664 38.2789L93.8818 38.9798L93.5297 39.1376V39.1413ZM99.8631 37.9009H99.3497C99.0856 37.9009 98.8179 37.9009 98.5502 37.9192C97.8461 37.9559 97.131 38.0477 96.4342 38.1945L96.0565 38.2715L95.8988 37.5192L96.2765 37.4385C97.0136 37.2844 97.7654 37.1853 98.5136 37.1486C98.7923 37.1339 99.0746 37.1266 99.3497 37.1266H99.8668L99.8631 37.8972V37.9009ZM105.8 39.2954L105.448 39.1449C104.51 38.7413 103.527 38.433 102.526 38.2238L102.148 38.1468L102.305 37.3945L102.683 37.4715C103.732 37.688 104.766 38.0146 105.749 38.4367L106.101 38.5871L105.8 39.2954ZM108.129 40.6238L107.814 40.4073L108.25 39.7724L108.566 39.989C109.449 40.5981 110.274 41.2954 111.023 42.066L111.29 42.3413L110.74 42.877L110.472 42.6018C109.761 41.8679 108.973 41.2036 108.133 40.6238H108.129ZM112.625 62.7853C112.005 63.6587 111.294 64.4734 110.516 65.211L110.238 65.4752L109.71 64.9174L109.988 64.6532C110.733 63.9486 111.408 63.1706 112.002 62.3376L112.225 62.0257L112.853 62.4734L112.629 62.7853H112.625ZM115.24 56.9394C115.005 57.9853 114.664 59.0128 114.224 59.9926L114.066 60.3449L113.366 60.0293L113.524 59.677C113.942 58.7413 114.268 57.7651 114.492 56.7706L114.576 56.3963L115.328 56.5651L115.244 56.9394H115.24ZM115.614 54.1284L114.844 54.1137L114.851 53.7284C114.851 53.622 114.851 53.5156 114.851 53.4128C114.851 52.4917 114.771 51.5706 114.609 50.6715L114.543 50.2935L115.299 50.1578L115.365 50.5358C115.533 51.4789 115.618 52.444 115.618 53.4091C115.618 53.5192 115.618 53.6293 115.618 53.7394L115.61 54.1247L115.614 54.1284Z" fill="white"/>
</svg>
