<svg width="24" height="24" viewBox="0 0 24 24" fill="none" xmlns="http://www.w3.org/2000/svg">
<g id="solar:bill-list-linear">
<g id="Group">
<path id="Vector" d="M16.2267 3H7.77333C6.74311 3 6.22844 3 5.81244 3.14489C5.42038 3.2842 5.06565 3.51188 4.77571 3.8103C4.48576 4.10872 4.2684 4.46987 4.14044 4.86578C4 5.29422 4 5.824 4 6.88444V19.3324C4 20.0951 4.87556 20.5004 5.42933 19.9938C5.5847 19.8502 5.78846 19.7705 6 19.7705C6.21154 19.7705 6.4153 19.8502 6.57067 19.9938L7 20.3867C7.27218 20.6384 7.62928 20.7782 8 20.7782C8.37072 20.7782 8.72782 20.6384 9 20.3867C9.27218 20.135 9.62928 19.9952 10 19.9952C10.3707 19.9952 10.7278 20.135 11 20.3867C11.2722 20.6384 11.6293 20.7782 12 20.7782C12.3707 20.7782 12.7278 20.6384 13 20.3867C13.2722 20.135 13.6293 19.9952 14 19.9952C14.3707 19.9952 14.7278 20.135 15 20.3867C15.2722 20.6384 15.6293 20.7782 16 20.7782C16.3707 20.7782 16.7278 20.6384 17 20.3867L17.4293 19.9938C17.5847 19.8502 17.7885 19.7705 18 19.7705C18.2115 19.7705 18.4153 19.8502 18.5707 19.9938C19.1244 20.5004 20 20.0951 20 19.3324V6.88444C20 5.824 20 5.29333 19.8596 4.86667C19.7317 4.47059 19.5144 4.10926 19.2245 3.81068C18.9345 3.5121 18.5797 3.28429 18.1876 3.14489C17.7716 3 17.2569 3 16.2267 3Z" stroke="#3DB44A"/>
<path id="Vector_2" d="M10.6667 10.9998H16.4445M7.5556 10.9998H8.00005M7.5556 7.88867H8.00005M7.5556 14.1109H8.00005M10.6667 7.88867H16.4445M10.6667 14.1109H16.4445" stroke="#3DB44A" stroke-linecap="round"/>
</g>
</g>
</svg>
