<svg width="20" height="20" viewBox="0 0 20 20" fill="none" xmlns="http://www.w3.org/2000/svg">
<path d="M11.6263 11.6263C11.195 12.0577 10.61 12.3 10 12.3C9.39 12.3 8.80499 12.0577 8.37365 11.6263C7.94232 11.195 7.7 10.61 7.7 10C7.7 9.39 7.94232 8.80499 8.37365 8.37365C8.80499 7.94232 9.39 7.7 10 7.7C10.61 7.7 11.195 7.94232 11.6263 8.37365C12.0577 8.80499 12.3 9.39 12.3 10C12.3 10.61 12.0577 11.195 11.6263 11.6263Z" fill="#3DB44A" stroke="white" stroke-width="0.4"/>
<path d="M3.75 4.8H3.55V5C3.55 5.61 3.30768 6.19501 2.87635 6.62635C2.44501 7.05768 1.86 7.3 1.25 7.3H1.05V7.5V12.5V12.7H1.25C1.86 12.7 2.44501 12.9423 2.87635 13.3737C3.30768 13.805 3.55 14.39 3.55 15V15.2H3.75H16.25H16.45V15C16.45 14.39 16.6923 13.805 17.1237 13.3737C17.555 12.9423 18.14 12.7 18.75 12.7H18.95V12.5V7.5V7.3H18.75C18.14 7.3 17.555 7.05768 17.1237 6.62635C16.6923 6.19501 16.45 5.61 16.45 5V4.8H16.25H3.75ZM19.4925 4.25754L19.6326 4.1174L19.4925 4.25754C19.6894 4.45445 19.8 4.72152 19.8 5V15C19.8 15.2785 19.6894 15.5455 19.4925 15.7425C19.2955 15.9394 19.0285 16.05 18.75 16.05H1.25C0.971523 16.05 0.704451 15.9394 0.507538 15.7425C0.310625 15.5455 0.2 15.2785 0.2 15V5C0.2 4.72152 0.310625 4.45445 0.507538 4.25754C0.704451 4.06062 0.971523 3.95 1.25 3.95H18.75C19.0285 3.95 19.2955 4.06062 19.4925 4.25754Z" fill="#3DB44A" stroke="white" stroke-width="0.4"/>
</svg>
