<svg width="35" height="35" viewBox="0 0 35 35" fill="none" xmlns="http://www.w3.org/2000/svg">
<g id="bus 1" clip-path="url(#clip0_307_11137)">
<path id="Vector" d="M20.5052 32.4911C20.5335 32.4766 21.997 31.6271 21.997 31.6271L20.9821 30.063C20.7145 29.1226 20.1222 28.2335 19.4341 27.8354C18.4947 27.292 17.7334 27.8686 17.7334 29.1234C17.7334 30.3782 18.4947 31.8358 19.4341 32.379C19.84 32.6139 20.2128 32.639 20.5052 32.4911Z" fill="#23292E"/>
<path id="Vector_2" d="M7.72623 23.3549L6.71153 21.7905C6.4437 20.8501 5.85143 19.961 5.16329 19.5629C4.22388 19.0195 3.46259 19.5963 3.46259 20.8512C3.46259 22.1057 4.22388 23.5633 5.16329 24.1067C5.60843 24.3641 6.01351 24.3697 6.31659 24.1709L7.72623 23.3549Z" fill="#23292E"/>
<path id="Vector_3" d="M34.926 26.6342C34.8537 22.8462 33.8491 18.6775 32.7372 15.6352C32.4667 14.7747 31.9065 14.1155 31.1268 13.6647L9.39594 1.0943C9.12785 0.942869 8.8229 0.970426 8.59219 1.11758H8.59192L0.860634 5.58943C0.646477 5.70662 0.485458 5.92173 0.45742 6.19624L-0.0683594 11.3667V16.8921C-0.0683594 17.2036 0.0445939 17.5043 0.249672 17.7381L2.53864 20.3516L25.1063 33.4265C25.7093 33.7757 26.3731 33.9788 27.0487 34.0379V34.0387C27.0594 34.0395 27.07 34.04 27.0805 34.0408C27.1048 34.043 27.1291 34.0462 27.1534 34.0478V34.0462C27.8866 34.0941 28.6306 33.9715 29.3235 33.6711C30.8613 33.0038 32.3126 32.1567 33.651 31.1516C34.2032 30.667 34.6216 30.034 34.8139 29.336C34.8139 29.336 34.9146 28.8988 34.9274 28.624L34.9316 28.6272V27.2054C34.9316 27.2054 34.926 26.6345 34.926 26.6342Z" fill="#3DB44A"/>
<path id="Vector_4" d="M34.2777 29.7345C34.506 29.6036 34.6951 29.4281 34.8403 29.2248C34.8876 29.0287 34.9183 28.828 34.9274 28.6241L34.9317 28.6273V27.2056C34.9314 27.2313 34.2777 28.1754 34.2777 29.7345Z" fill="white"/>
<path id="Vector_5" d="M28.7553 31.6079H27.1614C27.4962 32.6201 28.6324 33.1185 29.6018 32.6784L29.7545 32.6091C29.7545 32.0561 29.3072 31.6079 28.7553 31.6079Z" fill="white"/>
<path id="Vector_6" d="M25.7771 22.735C26.0324 23.5473 26.2516 24.3692 26.4361 25.1986L34.2139 20.7797C33.8828 19.1126 33.409 17.3224 32.7372 15.6353C32.7364 15.6358 32.7356 15.6361 32.7348 15.6366L24.9554 20.1325C24.9557 20.1336 24.9562 20.1347 24.9568 20.136C24.9643 20.1585 25.7771 22.735 25.7771 22.735Z" fill="#243B58"/>
<path id="Vector_7" d="M34.4579 22.1382L26.713 26.5991C26.9768 28.123 27.1234 29.6668 27.1485 31.2167C27.1536 31.347 27.1579 31.4773 27.1614 31.6079H28.7552C29.3072 31.6079 29.7545 32.056 29.7545 32.6091C31.4525 31.9538 32.9631 30.9939 34.2777 29.7342C34.2777 28.1752 34.9314 27.231 34.9316 27.2053C34.9346 26.4088 34.8358 24.4763 34.4579 22.1382Z" fill="#243B58"/>
<g id="Vector_8" filter="url(#filter0_d_307_11137)">
<path d="M27.1534 34.0476V31.7046C27.1534 28.6621 26.6893 25.6368 25.7771 22.7347L24.9811 20.2029C24.9741 20.1799 24.9643 20.1582 24.9565 20.1355C24.8171 19.721 24.6054 19.3384 24.3338 19.0048C24.0604 18.6693 23.7231 18.3803 23.3485 18.1639L1.62514 5.59725C1.59443 5.57959 1.56345 5.56434 1.53194 5.55123C1.0593 5.35405 0.51136 5.66655 0.45742 6.19603L-0.0683594 11.3665V16.8919C-0.0683594 17.2034 0.0445939 17.5041 0.249672 17.7379L2.53864 20.3514L25.1063 33.4263C25.7405 33.7937 26.4417 34.0013 27.1534 34.0476Z" fill="#3DB44A"/>
</g>
<path id="Vector_9" d="M21.2114 22.1456L21.2104 25.9248L-0.0683594 13.6089V13.7207L4.89277 16.5915L4.89063 21.7435L5.00225 21.8077V18.9176L8.75267 21.088L8.7516 23.9762L8.86322 24.0404V18.8893L12.6425 21.0762L12.6403 26.2269L12.752 26.2911V21.1397L16.5451 23.3344L16.5427 28.4773L16.6543 28.5415V23.3978L21.2104 26.0342L21.209 31.1715L21.3207 31.2357V22.2099L21.2114 22.1456ZM8.75294 20.9773L5.00225 18.8063V16.655L8.75374 18.8259L8.75294 20.9773Z" fill="#304E75"/>
<path id="Vector_10" d="M21.1345 31.0909C21.1345 32.3457 20.3732 32.9223 19.4341 32.3792C18.495 31.8358 17.7334 30.3782 17.7334 29.1234C17.7334 27.8688 18.495 27.292 19.4341 27.8354C20.3732 28.3785 21.1345 29.8361 21.1345 31.0909Z" fill="#2E373D"/>
<path id="Vector_11" d="M20.2274 30.5909C20.2274 31.2078 19.8531 31.4914 19.3914 31.2242C18.9297 30.9571 18.5553 30.2404 18.5553 29.6234C18.5553 29.0067 18.9297 28.7231 19.3914 28.9901C19.8531 29.2574 20.2274 29.9739 20.2274 30.5909Z" fill="#CECECE"/>
<path id="Vector_12" d="M19.8448 30.3696C19.8448 30.704 19.6418 30.8579 19.3914 30.7128C19.1409 30.5681 18.9377 30.1793 18.9377 29.8449C18.9377 29.5102 19.1409 29.3564 19.3914 29.5014C19.6418 29.6461 19.8448 30.0349 19.8448 30.3696Z" fill="#627681"/>
<path id="Vector_13" d="M19.3756 15.1157L25.8572 11.3702C25.4233 10.6307 24.8056 10.0164 24.0641 9.58727L10.2977 1.62119C10.146 1.53343 9.97485 1.55056 9.84695 1.63484L3.41155 5.3538C3.27323 5.42229 3.17096 5.56303 3.17096 5.73988L19.3756 15.1157Z" fill="#3DB44A"/>
<path id="Vector_14" d="M19.3756 15.1156L3.17096 5.73983C3.17096 5.40807 3.52958 5.20045 3.81637 5.3666L17.5828 13.3327C18.3243 13.7618 18.9419 14.3761 19.3756 15.1156Z" fill="#3DB44A"/>
<path id="Vector_15" d="M27.1219 24.8089L33.6181 21.1183C33.4235 20.2118 33.1877 19.3136 32.9092 18.4272L32.5391 17.25L26.0562 21.0013L26.4252 22.1756C26.6978 23.0433 26.9299 23.9222 27.1219 24.8089Z" fill="#304E75"/>
<path id="Vector_16" d="M27.3905 26.209C27.6255 27.6149 27.7603 29.0372 27.7929 30.4652L27.7988 30.4933L34.2777 26.7481C34.2465 25.3137 34.1122 23.8853 33.8766 22.4731L27.3905 26.209Z" fill="#304E75"/>
<path id="Vector_17" d="M21.3207 17.7335L1.65694 6.36469C1.45187 6.24617 1.19285 6.37727 1.16641 6.61298L0.825684 9.64862L1.22516 10.5955L21.3207 22.2096V17.7335Z" fill="#243B58"/>
<path id="Vector_18" d="M22.3284 24.3184L22.4595 24.9297C22.9634 27.2759 24.4368 29.2978 26.5138 30.4932V29.343C26.5138 28.4333 26.4494 27.5274 26.3255 26.6305L22.3284 24.3184Z" fill="#243B58"/>
<path id="Vector_19" d="M26.0204 24.9553C25.7541 23.7842 25.3822 22.637 24.9058 21.5282L24.412 20.3796C24.0929 19.6377 23.5434 19.0186 22.8451 18.6149L21.969 18.1084V22.5843L26.0204 24.9553Z" fill="#243B58"/>
<path id="Vector_20" d="M30.5273 22.8741L33.3546 21.2677C33.1066 19.9581 32.7271 18.6736 32.2189 17.4351L29.3398 19.1011L29.6475 20.5344C29.8253 21.3622 30.1241 22.1493 30.5273 22.8741Z" fill="#59718B"/>
<path id="Vector_21" d="M31.2607 23.98C31.924 24.8273 32.7492 25.55 33.7017 26.0982V24.9477C33.7017 24.1788 33.6557 23.4122 33.5668 22.6519L31.2607 23.98Z" fill="#59718B"/>
<g id="Group">
<path id="Vector_22" d="M16.5427 19.4527L16.7969 19.5996V15.1181L16.5427 14.9712V19.4527Z" fill="#304E75"/>
<path id="Vector_23" d="M12.6403 17.1971L12.8943 17.344V12.8617L12.6403 12.7148V17.1971Z" fill="#304E75"/>
<path id="Vector_24" d="M8.75159 14.9499L9.00553 15.0965V10.6137L8.75159 10.4668V14.9499Z" fill="#304E75"/>
<path id="Vector_25" d="M4.89062 12.7185L5.14457 12.8654V8.38153L4.89062 8.23438V12.7185Z" fill="#304E75"/>
</g>
<path id="Vector_26" d="M6.86373 22.8185C6.86373 24.0733 6.10243 24.6499 5.16329 24.1067C4.22415 23.5633 3.46259 22.1057 3.46259 20.8512C3.46259 19.5963 4.22415 19.0195 5.16329 19.5629C6.10243 20.1063 6.86373 21.5636 6.86373 22.8185Z" fill="#2E373D"/>
<path id="Vector_27" d="M5.96089 22.3398C5.96089 22.9568 5.58652 23.2404 5.12482 22.9731C4.66286 22.7061 4.28876 21.9896 4.28876 21.3726C4.28876 20.7556 4.66286 20.472 5.12482 20.7393C5.58652 21.0063 5.96089 21.7228 5.96089 22.3398Z" fill="#CECECE"/>
<path id="Vector_28" d="M5.57824 22.1185C5.57824 22.4529 5.3753 22.6068 5.12482 22.462C4.87435 22.317 4.67114 21.9283 4.67114 21.5938C4.67114 21.2591 4.87435 21.1055 5.12482 21.2503C5.3753 21.395 5.57824 21.7838 5.57824 22.1185Z" fill="#627681"/>
<path id="Vector_29" d="M0.711121 15.5654V17.2531L3.68876 18.9914V17.3042L0.711121 15.5654Z" fill="#304E75"/>
</g>
<defs>
<filter id="filter0_d_307_11137" x="-4.06836" y="5.4917" width="35.2217" height="36.5557" filterUnits="userSpaceOnUse" color-interpolation-filters="sRGB">
<feFlood flood-opacity="0" result="BackgroundImageFix"/>
<feColorMatrix in="SourceAlpha" type="matrix" values="0 0 0 0 0 0 0 0 0 0 0 0 0 0 0 0 0 0 127 0" result="hardAlpha"/>
<feOffset dy="4"/>
<feGaussianBlur stdDeviation="2"/>
<feComposite in2="hardAlpha" operator="out"/>
<feColorMatrix type="matrix" values="0 0 0 0 0 0 0 0 0 0 0 0 0 0 0 0 0 0 0.07 0"/>
<feBlend mode="normal" in2="BackgroundImageFix" result="effect1_dropShadow_307_11137"/>
<feBlend mode="normal" in="SourceGraphic" in2="effect1_dropShadow_307_11137" result="shape"/>
</filter>
<clipPath id="clip0_307_11137">
<rect width="35" height="35" fill="white"/>
</clipPath>
</defs>
</svg>
