<svg width="20" height="20" viewBox="0 0 20 20" fill="none" xmlns="http://www.w3.org/2000/svg">
<g id="solar:camera-outline">
<path id="Vector" fill-rule="evenodd" clip-rule="evenodd" d="M6.33169 3.73917C6.55419 2.6475 7.52585 1.875 8.63835 1.875H11.3617C12.4742 1.875 13.445 2.6475 13.6684 3.73917C13.693 3.85938 13.7573 3.96781 13.851 4.04701C13.9447 4.12622 14.0624 4.17159 14.185 4.17583H14.2125C15.3817 4.2275 16.28 4.37083 17.03 4.86333C17.5025 5.17333 17.9092 5.57167 18.2259 6.0375C18.62 6.61583 18.7934 7.28083 18.8767 8.08417C18.9584 8.87 18.9584 9.85417 18.9584 11.1008V11.1717C18.9584 12.4183 18.9584 13.4033 18.8767 14.1883C18.7934 14.9917 18.62 15.6567 18.2259 16.2358C17.9074 16.7013 17.5012 17.1002 17.03 17.41C16.4442 17.7942 15.7717 17.9642 14.9567 18.045C14.1584 18.125 13.1575 18.125 11.8859 18.125H8.11419C6.84252 18.125 5.84169 18.125 5.04335 18.045C4.22835 17.9642 3.55585 17.795 2.97002 17.41C2.49872 17.0999 2.09251 16.7008 1.77419 16.235C1.38002 15.6567 1.20669 14.9917 1.12335 14.1883C1.04169 13.4033 1.04169 12.4183 1.04169 11.1717V11.1008C1.04169 9.85417 1.04169 8.87 1.12335 8.08417C1.20669 7.28083 1.38002 6.61583 1.77419 6.0375C2.09251 5.57172 2.49872 5.17259 2.97002 4.8625C3.72002 4.37083 4.61835 4.2275 5.78752 4.17667L5.80169 4.17583H5.81502C5.93765 4.17159 6.05529 4.12622 6.14901 4.04701C6.24272 3.96781 6.30707 3.85938 6.33169 3.73917ZM8.63835 3.125C8.10502 3.125 7.65752 3.49417 7.55669 3.98833C7.39419 4.78833 6.68419 5.41833 5.83002 5.42583C4.70669 5.47583 4.10502 5.61333 3.65502 5.90833C3.32123 6.12827 3.03338 6.41102 2.80752 6.74083C2.57752 7.07833 2.43919 7.51083 2.36585 8.21333C2.29252 8.92667 2.29169 9.84667 2.29169 11.1367C2.29169 12.4267 2.29169 13.3458 2.36669 14.0592C2.43919 14.7617 2.57752 15.1942 2.80835 15.5325C3.03169 15.8608 3.31919 16.1442 3.65585 16.365C4.00335 16.5925 4.44835 16.73 5.16752 16.8017C5.89585 16.8742 6.83419 16.875 8.14835 16.875H11.8517C13.165 16.875 14.1034 16.875 14.8325 16.8017C15.5517 16.73 15.9967 16.5933 16.3442 16.365C16.6809 16.1442 16.9692 15.8608 17.1925 15.5317C17.4225 15.1942 17.5609 14.7617 17.6342 14.0592C17.7075 13.3458 17.7084 12.4258 17.7084 11.1367C17.7084 9.8475 17.7084 8.92667 17.6334 8.21333C17.5609 7.51083 17.4225 7.07833 17.1917 6.74083C16.9659 6.41072 16.6781 6.12768 16.3442 5.9075C15.8959 5.61333 15.2942 5.47583 14.1692 5.42583C13.3159 5.4175 12.6059 4.78917 12.4434 3.98833C12.39 3.74189 12.2533 3.52141 12.0562 3.36412C11.8591 3.20683 11.6138 3.12237 11.3617 3.125H8.63835ZM10 8.95833C9.50274 8.95833 9.02582 9.15588 8.67419 9.50751C8.32256 9.85914 8.12502 10.3361 8.12502 10.8333C8.12502 11.3306 8.32256 11.8075 8.67419 12.1592C9.02582 12.5108 9.50274 12.7083 10 12.7083C10.4973 12.7083 10.9742 12.5108 11.3258 12.1592C11.6775 11.8075 11.875 11.3306 11.875 10.8333C11.875 10.3361 11.6775 9.85914 11.3258 9.50751C10.9742 9.15588 10.4973 8.95833 10 8.95833ZM6.87502 10.8333C6.87502 10.0045 7.20426 9.20968 7.79031 8.62362C8.37636 8.03757 9.17122 7.70833 10 7.70833C10.8288 7.70833 11.6237 8.03757 12.2097 8.62362C12.7958 9.20968 13.125 10.0045 13.125 10.8333C13.125 11.6621 12.7958 12.457 12.2097 13.043C11.6237 13.6291 10.8288 13.9583 10 13.9583C9.17122 13.9583 8.37636 13.6291 7.79031 13.043C7.20426 12.457 6.87502 11.6621 6.87502 10.8333ZM14.375 8.33333C14.375 8.16757 14.4409 8.0086 14.5581 7.89139C14.6753 7.77418 14.8343 7.70833 15 7.70833H15.8334C15.9991 7.70833 16.1581 7.77418 16.2753 7.89139C16.3925 8.0086 16.4584 8.16757 16.4584 8.33333C16.4584 8.49909 16.3925 8.65806 16.2753 8.77527C16.1581 8.89248 15.9991 8.95833 15.8334 8.95833H15C14.8343 8.95833 14.6753 8.89248 14.5581 8.77527C14.4409 8.65806 14.375 8.49909 14.375 8.33333Z" fill="#B1B1B1"/>
</g>
</svg>
