<svg width="20" height="20" viewBox="0 0 20 20" fill="none" xmlns="http://www.w3.org/2000/svg">
<g clip-path="url(#clip0_132_2365)">
<path d="M8.3335 9.44434H10.0002V10.5554H8.3335V9.44434Z" fill="#B1B1B1"/>
<path d="M14.6947 7.87198C13.7094 6.25965 12.3652 4.89649 10.7669 3.88864C10.0285 3.42067 9.18678 3.14056 8.31522 3.07277C7.44366 3.00498 6.56875 3.15157 5.76688 3.49975C5.0655 3.83059 4.45518 4.32718 3.98865 4.94665C3.52211 5.56612 3.21338 6.28984 3.08911 7.05531C3.04466 7.31642 3.01133 7.56642 2.97799 7.81087C2.45785 7.89517 1.98459 8.16157 1.64268 8.5625C1.30076 8.96344 1.11244 9.47283 1.11133 9.99975V13.4053C1.11133 13.7 1.22839 13.9826 1.43676 14.191C1.64514 14.3994 1.92775 14.5164 2.22244 14.5164V9.99975C2.22244 9.70507 2.3395 9.42245 2.54788 9.21408C2.75625 9.00571 3.03887 8.88864 3.33355 8.88864H13.7391C14.8098 8.89011 15.8363 9.31611 16.5934 10.0732C17.3505 10.8304 17.7765 11.8568 17.778 12.9275V13.3331H16.6669C16.4322 12.7609 15.9952 12.2952 15.439 12.0247C14.8829 11.7543 14.2467 11.6981 13.6517 11.8668C13.0568 12.0355 12.5448 12.4174 12.2135 12.9395C11.8821 13.4617 11.7546 14.0875 11.8553 14.6977C11.956 15.3078 12.2778 15.8596 12.7593 16.2476C13.2408 16.6356 13.8483 16.8327 14.466 16.8014C15.0836 16.7701 15.668 16.5124 16.1078 16.0776C16.5475 15.6429 16.8118 15.0614 16.8502 14.4442H17.778C18.0727 14.4442 18.3553 14.3271 18.5637 14.1188C18.772 13.9104 18.8891 13.6278 18.8891 13.3331V12.9275C18.8869 11.7286 18.4668 10.5679 17.7013 9.64524C16.9358 8.72253 15.8726 8.09548 14.6947 7.87198ZM6.11133 7.77753H3.85022C3.85022 7.60531 3.90022 7.42753 3.93355 7.22198C4.02953 6.61168 4.28002 6.03607 4.6612 5.54987C5.04237 5.06368 5.54157 4.68306 6.11133 4.4442V7.77753ZM7.22244 7.77753V4.21087C8.25964 4.07618 9.31152 4.30382 10.2002 4.85531C11.4134 5.61096 12.4605 6.60513 13.278 7.77753H7.22244ZM14.3336 15.7664C14.0589 15.7664 13.7903 15.685 13.5619 15.5324C13.3335 15.3797 13.1555 15.1628 13.0504 14.909C12.9453 14.6553 12.9178 14.376 12.9713 14.1066C13.0249 13.8372 13.1572 13.5897 13.3515 13.3954C13.5457 13.2012 13.7932 13.0689 14.0626 13.0153C14.332 12.9617 14.6113 12.9892 14.8651 13.0944C15.1188 13.1995 15.3358 13.3775 15.4884 13.6059C15.641 13.8343 15.7224 14.1028 15.7224 14.3775C15.7224 14.7459 15.5761 15.0992 15.3156 15.3596C15.0552 15.6201 14.7019 15.7664 14.3336 15.7664Z" fill="#B1B1B1"/>
<path d="M7.87201 13.3333C7.63737 12.7611 7.20029 12.2954 6.64417 12.0249C6.08804 11.7545 5.45181 11.6982 4.85687 11.867C4.26193 12.0357 3.74994 12.4176 3.4186 12.9397C3.08726 13.4619 2.95976 14.0877 3.06044 14.6979C3.16111 15.308 3.48291 15.8597 3.96443 16.2478C4.44595 16.6358 5.05347 16.8329 5.67108 16.8016C6.28869 16.7702 6.87313 16.5126 7.3129 16.0778C7.75266 15.6431 8.01695 15.0616 8.05534 14.4444H10.9998V14.3055C10.9888 13.9777 11.0262 13.6501 11.1109 13.3333H7.87201ZM5.55534 15.7666C5.28065 15.7666 5.01212 15.6852 4.78372 15.5325C4.55531 15.3799 4.3773 15.163 4.27218 14.9092C4.16705 14.6554 4.13955 14.3762 4.19314 14.1068C4.24673 13.8373 4.37901 13.5899 4.57325 13.3956C4.76749 13.2014 5.01496 13.0691 5.28438 13.0155C5.5538 12.9619 5.83306 12.9894 6.08685 13.0946C6.34063 13.1997 6.55755 13.3777 6.71016 13.6061C6.86277 13.8345 6.94423 14.103 6.94423 14.3777C6.94423 14.7461 6.7979 15.0993 6.53743 15.3598C6.27697 15.6203 5.9237 15.7666 5.55534 15.7666Z" fill="#B1B1B1"/>
</g>
<defs>
<clipPath id="clip0_132_2365">
<rect width="20" height="20" fill="white"/>
</clipPath>
</defs>
</svg>
