<svg width="24" height="24" viewBox="0 0 24 24" fill="none" xmlns="http://www.w3.org/2000/svg">
<g id="bi:cash">
<g id="Group">
<path id="Vector" d="M13.9799 13.9799C13.4548 14.505 12.7426 14.8 12 14.8C11.2574 14.8 10.5452 14.505 10.0201 13.9799C9.495 13.4548 9.2 12.7426 9.2 12C9.2 11.2574 9.495 10.5452 10.0201 10.0201C10.5452 9.495 11.2574 9.2 12 9.2C12.7426 9.2 13.4548 9.495 13.9799 10.0201C14.505 10.5452 14.8 11.2574 14.8 12C14.8 12.7426 14.505 13.4548 13.9799 13.9799Z" fill="#3DB44A" stroke="white" stroke-width="0.4"/>
<path id="Vector_2" d="M4.5 5.8H4.3V6C4.3 6.74261 4.005 7.4548 3.4799 7.9799C2.9548 8.505 2.24261 8.8 1.5 8.8H1.3V9V15V15.2H1.5C2.24261 15.2 2.9548 15.495 3.4799 16.0201C4.005 16.5452 4.3 17.2574 4.3 18V18.2H4.5H19.5H19.7V18C19.7 17.2574 19.995 16.5452 20.5201 16.0201C21.0452 15.495 21.7574 15.2 22.5 15.2H22.7V15V9V8.8H22.5C21.7574 8.8 21.0452 8.505 20.5201 7.9799C19.995 7.4548 19.7 6.74261 19.7 6V5.8H19.5H4.5ZM23.4192 5.08076L23.5607 4.93934L23.4192 5.08076C23.663 5.32456 23.8 5.65522 23.8 6V18C23.8 18.3448 23.663 18.6754 23.4192 18.9192C23.1754 19.163 22.8448 19.3 22.5 19.3H1.5C1.15522 19.3 0.824559 19.163 0.580761 18.9192C0.336964 18.6754 0.2 18.3448 0.2 18V6C0.2 5.65522 0.336964 5.32456 0.580761 5.08076C0.824558 4.83696 1.15522 4.7 1.5 4.7H22.5C22.8448 4.7 23.1754 4.83696 23.4192 5.08076Z" fill="#3DB44A" stroke="white" stroke-width="0.4"/>
</g>
</g>
</svg>
