<svg width="24" height="24" viewBox="0 0 24 24" fill="none" xmlns="http://www.w3.org/2000/svg">
<g id="hugeicons:champion">
<g id="Group">
<path id="Vector" d="M18.5 5H19.702C20.903 5 21.503 5 21.817 5.377C22.13 5.755 22 6.321 21.739 7.454L21.349 9.154C20.76 11.708 18.61 13.608 16 14M5.49998 5H4.29798C3.09698 5 2.49598 5 2.18298 5.377C1.86998 5.755 1.99998 6.321 2.26098 7.454L2.65098 9.154C3.23998 11.708 5.38998 13.608 7.99998 14M12 17C10.326 17 8.86998 18.265 8.11798 20.131C7.75798 21.023 8.27398 22 8.95798 22H15.041C15.726 22 16.241 21.023 15.882 20.131C15.13 18.265 13.674 17 12 17Z" stroke="white" stroke-width="1.5" stroke-linecap="round" stroke-linejoin="round"/>
<path id="Vector_2" d="M12 17C15.02 17 17.565 12.338 18.33 5.99C18.541 4.236 18.647 3.358 18.087 2.679C17.527 2 16.622 2 14.813 2H9.18698C7.37698 2 6.47298 2 5.91298 2.679C5.35298 3.358 5.45998 4.236 5.66998 5.991C6.43498 12.338 8.97998 17 12 17Z" stroke="white" stroke-width="1.5" stroke-linecap="round" stroke-linejoin="round"/>
</g>
</g>
</svg>
