<svg width="20" height="20" viewBox="0 0 20 20" fill="none" xmlns="http://www.w3.org/2000/svg">
<path d="M7.33364 8.66493C7.33364 8.48812 7.40387 8.31856 7.52889 8.19354C7.65391 8.06852 7.82348 7.99828 8.00028 7.99828H12.0002C12.177 7.99828 12.3465 8.06852 12.4716 8.19354C12.5966 8.31856 12.6668 8.48812 12.6668 8.66493C12.6668 8.84173 12.5966 9.0113 12.4716 9.13632C12.3465 9.26134 12.177 9.33157 12.0002 9.33157H8.00028C7.82348 9.33157 7.65391 9.26134 7.52889 9.13632C7.40387 9.0113 7.33364 8.84173 7.33364 8.66493ZM8.00028 10.6649C7.82348 10.6649 7.65391 10.7351 7.52889 10.8601C7.40387 10.9851 7.33364 11.1547 7.33364 11.3315C7.33364 11.5083 7.40387 11.6779 7.52889 11.8029C7.65391 11.9279 7.82348 11.9982 8.00028 11.9982H10.6669C10.8437 11.9982 11.0132 11.9279 11.1383 11.8029C11.2633 11.6779 11.3335 11.5083 11.3335 11.3315C11.3335 11.1547 11.2633 10.9851 11.1383 10.8601C11.0132 10.7351 10.8437 10.6649 10.6669 10.6649H8.00028ZM2.00046 9.99822C2.0008 8.237 2.58234 6.52512 3.65488 5.12814C4.72741 3.73115 6.23098 2.72715 7.93234 2.27189C9.6337 1.81663 11.4377 1.93555 13.0646 2.6102C14.6915 3.28486 16.0503 4.47754 16.9301 6.00322C17.81 7.52891 18.1618 9.30231 17.931 11.0483C17.7001 12.7944 16.8995 14.4154 15.6534 15.66C14.4072 16.9046 12.7852 17.7032 11.0389 17.9318C9.29256 18.1605 7.51959 17.8065 5.99501 16.9247L2.87777 17.9647C2.7626 18.0031 2.63912 18.0094 2.52065 17.9828C2.40218 17.9562 2.29322 17.8978 2.20554 17.8138C2.11785 17.7298 2.05476 17.6235 2.02309 17.5062C1.99141 17.389 1.99235 17.2654 2.02579 17.1487L2.9751 13.8274C2.33514 12.6526 2.00004 11.336 2.00046 9.99822ZM10.0002 3.33175C8.82317 3.33168 7.66707 3.64325 6.64946 4.2348C5.63185 4.82635 4.789 5.67678 4.2066 6.69965C3.62419 7.72252 3.32299 8.88136 3.33361 10.0584C3.34423 11.2354 3.66629 12.3886 4.26706 13.4008C4.31328 13.479 4.34304 13.5658 4.3545 13.6559C4.36597 13.746 4.3589 13.8375 4.33372 13.9248L3.65508 16.298L5.86568 15.5621C5.95956 15.5307 6.05924 15.5207 6.15749 15.5327C6.25573 15.5447 6.35007 15.5784 6.43366 15.6314C7.30733 16.1843 8.29763 16.5264 9.32628 16.6307C10.3549 16.735 11.3937 16.5986 12.3606 16.2322C13.3275 15.8659 14.1959 15.2797 14.8972 14.52C15.5985 13.7603 16.1134 12.8479 16.4014 11.8548C16.6893 10.8618 16.7424 9.81543 16.5563 8.79839C16.3702 7.78135 15.9501 6.82153 15.3292 5.9948C14.7083 5.16807 13.9036 4.49709 12.9787 4.03491C12.0538 3.57272 11.0342 3.33199 10.0002 3.33175Z" fill="#B1B1B1"/>
</svg>
