<svg width="18" height="18" viewBox="0 0 18 18" fill="none" xmlns="http://www.w3.org/2000/svg">
<path d="M16.7083 9.00023H6.4125M2.77833 9.00023H1.29167M2.77833 9.00023C2.77833 8.51842 2.96973 8.05635 3.31042 7.71566C3.65111 7.37497 4.11319 7.18357 4.595 7.18357C5.07681 7.18357 5.53889 7.37497 5.87958 7.71566C6.22027 8.05635 6.41167 8.51842 6.41167 9.00023C6.41167 9.48204 6.22027 9.94412 5.87958 10.2848C5.53889 10.6255 5.07681 10.8169 4.595 10.8169C4.11319 10.8169 3.65111 10.6255 3.31042 10.2848C2.96973 9.94412 2.77833 9.48204 2.77833 9.00023ZM16.7083 14.5061H11.9183M11.9183 14.5061C11.9183 14.988 11.7265 15.4506 11.3857 15.7914C11.0449 16.1321 10.5828 16.3236 10.1008 16.3236C9.61902 16.3236 9.15695 16.1313 8.81626 15.7906C8.47557 15.45 8.28417 14.9879 8.28417 14.5061M11.9183 14.5061C11.9183 14.0241 11.7265 13.5624 11.3857 13.2216C11.0449 12.8808 10.5828 12.6894 10.1008 12.6894C9.61902 12.6894 9.15695 12.8808 8.81626 13.2215C8.47557 13.5622 8.28417 14.0243 8.28417 14.5061M8.28417 14.5061H1.29167M16.7083 3.4944H14.1208M10.4867 3.4944H1.29167M10.4867 3.4944C10.4867 3.01259 10.6781 2.55051 11.0188 2.20982C11.3594 1.86913 11.8215 1.67773 12.3033 1.67773C12.5419 1.67773 12.7781 1.72472 12.9985 1.81602C13.219 1.90732 13.4192 2.04113 13.5879 2.20982C13.7566 2.37852 13.8904 2.57878 13.9817 2.79919C14.073 3.0196 14.12 3.25583 14.12 3.4944C14.12 3.73297 14.073 3.9692 13.9817 4.18961C13.8904 4.41002 13.7566 4.61028 13.5879 4.77898C13.4192 4.94767 13.219 5.08149 12.9985 5.17278C12.7781 5.26408 12.5419 5.31107 12.3033 5.31107C11.8215 5.31107 11.3594 5.11967 11.0188 4.77898C10.6781 4.43829 10.4867 3.97621 10.4867 3.4944Z" stroke="#B1B1B1" stroke-width="1.5" stroke-miterlimit="10" stroke-linecap="round"/>
</svg>
