<svg width="45" height="45" viewBox="0 0 45 45" fill="none" xmlns="http://www.w3.org/2000/svg">
<g id="hatchback 1" clip-path="url(#clip0_39_1322)">
<path id="Vector" d="M44.6134 28.4146L43.1759 27.6548V29.1115L44.6134 28.4146Z" fill="#3DB44A"/>
<path id="Vector_2" d="M12.121 28.5407L7.47828 25.2744C6.79507 23.5674 5.6573 22.0502 4.36846 21.3059C2.27934 20.0998 0.585388 21.3804 0.585388 24.1658C0.585388 26.9515 2.27934 30.1877 4.36846 31.3941C5.3586 31.9657 6.25983 31.9781 6.93411 31.5369L12.121 28.5407Z" fill="#23292E"/>
<path id="Vector_3" d="M29.7139 38.8238L25.0711 35.5574C24.3879 33.8504 23.2501 32.3333 21.9613 31.5893C19.8718 30.3829 18.1782 31.6635 18.1782 34.4492C18.1782 37.2349 19.8718 40.4711 21.9613 41.6772C22.9518 42.2491 23.8527 42.2611 24.5269 41.82L29.7139 38.8238Z" fill="#23292E"/>
<g id="Vector_4" filter="url(#filter0_d_39_1322)">
<path d="M43.9374 28.4306L43.809 28.5047C43.4001 26.3984 42.3643 24.4466 40.8132 22.9192L37.2158 19.3768L36.465 17.9784C34.5774 14.4628 31.7443 11.5449 28.2857 9.55399L16.726 2.90039L2.00638 11.4326L1.74442 14.2352C0.598068 16.4486 0 18.9047 0 21.3972V21.905C0 23.7202 0.967484 25.3976 2.53887 26.3068L26.6491 40.2542C26.6697 40.2673 26.6899 40.2807 26.7112 40.2927C26.7479 40.314 26.7854 40.3342 26.8228 40.3548L26.9471 40.4266C26.992 40.4527 27.0377 40.4753 27.0837 40.4963C27.095 40.5014 27.1064 40.5062 27.1177 40.5114C27.1572 40.5282 27.1967 40.5433 27.2361 40.5567C27.2413 40.5584 27.2464 40.5612 27.2516 40.5629C28.7341 41.1994 30.4435 41.1084 31.8604 40.2896L42.9246 33.8942C44.209 33.1519 45 31.7807 45 30.2972V29.0437C45 28.4985 44.4095 28.1576 43.9374 28.4306Z" fill="url(#paint0_linear_39_1322)"/>
</g>
<path id="Vector_5" d="M43.9374 28.4305L30.9389 35.9441C30.3267 36.2978 29.6391 36.4612 28.9558 36.4375C28.4786 34.5616 27.4967 32.8333 26.0936 31.4518L22.4966 27.909L21.7457 26.511C19.8578 22.995 17.0247 20.0771 13.5664 18.0866L2.00638 11.4326L1.74408 14.2352C0.598068 16.4486 0 18.9047 0 21.3972V21.905C0 23.7201 0.967484 25.3976 2.53887 26.3067L26.6487 40.2542C26.6697 40.2673 26.6899 40.2806 26.7109 40.2927C26.7479 40.3139 26.7854 40.3342 26.8228 40.3548L26.9471 40.4266C27.0466 40.4842 27.1486 40.5292 27.2516 40.5629C28.7341 41.1994 30.4435 41.1087 31.8604 40.2896L42.9246 33.8942C44.209 33.1519 45 31.7807 45 30.2972V29.0437C45 28.4985 44.4095 28.1576 43.9374 28.4305Z" fill="#3DB44A"/>
<path id="Vector_6" d="M25.7444 38.8176C25.7444 41.6033 24.0504 42.8839 21.9613 41.6775C19.8718 40.4714 18.1782 37.2352 18.1782 34.4495C18.1782 31.6638 19.8718 30.3836 21.9613 31.5896C24.0504 32.7957 25.7444 36.0319 25.7444 38.8176Z" fill="#2E373D"/>
<path id="Vector_7" d="M23.8211 37.7071C23.8211 39.0769 22.9885 39.7062 21.9613 39.1133C20.9341 38.52 20.1012 36.9291 20.1012 35.5596C20.1012 34.1897 20.9341 33.5604 21.9613 34.1533C22.9885 34.7466 23.8211 36.3375 23.8211 37.7071Z" fill="#CECECE"/>
<path id="Vector_8" d="M22.97 37.216C22.97 37.9589 22.5185 38.3002 21.9613 37.9785C21.4041 37.6568 20.9526 36.7941 20.9526 36.0511C20.9526 35.3082 21.4041 34.9669 21.9613 35.2886C22.5185 35.6103 22.97 36.473 22.97 37.216Z" fill="#627681"/>
<path id="Vector_9" d="M8.15154 28.5342C8.15154 31.3199 6.45758 32.6005 4.36846 31.3941C2.27934 30.188 0.585388 26.9518 0.585388 24.1658C0.585388 21.3804 2.27934 20.0998 4.36846 21.3059C6.45792 22.5123 8.15154 25.7485 8.15154 28.5342Z" fill="#2E373D"/>
<path id="Vector_10" d="M6.22857 27.424C6.22857 28.7935 5.39567 29.4232 4.36845 28.8303C3.34122 28.237 2.50867 26.646 2.50867 25.2762C2.50867 23.9067 3.34122 23.277 4.36845 23.8703C5.39567 24.4632 6.22857 26.0545 6.22857 27.424Z" fill="#CECECE"/>
<path id="Vector_11" d="M5.37711 26.9326C5.37711 27.6752 4.92564 28.0168 4.36842 27.6951C3.81121 27.3734 3.35974 26.5106 3.35974 25.7677C3.35974 25.0247 3.81121 24.6831 4.36842 25.0048C4.92564 25.3265 5.37711 26.1896 5.37711 26.9326Z" fill="#627681"/>
<path id="Vector_12" d="M23.2773 27.4583L36.5058 19.7912L33.5457 15.3812C32.7846 14.2466 31.2722 13.8998 30.0926 14.5888L21.8683 19.3936C20.5757 20.149 20.1245 21.799 20.8531 23.1067L23.2773 27.4583Z" fill="#304E75"/>
<path id="Vector_13" d="M43.1907 26.4497L41.0006 27.7262C40.6817 27.9123 40.4857 28.2539 40.4857 28.6229V30.434L43.8101 28.5145C43.6727 27.8055 43.4654 27.1137 43.1907 26.4497Z" fill="white"/>
<path id="Vector_14" d="M43.166 28.8863L43.8097 28.5145C43.6727 27.8051 43.4654 27.1137 43.1904 26.4497L42.5494 26.8232C42.8196 27.4883 43.0259 28.1787 43.166 28.8863Z" fill="#EF9910"/>
<path id="Vector_15" d="M29.8595 36.5686L32.2867 35.1672V33.9583C32.2867 33.4179 31.7017 33.0805 31.2338 33.3503L29.1477 34.555C28.7217 34.8005 28.1974 34.8005 27.7717 34.555L26.3596 33.7396C26.3596 34.795 26.9234 35.77 27.838 36.2971L28.3114 36.5696C28.7907 36.8453 29.3805 36.845 29.8595 36.5686Z" fill="white"/>
<path id="Vector_16" d="M28.3588 34.7261C28.1555 34.711 27.954 34.6602 27.7717 34.5551L26.3596 33.7397C26.3596 34.7951 26.9234 35.7702 27.838 36.2972L28.3114 36.5698C28.5353 36.6985 28.7831 36.7648 29.0324 36.773C28.8772 36.0682 28.651 35.3829 28.3588 34.7261Z" fill="#EF9910"/>
<path id="Vector_17" d="M23.2773 27.4581L31.2338 33.3502L41.0006 27.7259L36.5059 19.791L23.2773 27.4581Z" fill="#3DB44A"/>
<path id="Vector_18" d="M11.6132 22.3635L21.2723 27.8162L18.4766 23.8391C17.644 22.6553 16.5632 21.6669 15.3098 20.9432L11.6132 18.8091V22.3635Z" fill="#243B58"/>
<path id="Vector_19" d="M35.4035 19.5922L32.6074 15.6158C32.2586 15.1197 31.8641 14.6604 31.434 14.2381C30.9773 14.2312 30.5139 14.3431 30.0926 14.589L28.3468 15.609L35.4035 19.5922Z" fill="#59718B"/>
<path id="Vector_20" d="M10.3182 18.0615L6.21034 15.6898C5.08905 15.0423 3.65396 15.525 3.15168 16.7184L2.85608 17.4202L10.3182 21.6328V18.0615Z" fill="#243B58"/>
</g>
<defs>
<filter id="filter0_d_39_1322" x="-4" y="2.90039" width="53" height="46.0801" filterUnits="userSpaceOnUse" color-interpolation-filters="sRGB">
<feFlood flood-opacity="0" result="BackgroundImageFix"/>
<feColorMatrix in="SourceAlpha" type="matrix" values="0 0 0 0 0 0 0 0 0 0 0 0 0 0 0 0 0 0 127 0" result="hardAlpha"/>
<feOffset dy="4"/>
<feGaussianBlur stdDeviation="2"/>
<feComposite in2="hardAlpha" operator="out"/>
<feColorMatrix type="matrix" values="0 0 0 0 0 0 0 0 0 0 0 0 0 0 0 0 0 0 0.07 0"/>
<feBlend mode="normal" in2="BackgroundImageFix" result="effect1_dropShadow_39_1322"/>
<feBlend mode="normal" in="SourceGraphic" in2="effect1_dropShadow_39_1322" result="shape"/>
</filter>
<linearGradient id="paint0_linear_39_1322" x1="22.5" y1="2.90039" x2="22.5" y2="40.9806" gradientUnits="userSpaceOnUse">
<stop stop-color="#3DB44A"/>
<stop offset="1" stop-color="#1B6D24"/>
</linearGradient>
<clipPath id="clip0_39_1322">
<rect width="45" height="45" fill="white"/>
</clipPath>
</defs>
</svg>
