<svg width="20" height="20" viewBox="0 0 20 20" fill="none" xmlns="http://www.w3.org/2000/svg">
<path fill-rule="evenodd" clip-rule="evenodd" d="M9.99999 18.3337C5.39749 18.3337 1.66666 14.6028 1.66666 10.0003C1.66666 5.39783 5.39749 1.66699 9.99999 1.66699C14.6025 1.66699 18.3333 5.39783 18.3333 10.0003C18.3333 14.6028 14.6025 18.3337 9.99999 18.3337ZM9.99999 17.3337C11.9449 17.3337 13.8102 16.561 15.1854 15.1858C16.5607 13.8105 17.3333 11.9452 17.3333 10.0003C17.3333 8.0554 16.5607 6.19014 15.1854 4.81488C13.8102 3.43961 11.9449 2.66699 9.99999 2.66699C8.05507 2.66699 6.18981 3.43961 4.81454 4.81488C3.43927 6.19014 2.66666 8.0554 2.66666 10.0003C2.66666 11.9452 3.43927 13.8105 4.81454 15.1858C6.18981 16.561 8.05507 17.3337 9.99999 17.3337ZM7.49999 8.08949C7.56416 6.83366 8.40082 5.83366 10.035 5.83366C11.5 5.83366 12.5 6.74032 12.5 7.93866C12.5 8.85116 12.0292 9.49699 11.285 9.94449C10.5467 10.3803 10.3375 10.7062 10.3375 11.3162V11.6945H9.31999V11.1595C9.31416 10.392 9.68666 9.86782 10.4825 9.39199C11.1575 8.97866 11.4183 8.61282 11.4183 7.99032C11.4183 7.26949 10.86 6.74032 9.99415 6.74032C9.11666 6.74032 8.55832 7.25782 8.49416 8.08949H7.49999ZM9.83166 14.3453C9.74431 14.3464 9.65762 14.3301 9.57669 14.2972C9.49576 14.2643 9.42222 14.2156 9.36041 14.1538C9.29861 14.0921 9.24977 14.0186 9.21678 13.9377C9.18379 13.8568 9.16731 13.7702 9.16832 13.6828C9.16832 13.3045 9.45999 13.0195 9.83166 13.0195C10.2092 13.0195 10.4942 13.3045 10.4942 13.6828C10.4959 13.7703 10.4799 13.8572 10.4472 13.9383C10.4145 14.0195 10.3658 14.0932 10.3039 14.1551C10.242 14.2169 10.1683 14.2657 10.0872 14.2984C10.006 14.331 9.91912 14.347 9.83166 14.3453Z" fill="#B1B1B1"/>
</svg>
