<svg width="70" height="70" viewBox="0 0 70 70" fill="none" xmlns="http://www.w3.org/2000/svg">
<g id="car (2) 1" clip-path="url(#clip0_214_6247)">
<g id="Layer 31">
<path id="Vector" d="M10.7702 30.0978L12.3014 27.428C14.2142 24.0807 16.9776 21.2984 20.3118 19.3628C23.646 17.4273 27.4325 16.4074 31.2878 16.4062H34.3372C38.1934 16.4064 41.981 17.4259 45.3163 19.3615C48.6515 21.297 51.4158 24.0799 53.3291 27.428L54.7509 29.9152C55.0729 30.4787 55.5162 30.9635 56.0488 31.3344C56.5813 31.7054 57.1897 31.9532 57.8298 32.06L61.5945 32.6878C63.6376 33.0283 65.4937 34.0825 66.8325 35.6629C68.1714 37.2432 68.9062 39.2473 68.9062 41.3186V44.8438C68.9062 46.0041 68.4453 47.1169 67.6248 47.9373C66.8044 48.7578 65.6916 49.2188 64.5312 49.2188H5.46875C4.30843 49.2188 3.19563 48.7578 2.37516 47.9373C1.55469 47.1169 1.09375 46.0041 1.09375 44.8438V37.322C1.0939 36.3464 1.42013 35.3989 2.0206 34.6299C2.62108 33.861 3.46133 33.3149 4.40781 33.0783L8.0325 32.1716C8.60511 32.0284 9.14284 31.7709 9.61332 31.4146C10.0838 31.0582 10.4773 30.6103 10.7702 30.0978Z" fill="white"/>
<path id="Vector_2" d="M67.8125 45.9375H16.2717C13.1165 45.9375 10.0905 44.6841 7.85947 42.453C5.6284 40.222 4.375 37.196 4.375 34.0408C4.37949 33.7089 4.42206 33.3786 4.50188 33.0564L4.40781 33.0794C3.46169 33.3159 2.62171 33.8617 2.02128 34.6302C1.42084 35.3986 1.09439 36.3457 1.09375 37.3209V44.8437C1.09375 46.0041 1.55469 47.1169 2.37516 47.9373C3.19563 48.7578 4.30843 49.2187 5.46875 49.2187H64.5312C65.5206 49.2169 66.4802 48.8798 67.2533 48.2624C68.0265 47.6451 68.5675 46.7838 68.7881 45.8194C68.4684 45.8955 68.1411 45.9351 67.8125 45.9375Z" fill="white"/>
<path id="Vector_3" d="M1.09375 37.3187V40.4688H4.375L5.46875 36.0938H1.26875C1.1548 36.4922 1.09592 36.9043 1.09375 37.3187Z" fill="#A7D0E1"/>
<path id="Vector_4" d="M5.02141 37.8831C4.82218 37.2996 4.66931 36.7013 4.56422 36.0938H1.28297C1.25234 36.1966 1.225 36.3005 1.20203 36.4055C1.18453 36.4842 1.16375 36.563 1.15063 36.6428C1.11454 36.8671 1.09553 37.0938 1.09375 37.3209V40.4688H4.375L5.02141 37.8831Z" fill="#80BBCE"/>
<path id="Vector_5" d="M62.3438 36.0938C62.343 36.6685 62.4557 37.2377 62.6753 37.7688C62.8949 38.3 63.2172 38.7825 63.6236 39.1889C64.03 39.5953 64.5125 39.9176 65.0437 40.1372C65.5748 40.3568 66.144 40.4695 66.7188 40.4688H68.8625C68.7142 38.8795 68.1231 37.3638 67.1563 36.0938H62.3438Z" fill="#A7D0E1"/>
<path id="Vector_6" d="M57.9686 48.1249C57.9739 47.2137 57.7893 46.3113 57.4267 45.4753C57.064 44.6393 56.5312 43.8879 55.8622 43.2692C55.1932 42.6504 54.4027 42.1778 53.541 41.8813C52.6793 41.5849 51.7653 41.4712 50.8572 41.5474C49.9491 41.6237 49.0668 41.8882 48.2666 42.3242C47.4664 42.7602 46.7657 43.358 46.2093 44.0797C45.6528 44.8013 45.2528 45.631 45.0346 46.5158C44.8164 47.4005 44.7849 48.321 44.9421 49.2187H57.8702C57.9335 48.8575 57.9664 48.4916 57.9686 48.1249Z" fill="white"/>
<path id="Vector_7" d="M53.5938 53.5938C57.2181 53.5938 60.1562 50.6556 60.1562 47.0312C60.1562 43.4069 57.2181 40.4688 53.5938 40.4688C49.9694 40.4688 47.0312 43.4069 47.0312 47.0312C47.0312 50.6556 49.9694 53.5938 53.5938 53.5938Z" fill="#7A838B"/>
<path id="Vector_8" d="M53.5938 49.2188C54.8019 49.2188 55.7812 48.2394 55.7812 47.0312C55.7812 45.8231 54.8019 44.8438 53.5938 44.8438C52.3856 44.8438 51.4062 45.8231 51.4062 47.0312C51.4062 48.2394 52.3856 49.2188 53.5938 49.2188Z" fill="#A7D0E1"/>
<path id="Vector_9" d="M16.4062 53.5938C20.0306 53.5938 22.9688 50.6556 22.9688 47.0312C22.9688 43.4069 20.0306 40.4688 16.4062 40.4688C12.7819 40.4688 9.84375 43.4069 9.84375 47.0312C9.84375 50.6556 12.7819 53.5938 16.4062 53.5938Z" fill="#7A838B"/>
<path id="Vector_10" d="M19.6875 50.3124C18.5908 50.3137 17.5113 50.0398 16.5479 49.5158C15.5844 48.9918 14.7679 48.2344 14.173 47.313C13.5781 46.3916 13.224 45.3357 13.1429 44.242C13.0618 43.1483 13.2565 42.0517 13.7091 41.0527C12.7396 41.4883 11.8905 42.1528 11.2347 42.9891C10.5788 43.8254 10.1359 44.8085 9.94405 45.8538C9.75215 46.8991 9.817 47.9754 10.133 48.9901C10.449 50.0049 11.0068 50.9276 11.7583 51.6791C12.5098 52.4306 13.4326 52.9884 14.4473 53.3044C15.462 53.6204 16.5383 53.6853 17.5836 53.4934C18.6289 53.3015 19.612 52.8586 20.4483 52.2028C21.2846 51.5469 21.9491 50.6978 22.3847 49.7284C21.5375 50.1129 20.6179 50.312 19.6875 50.3124Z" fill="#5D6972"/>
<path id="Vector_11" d="M56.875 50.3124C55.7783 50.3137 54.6988 50.0398 53.7354 49.5158C52.7719 48.9918 51.9554 48.2344 51.3605 47.313C50.7656 46.3916 50.4115 45.3357 50.3304 44.242C50.2493 43.1483 50.444 42.0517 50.8966 41.0527C49.9271 41.4883 49.078 42.1528 48.4222 42.9891C47.7664 43.8254 47.3234 44.8085 47.1315 45.8538C46.9396 46.8991 47.0045 47.9754 47.3205 48.9901C47.6365 50.0049 48.1943 50.9276 48.9458 51.6791C49.6973 52.4306 50.6201 52.9884 51.6348 53.3044C52.6495 53.6204 53.7258 53.6853 54.7711 53.4934C55.8164 53.3015 56.7995 52.8586 57.6358 52.2028C58.4721 51.5469 59.1366 50.6978 59.5722 49.7284C58.725 50.1129 57.8054 50.312 56.875 50.3124Z" fill="#5D6972"/>
<path id="Vector_12" d="M16.4062 49.2188C17.6144 49.2188 18.5938 48.2394 18.5938 47.0312C18.5938 45.8231 17.6144 44.8438 16.4062 44.8438C15.1981 44.8438 14.2188 45.8231 14.2188 47.0312C14.2188 48.2394 15.1981 49.2188 16.4062 49.2188Z" fill="#A7D0E1"/>
<path id="Vector_13" d="M30.0562 19.6875H30.625V30.625H15.3125L15.8375 29.3125C16.9753 26.4716 18.9377 24.0365 21.4719 22.3211C24.0061 20.6056 26.996 19.6883 30.0562 19.6875Z" fill="#A7D0E1"/>
<path id="Vector_14" d="M19.6875 27.3438L20.2125 26.0313C20.9115 24.2897 21.9248 22.6914 23.2017 21.3162C19.852 22.9917 17.2322 25.8365 15.8375 29.3126L15.3125 30.6251H30.625V27.3438H19.6875Z" fill="#80BBCE"/>
<path id="Vector_15" d="M50.3125 30.625H35V19.6875H35.5688C38.629 19.6883 41.6189 20.6056 44.1531 22.3211C46.6873 24.0365 48.6497 26.4716 49.7875 29.3125L50.3125 30.625Z" fill="#A7D0E1"/>
<path id="Vector_16" d="M42.6563 25.0336C42.4476 25.034 42.2432 24.9739 42.0678 24.8608C41.7397 24.6541 41.4116 24.4605 41.0649 24.2855C40.8065 24.1535 40.6112 23.9243 40.5219 23.6483C40.4326 23.3724 40.4565 23.0722 40.5885 22.8139C40.7205 22.5556 40.9497 22.3603 41.2257 22.2709C41.5017 22.1816 41.8019 22.2056 42.0602 22.3375C42.467 22.5454 42.8623 22.7721 43.2458 23.0179C43.4453 23.1452 43.5982 23.3338 43.6814 23.5555C43.7646 23.7771 43.7737 24.0197 43.7072 24.2469C43.6408 24.4741 43.5024 24.6736 43.3129 24.8155C43.1234 24.9574 42.893 25.0339 42.6563 25.0336Z" fill="white"/>
<path id="Vector_17" d="M48.825 27.3438H42.6562C41.4959 27.3438 40.3831 26.8828 39.5627 26.0623C38.7422 25.2419 38.2812 24.1291 38.2812 22.9688V19.9391C37.3864 19.7746 36.4786 19.6904 35.5688 19.6875H35V30.625H50.3125L49.7875 29.3125C49.5138 28.6342 49.1922 27.9763 48.825 27.3438Z" fill="#80BBCE"/>
<path id="Vector_18" d="M61.775 31.6094L58.0092 30.9827C57.5289 30.9033 57.0723 30.7176 56.6729 30.4393C56.2734 30.1609 55.9411 29.7969 55.7003 29.3738L54.2784 26.8866C52.266 23.3741 49.3628 20.4545 45.8616 18.4224C42.3605 16.3903 38.3853 15.3176 34.3372 15.3125H31.2878C27.2398 15.3175 23.2647 16.3901 19.7636 18.4219C16.2624 20.4538 13.3591 23.3732 11.3466 26.8855L9.81531 29.5553C9.59529 29.9387 9.30046 30.2739 8.94836 30.541C8.59625 30.8082 8.19405 31.0019 7.76562 31.1106L4.14094 32.0162C3.23846 32.2422 2.40879 32.6952 1.73088 33.3324C1.05297 33.9695 0.549361 34.7695 0.267969 35.6562C0.255938 35.6847 0.254844 35.7186 0.245 35.7481C0.086649 36.2579 0.00409991 36.7882 0 37.322L0 44.8438C0.00173672 46.2936 0.578465 47.6836 1.60368 48.7088C2.62889 49.734 4.01888 50.3108 5.46875 50.3125H9.49922C10.1178 51.6211 11.0954 52.7271 12.3183 53.5016C13.5411 54.2762 14.9588 54.6874 16.4062 54.6874C17.8537 54.6874 19.2714 54.2762 20.4942 53.5016C21.7171 52.7271 22.6947 51.6211 23.3133 50.3125H46.6867C47.3053 51.6211 48.2829 52.7271 49.5058 53.5016C50.7286 54.2762 52.1463 54.6874 53.5938 54.6874C55.0412 54.6874 56.4589 54.2762 57.6817 53.5016C58.9046 52.7271 59.8822 51.6211 60.5008 50.3125H64.5312C65.9811 50.3108 67.3711 49.734 68.3963 48.7088C69.4215 47.6836 69.9983 46.2936 70 44.8438V41.3186C70.0058 38.987 69.1813 36.7295 67.6742 34.9504C66.1671 33.1713 64.0759 31.9869 61.775 31.6094ZM66.6028 37.1875C67.0354 37.8618 67.3591 38.6 67.562 39.375H66.7188C65.8511 39.3748 65.0185 39.032 64.4022 38.4212C64.0557 38.0721 63.7906 37.6509 63.6256 37.1875H66.6028ZM2.19844 37.1875H4.06766L3.52078 39.375H2.1875V37.322C2.1875 37.2761 2.19734 37.2323 2.19844 37.1875ZM16.4062 52.5C15.3246 52.5 14.2673 52.1793 13.368 51.5784C12.4686 50.9774 11.7677 50.1233 11.3538 49.1241C10.9399 48.1248 10.8316 47.0252 11.0426 45.9643C11.2536 44.9035 11.7744 43.9291 12.5393 43.1643C13.3041 42.3994 14.2785 41.8786 15.3393 41.6676C16.4002 41.4566 17.4998 41.5649 18.4991 41.9788C19.4983 42.3927 20.3524 43.0936 20.9534 43.993C21.5543 44.8923 21.875 45.9496 21.875 47.0312C21.8733 48.4811 21.2965 49.8711 20.2713 50.8963C19.2461 51.9215 17.8561 52.4983 16.4062 52.5ZM53.5938 52.5C52.5121 52.5 51.4548 52.1793 50.5555 51.5784C49.6561 50.9774 48.9552 50.1233 48.5413 49.1241C48.1274 48.1248 48.0191 47.0252 48.2301 45.9643C48.4411 44.9035 48.9619 43.9291 49.7268 43.1643C50.4916 42.3994 51.466 41.8786 52.5268 41.6676C53.5877 41.4566 54.6873 41.5649 55.6866 41.9788C56.6858 42.3927 57.5399 43.0936 58.1409 43.993C58.7418 44.8923 59.0625 45.9496 59.0625 47.0312C59.0608 48.4811 58.484 49.8711 57.4588 50.8963C56.4336 51.9215 55.0436 52.4983 53.5938 52.5ZM64.5312 48.125H61.1625C61.3288 47.0346 61.2575 45.9211 60.9535 44.8608C60.6495 43.8005 60.12 42.8184 59.4013 41.9817C58.6825 41.1451 57.7915 40.4736 56.7891 40.0132C55.7868 39.5529 54.6968 39.3145 53.5938 39.3145C52.4907 39.3145 51.4007 39.5529 50.3984 40.0132C49.396 40.4736 48.505 41.1451 47.7862 41.9817C47.0675 42.8184 46.538 43.8005 46.234 44.8608C45.93 45.9211 45.8587 47.0346 46.025 48.125H23.975C24.1413 47.0346 24.07 45.9211 23.766 44.8608C23.462 43.8005 22.9326 42.8184 22.2138 41.9817C21.495 41.1451 20.604 40.4736 19.6016 40.0132C18.5993 39.5529 17.5093 39.3145 16.4062 39.3145C15.3032 39.3145 14.2132 39.5529 13.2109 40.0132C12.2085 40.4736 11.3175 41.1451 10.5987 41.9817C9.87995 42.8184 9.35046 43.8005 9.04648 44.8608C8.7425 45.9211 8.67122 47.0346 8.8375 48.125H5.46875C4.59851 48.125 3.76391 47.7793 3.14856 47.1639C2.5332 46.5486 2.1875 45.714 2.1875 44.8438V41.5625H4.375C4.61883 41.5625 4.85566 41.481 5.04788 41.331C5.2401 41.181 5.37669 40.9711 5.43594 40.7345L6.52969 36.3595C6.57009 36.1983 6.57319 36.0299 6.53876 35.8672C6.50433 35.7046 6.43327 35.5519 6.33099 35.4209C6.22871 35.2898 6.09789 35.1838 5.94848 35.1108C5.79907 35.0379 5.63501 35 5.46875 35H3.15984C3.57682 34.5814 4.09964 34.2839 4.6725 34.1392L8.29828 33.2325C9.01326 33.052 9.68461 32.7295 10.2724 32.2841C10.8601 31.8388 11.3523 31.2798 11.7195 30.6403L13.2453 27.9705C15.0664 24.7928 17.6933 22.1515 20.861 20.3132C24.0288 18.4749 27.6253 17.5045 31.2878 17.5H34.3372C38.0004 17.5038 41.5979 18.4738 44.7665 20.3121C47.935 22.1505 50.5626 24.7921 52.3841 27.9705L53.8059 30.4577C54.2065 31.1628 54.7594 31.7695 55.4243 32.2337C56.0892 32.6979 56.8494 33.0077 57.6494 33.1406L61.4152 33.7684C62.5163 33.9506 63.5644 34.3709 64.4864 35H62.3438C62.0537 35 61.7755 35.1152 61.5704 35.3204C61.3652 35.5255 61.25 35.8037 61.25 36.0938C61.2493 36.8121 61.3902 37.5236 61.6648 38.1874C61.9394 38.8512 62.3422 39.4544 62.8502 39.9623C63.3581 40.4703 63.9613 40.8731 64.6251 41.1477C65.2889 41.4223 66.0004 41.5632 66.7188 41.5625H67.8125V44.8438C67.8125 45.714 67.4668 46.5486 66.8514 47.1639C66.2361 47.7793 65.4015 48.125 64.5312 48.125Z" fill="#1B6D24"/>
<path id="Vector_19" d="M37.1875 32.8125H35C34.7099 32.8125 34.4317 32.9277 34.2266 33.1329C34.0215 33.338 33.9062 33.6162 33.9062 33.9062C33.9062 34.1963 34.0215 34.4745 34.2266 34.6796C34.4317 34.8848 34.7099 35 35 35H37.1875C37.4776 35 37.7558 34.8848 37.9609 34.6796C38.166 34.4745 38.2812 34.1963 38.2812 33.9062C38.2812 33.6162 38.166 33.338 37.9609 33.1329C37.7558 32.9277 37.4776 32.8125 37.1875 32.8125Z" fill="#1B6D24"/>
<path id="Vector_20" d="M16.4062 32.8125H14.2188C13.9287 32.8125 13.6505 32.9277 13.4454 33.1329C13.2402 33.338 13.125 33.6162 13.125 33.9062C13.125 34.1963 13.2402 34.4745 13.4454 34.6796C13.6505 34.8848 13.9287 35 14.2188 35H16.4062C16.6963 35 16.9745 34.8848 17.1796 34.6796C17.3848 34.4745 17.5 34.1963 17.5 33.9062C17.5 33.6162 17.3848 33.338 17.1796 33.1329C16.9745 32.9277 16.6963 32.8125 16.4062 32.8125Z" fill="#1B6D24"/>
<path id="Vector_21" d="M53.5938 43.75C52.9448 43.75 52.3104 43.9424 51.7708 44.303C51.2312 44.6635 50.8106 45.176 50.5623 45.7756C50.3139 46.3751 50.2489 47.0349 50.3755 47.6714C50.5022 48.3079 50.8147 48.8926 51.2736 49.3514C51.7324 49.8103 52.3171 50.1228 52.9536 50.2495C53.5901 50.3761 54.2499 50.3111 54.8494 50.0627C55.449 49.8144 55.9615 49.3938 56.322 48.8542C56.6826 48.3146 56.875 47.6802 56.875 47.0312C56.875 46.161 56.5293 45.3264 55.9139 44.7111C55.2986 44.0957 54.464 43.75 53.5938 43.75ZM53.5938 48.125C53.3774 48.125 53.166 48.0609 52.9861 47.9407C52.8062 47.8205 52.666 47.6497 52.5833 47.4498C52.5005 47.25 52.4788 47.03 52.521 46.8179C52.5632 46.6057 52.6674 46.4108 52.8204 46.2579C52.9733 46.1049 53.1682 46.0007 53.3804 45.9585C53.5925 45.9163 53.8125 45.938 54.0123 46.0208C54.2122 46.1035 54.383 46.2437 54.5032 46.4236C54.6234 46.6035 54.6875 46.8149 54.6875 47.0312C54.6875 47.3213 54.5723 47.5995 54.3672 47.8046C54.162 48.0098 53.8838 48.125 53.5938 48.125Z" fill="#1B6D24"/>
<path id="Vector_22" d="M16.4063 43.75C15.7573 43.75 15.1229 43.9424 14.5833 44.303C14.0437 44.6635 13.6231 45.176 13.3748 45.7756C13.1264 46.3751 13.0614 47.0349 13.188 47.6714C13.3147 48.3079 13.6272 48.8926 14.0861 49.3514C14.5449 49.8103 15.1296 50.1228 15.7661 50.2495C16.4026 50.3761 17.0624 50.3111 17.6619 50.0627C18.2615 49.8144 18.774 49.3938 19.1345 48.8542C19.4951 48.3146 19.6875 47.6802 19.6875 47.0312C19.6875 46.161 19.3418 45.3264 18.7264 44.7111C18.1111 44.0957 17.2765 43.75 16.4063 43.75ZM16.4063 48.125C16.1899 48.125 15.9785 48.0609 15.7986 47.9407C15.6187 47.8205 15.4785 47.6497 15.3958 47.4498C15.313 47.25 15.2913 47.03 15.3335 46.8179C15.3757 46.6057 15.4799 46.4108 15.6329 46.2579C15.7858 46.1049 15.9807 46.0007 16.1929 45.9585C16.405 45.9163 16.625 45.938 16.8248 46.0208C17.0247 46.1035 17.1955 46.2437 17.3157 46.4236C17.4359 46.6035 17.5 46.8149 17.5 47.0312C17.5 47.3213 17.3848 47.5995 17.1796 47.8046C16.9745 48.0098 16.6963 48.125 16.4063 48.125Z" fill="#1B6D24"/>
<path id="Vector_23" d="M30.6249 18.5938H30.0562C26.775 18.5849 23.5671 19.5638 20.8499 21.4032C18.1327 23.2425 16.0321 25.8571 14.8213 28.9068L14.2963 30.2193C14.23 30.3853 14.2054 30.565 14.2246 30.7427C14.2438 30.9204 14.3063 31.0906 14.4066 31.2386C14.5068 31.3866 14.6418 31.5077 14.7997 31.5914C14.9577 31.6751 15.1337 31.7189 15.3124 31.7188H30.6249C30.915 31.7188 31.1932 31.6036 31.3983 31.3985C31.6034 31.1933 31.7187 30.9151 31.7187 30.6251V19.6876C31.7187 19.3975 31.6034 19.1193 31.3983 18.9142C31.1932 18.709 30.915 18.5938 30.6249 18.5938ZM29.5312 29.5313H16.9301C17.969 27.018 19.7099 24.8571 21.9446 23.3071C24.1793 21.7572 26.8131 20.8837 29.5312 20.7912V29.5313Z" fill="#1B6D24"/>
<path id="Vector_24" d="M50.8025 28.9056C49.8942 26.6286 48.4844 24.5856 46.678 22.9283C46.4645 22.7319 46.1817 22.6284 45.8919 22.6405C45.602 22.6526 45.3289 22.7793 45.1325 22.9928C44.9361 23.2063 44.8326 23.4891 44.8447 23.7789C44.8568 24.0687 44.9835 24.3419 45.197 24.5383C46.7129 25.9278 47.9067 27.6319 48.6948 29.5312H36.0938V20.7911C38.2066 20.8704 40.2753 21.4188 42.1498 22.3967C42.2772 22.4632 42.4164 22.504 42.5594 22.5167C42.7025 22.5294 42.8467 22.5138 42.9838 22.4708C43.1208 22.4278 43.2481 22.3582 43.3583 22.266C43.4684 22.1738 43.5594 22.0608 43.6259 21.9335C43.6924 21.8062 43.7331 21.667 43.7458 21.5239C43.7586 21.3808 43.743 21.2366 43.6999 21.0996C43.6569 20.9625 43.5874 20.8353 43.4952 20.7251C43.403 20.6149 43.29 20.524 43.1627 20.4575C40.8179 19.235 38.2131 18.5957 35.5688 18.5938H35C34.7099 18.5938 34.4317 18.709 34.2266 18.9141C34.0215 19.1192 33.9062 19.3974 33.9062 19.6875V30.625C33.9062 30.9151 34.0215 31.1933 34.2266 31.3984C34.4317 31.6035 34.7099 31.7188 35 31.7188H50.3125C50.4912 31.7188 50.6673 31.6751 50.8252 31.5914C50.9831 31.5076 51.1181 31.3865 51.2184 31.2385C51.3186 31.0906 51.3811 30.9203 51.4003 30.7426C51.4195 30.5649 51.3949 30.3852 51.3286 30.2192L50.8025 28.9056Z" fill="#1B6D24"/>
</g>
</g>
<defs>
<clipPath id="clip0_214_6247">
<rect width="70" height="70" fill="white"/>
</clipPath>
</defs>
</svg>
