<svg width="70" height="70" viewBox="0 0 70 70" fill="none" xmlns="http://www.w3.org/2000/svg">
<g id="work-in-progress 1" clip-path="url(#clip0_214_6210)">
<g id="Group">
<g id="Group_2">
<g id="Group_3">
<g id="Group_4">
<path id="Vector" d="M35 0C15.67 0 0 15.67 0 35C0 54.33 15.67 70 35 70C54.33 70 70 54.33 70 35C70 15.67 54.33 0 35 0ZM35 61.5493C20.3607 61.5493 8.45072 49.6393 8.45072 35C8.45072 20.3607 20.3607 8.45072 35 8.45072C49.6393 8.45072 61.5493 20.3607 61.5493 35C61.5493 49.6393 49.6393 61.5493 35 61.5493Z" fill="#EEF5F6"/>
</g>
</g>
</g>
<g id="Group_5">
<path id="Vector_2" d="M35 0V8.45072C49.6393 8.45072 61.5493 20.3607 61.5493 35C61.5493 49.6393 49.6393 61.5493 35 61.5493C20.3607 61.5493 8.45072 49.6393 8.45072 35H0C0 54.33 15.67 70 35 70C54.33 70 70 54.33 70 35C70 15.67 54.33 0 35 0Z" fill="#1B6D24"/>
<g id="Group_6">
<path id="Vector_3" d="M34.9999 0V0.451035C51.6513 3.14562 64.3661 17.5879 64.3661 35C64.3661 53.3817 50.1958 68.4537 32.1831 69.8883C33.1122 69.9623 34.0516 70 34.9999 70C54.3299 70 69.9999 54.33 69.9999 35C69.9999 15.67 54.3299 0 34.9999 0Z" fill="#1B6D24"/>
</g>
</g>
</g>
</g>
<defs>
<clipPath id="clip0_214_6210">
<rect width="70" height="70" fill="white"/>
</clipPath>
</defs>
</svg>
