<svg width="70" height="70" viewBox="0 0 70 70" fill="none" xmlns="http://www.w3.org/2000/svg">
<g id="money 1">
<g id="Layer 1">
<path id="Vector" d="M25.3782 52.9523L41.1672 9.5723C41.3329 9.11714 41.6726 8.74643 42.1116 8.54172C42.5506 8.33702 43.0529 8.31508 43.5081 8.48074L67.1785 17.0961C67.6336 17.2618 68.0043 17.6014 68.209 18.0404C68.4137 18.4794 68.4357 18.9817 68.27 19.4368L52.4809 62.8169C52.3989 63.0422 52.2733 63.2492 52.1113 63.4261C51.9493 63.6029 51.754 63.7461 51.5366 63.8474C51.3193 63.9488 51.0841 64.0064 50.8445 64.0168C50.6049 64.0273 50.3656 63.9905 50.1402 63.9084L26.4698 55.2931C26.2444 55.2111 26.0374 55.0855 25.8606 54.9235C25.6837 54.7615 25.5405 54.5662 25.4392 54.3488C25.3378 54.1315 25.2803 53.8963 25.2698 53.6566C25.2593 53.417 25.2962 53.1777 25.3782 52.9523Z" fill="white"/>
<path id="Vector_2" d="M39.8303 13.2456L41.2541 9.33408C41.3247 9.14002 41.4329 8.96177 41.5724 8.80953C41.712 8.65728 41.8801 8.53401 42.0673 8.44677C42.2545 8.35952 42.457 8.31 42.6633 8.30104C42.8697 8.29208 43.0757 8.32385 43.2698 8.39455L67.4169 17.1828C67.611 17.2534 67.7893 17.3616 67.9416 17.5011C68.0939 17.6406 68.2172 17.8088 68.3045 17.996C68.3918 18.1832 68.4413 18.3857 68.4503 18.5921C68.4593 18.7984 68.4275 19.0045 68.3568 19.1986L66.9332 23.1103C67.0039 22.9162 67.0356 22.7101 67.0267 22.5037C67.0177 22.2974 66.9681 22.0948 66.8809 21.9076C66.7936 21.7204 66.6702 21.5523 66.5179 21.4127C66.3656 21.2732 66.1873 21.1651 65.9932 21.0945L41.8461 12.3057C41.652 12.235 41.4459 12.2032 41.2396 12.2122C41.0332 12.2211 40.8307 12.2707 40.6435 12.358C40.4563 12.4453 40.2881 12.5686 40.1486 12.7209C40.0091 12.8732 39.9009 13.0515 39.8303 13.2456Z" fill="white"/>
<path id="Vector_3" d="M30.4033 48.7888L42.3573 15.9451C42.8778 16.1987 43.4457 16.3402 44.0244 16.3603C44.603 16.3804 45.1794 16.2787 45.7162 16.0618C46.253 15.8449 46.7383 15.5177 47.1405 15.1013C47.5428 14.6848 47.8531 14.1885 48.0512 13.6445L60.7847 18.2793C60.4099 19.3092 60.4595 20.4458 60.9227 21.439C61.3859 22.4323 62.2247 23.2009 63.2545 23.5758L51.2987 56.4238C50.7888 56.2382 50.2473 56.1548 49.7051 56.1785C49.163 56.2022 48.6308 56.3324 48.1389 56.5617C47.6471 56.7911 47.2053 57.1151 46.8387 57.5152C46.472 57.9153 46.1878 58.3837 46.0022 58.8937L32.8893 54.1209C33.0762 53.6076 33.1602 53.0625 33.1364 52.5167C33.1127 51.9709 32.9816 51.4351 32.7508 50.9399C32.5199 50.4448 32.1938 50 31.791 49.6309C31.3882 49.2618 30.9167 48.9756 30.4033 48.7888Z" fill="white"/>
<path id="Vector_4" d="M38.751 36.1036C38.751 34.501 39.2262 32.9344 40.1166 31.6019C41.007 30.2693 42.2725 29.2308 43.7531 28.6175C45.2338 28.0042 46.863 27.8438 48.4348 28.1565C50.0067 28.4691 51.4505 29.2409 52.5837 30.3742C53.7168 31.5074 54.4885 32.9513 54.8012 34.5231C55.1138 36.0949 54.9532 37.7242 54.3399 39.2048C53.7265 40.6854 52.6879 41.9509 51.3553 42.8412C50.0228 43.7315 48.4561 44.2066 46.8535 44.2066C44.7053 44.2041 42.6457 43.3496 41.1268 41.8305C39.6078 40.3114 38.7534 38.2519 38.751 36.1036Z" fill="white"/>
<path id="Vector_5" d="M20.127 51.4452V5.28112C20.1269 5.04129 20.1742 4.8038 20.2659 4.58221C20.3577 4.36063 20.4922 4.15929 20.6618 3.9897C20.8314 3.82011 21.0327 3.68559 21.2543 3.59382C21.4759 3.50204 21.7134 3.45482 21.9532 3.45483H47.1427C47.3826 3.45482 47.62 3.50204 47.8416 3.59382C48.0632 3.68559 48.2645 3.82011 48.4341 3.9897C48.6037 4.15929 48.7383 4.36063 48.83 4.58221C48.9218 4.8038 48.969 5.04129 48.969 5.28112V51.4452C48.969 51.685 48.9218 51.9225 48.83 52.1441C48.7383 52.3657 48.6037 52.567 48.4341 52.7366C48.2645 52.9062 48.0632 53.0407 47.8416 53.1325C47.62 53.2243 47.3826 53.2715 47.1427 53.2715H21.9532C21.7134 53.2715 21.4759 53.2243 21.2543 53.1325C21.0327 53.0407 20.8314 52.9062 20.6618 52.7366C20.4922 52.567 20.3577 52.3657 20.2659 52.1441C20.1742 51.9225 20.1269 51.685 20.127 51.4452Z" fill="white"/>
<path id="Vector_6" d="M20.127 9.19002V5.02734C20.127 4.61035 20.2926 4.21044 20.5875 3.91558C20.8823 3.62073 21.2822 3.45508 21.6992 3.45508H47.3963C47.8133 3.45508 48.2132 3.62073 48.5081 3.91558C48.8029 4.21044 48.9686 4.61035 48.9686 5.02734V9.19002C48.9686 8.77303 48.8029 8.37312 48.5081 8.07826C48.2132 7.7834 47.8133 7.61775 47.3963 7.61775H21.6996C21.4931 7.6177 21.2886 7.65833 21.0978 7.73732C20.907 7.81631 20.7336 7.93211 20.5876 8.07811C20.4416 8.22412 20.3257 8.39746 20.2467 8.58824C20.1676 8.77903 20.127 8.98351 20.127 9.19002Z" fill="white"/>
<path id="Vector_7" d="M23.4246 45.8145V10.8626C24.0004 10.9228 24.5825 10.8614 25.1331 10.6823C25.6837 10.5032 26.1905 10.2105 26.6208 9.82299C27.051 9.43553 27.395 8.962 27.6306 8.43309C27.8661 7.90417 27.9879 7.33168 27.9881 6.75269H41.5387C41.5387 7.84865 41.9741 8.89972 42.749 9.67468C43.524 10.4496 44.5751 10.885 45.671 10.885V45.8418C44.5751 45.8418 43.524 46.2772 42.749 47.0521C41.9741 47.8271 41.5387 48.8782 41.5387 49.9741H27.5842C27.5842 48.8709 27.146 47.8129 26.3659 47.0328C25.5858 46.2527 24.5278 45.8145 23.4246 45.8145Z" fill="white"/>
<path id="Vector_8" d="M26.4451 28.3629C26.4451 26.7603 26.9203 25.1937 27.8107 23.8612C28.701 22.5287 29.9665 21.4901 31.4472 20.8768C32.9278 20.2635 34.557 20.1031 36.1288 20.4157C37.7006 20.7284 39.1444 21.5001 40.2776 22.6334C41.4109 23.7666 42.1826 25.2104 42.4952 26.7822C42.8078 28.354 42.6474 29.9833 42.0341 31.4639C41.4207 32.9445 40.3822 34.21 39.0496 35.1003C37.7171 35.9907 36.1505 36.4659 34.5478 36.4658C32.3996 36.4634 30.34 35.609 28.8209 34.0899C27.3019 32.5708 26.4474 30.5112 26.4451 28.3629Z" fill="white"/>
<path id="Vector_9" d="M17.5191 62.7618L1.73 19.3817C1.64798 19.1563 1.61115 18.917 1.62161 18.6774C1.63208 18.4378 1.68963 18.2026 1.791 17.9853C1.89236 17.7679 2.03554 17.5726 2.21236 17.4106C2.38919 17.2486 2.59619 17.123 2.82156 17.0409L26.492 8.42562C26.7173 8.34357 26.9566 8.30672 27.1963 8.31716C27.4359 8.32761 27.6711 8.38515 27.8885 8.4865C28.1058 8.58785 28.3011 8.73102 28.4632 8.90784C28.6252 9.08466 28.7508 9.29167 28.8329 9.51704L44.6218 52.8971C44.7039 53.1225 44.7407 53.3618 44.7303 53.6014C44.7198 53.841 44.6623 54.0762 44.5609 54.2936C44.4595 54.511 44.3163 54.7063 44.1395 54.8683C43.9627 55.0303 43.7556 55.156 43.5303 55.238L19.8599 63.8533C19.4047 64.0189 18.9024 63.997 18.4634 63.7923C18.0245 63.5876 17.6848 63.2169 17.5191 62.7618Z" fill="white"/>
<path id="Vector_10" d="M3.06697 23.0551L1.64332 19.1434C1.57262 18.9494 1.54085 18.7433 1.54983 18.5369C1.5588 18.3306 1.60835 18.128 1.69564 17.9408C1.78293 17.7536 1.90625 17.5854 2.05855 17.4459C2.21085 17.3064 2.38915 17.1983 2.58326 17.1277L26.7304 8.33883C26.9245 8.26815 27.1305 8.2364 27.3369 8.24539C27.5432 8.25437 27.7458 8.30393 27.9329 8.39121C28.1201 8.4785 28.2883 8.60181 28.4278 8.7541C28.5673 8.90639 28.6754 9.08468 28.746 9.27877L30.1698 13.1904C30.0993 12.9963 29.9912 12.8179 29.8517 12.6656C29.7122 12.5132 29.544 12.3898 29.3568 12.3025C29.1696 12.2151 28.967 12.1655 28.7607 12.1565C28.5543 12.1475 28.3481 12.1793 28.154 12.2499L4.00691 21.0393C3.8128 21.1099 3.6345 21.2181 3.4822 21.3576C3.3299 21.4971 3.20658 21.6653 3.11929 21.8525C3.032 22.0397 2.98246 22.2422 2.97348 22.4486C2.9645 22.6549 2.99627 22.861 3.06697 23.0551Z" fill="white"/>
<path id="Vector_11" d="M18.6922 56.3416L6.73804 23.4985C7.29978 23.3582 7.82578 23.1014 8.28194 22.7448C8.7381 22.3882 9.11426 21.9398 9.38602 21.4285C9.65779 20.9173 9.8191 20.3546 9.85952 19.777C9.89993 19.1994 9.81854 18.6198 9.62061 18.0757L22.3541 13.4409C22.7289 14.4708 23.4975 15.3096 24.4908 15.7727C25.4841 16.2359 26.6207 16.2856 27.6505 15.9107L39.6063 48.7589C39.0964 48.9445 38.628 49.2287 38.2278 49.5953C37.8277 49.962 37.5037 50.4038 37.2744 50.8956C37.0451 51.3875 36.9148 51.9196 36.8912 52.4618C36.8675 53.004 36.9509 53.5455 37.1365 54.0554L24.0235 58.8281C23.8367 58.3148 23.5507 57.8433 23.1817 57.4405C22.8127 57.0377 22.3679 56.7116 21.8729 56.4807C21.3778 56.2498 20.8421 56.1186 20.2963 56.0948C19.7506 56.0709 19.2055 56.1548 18.6922 56.3416Z" fill="white"/>
<path id="Vector_12" d="M15.5617 38.9107C15.0135 37.4047 14.9243 35.7701 15.3052 34.2134C15.6861 32.6567 16.5201 31.2479 17.7016 30.1652C18.8832 29.0825 20.3593 28.3745 21.9432 28.1307C23.5272 27.8869 25.1479 28.1183 26.6003 28.7956C28.0528 29.4728 29.2718 30.5656 30.1032 31.9357C30.9346 33.3058 31.341 34.8917 31.2711 36.4927C31.2012 38.0938 30.6581 39.6382 29.7104 40.9306C28.7628 42.223 27.4532 43.2054 25.9472 43.7535C23.9277 44.486 21.7001 44.3875 19.7531 43.4796C17.8061 42.5717 16.2987 40.9286 15.5617 38.9107Z" fill="white"/>
<path id="Vector_13" d="M52.2386 56.3115V59.3248C52.2386 59.6379 52.1143 59.9382 51.8929 60.1596C51.6715 60.381 51.3712 60.5054 51.0581 60.5054C51.2131 60.5054 51.3666 60.5359 51.5099 60.5953C51.6531 60.6546 51.7833 60.7416 51.8929 60.8512C52.0025 60.9609 52.0895 61.091 52.1488 61.2343C52.2081 61.3775 52.2387 61.531 52.2386 61.6861V64.6992C52.2387 64.8543 52.2081 65.0078 52.1488 65.1511C52.0895 65.2943 52.0025 65.4245 51.8929 65.5341C51.7833 65.6438 51.6531 65.7307 51.5099 65.7901C51.3666 65.8494 51.2131 65.8799 51.0581 65.8799H24.7962C24.483 65.8799 24.1827 65.7555 23.9613 65.5341C23.7399 65.3127 23.6155 65.0124 23.6155 64.6992V61.6861C23.6155 61.373 23.7399 61.0726 23.9613 60.8512C24.1827 60.6298 24.483 60.5054 24.7962 60.5054C24.4831 60.5054 24.1828 60.381 23.9613 60.1596C23.7399 59.9382 23.6155 59.6379 23.6155 59.3248V56.3115C23.6155 55.9984 23.7399 55.6981 23.9613 55.4767C24.1828 55.2553 24.4831 55.1309 24.7962 55.1308H51.0581C51.3712 55.1309 51.6715 55.2553 51.8929 55.4767C52.1143 55.6981 52.2386 55.9984 52.2386 56.3115ZM51.0581 49.7564H24.7962C24.4831 49.7564 24.1828 49.8808 23.9613 50.1022C23.7399 50.3236 23.6155 50.6239 23.6155 50.937V53.9503C23.6155 54.2634 23.7399 54.5637 23.9613 54.7851C24.1828 55.0065 24.4831 55.1308 24.7962 55.1308H51.0581C51.3712 55.1308 51.6715 55.0065 51.8929 54.7851C52.1143 54.5637 52.2386 54.2634 52.2386 53.9503V50.937C52.2386 50.6239 52.1143 50.3236 51.8929 50.1022C51.6715 49.8808 51.3712 49.7564 51.0581 49.7564ZM52.2386 43.2012V40.1879C52.2386 39.8748 52.1143 39.5745 51.8929 39.3531C51.6715 39.1317 51.3712 39.0073 51.0581 39.0073H24.7962C24.4831 39.0073 24.1828 39.1317 23.9613 39.3531C23.7399 39.5745 23.6155 39.8748 23.6155 40.1879V43.2012C23.6155 43.5143 23.7399 43.8146 23.9613 44.036C24.1828 44.2574 24.4831 44.3818 24.7962 44.3819C24.4831 44.3819 24.1828 44.5062 23.9613 44.7276C23.7399 44.949 23.6155 45.2493 23.6155 45.5624V48.5761C23.6155 48.8892 23.7399 49.1895 23.9613 49.4109C24.1828 49.6323 24.4831 49.7567 24.7962 49.7567H51.0581C51.3712 49.7567 51.6715 49.6323 51.8929 49.4109C52.1143 49.1895 52.2386 48.8892 52.2386 48.5761V45.5629C52.2386 45.2497 52.1143 44.9495 51.8929 44.7281C51.6715 44.5067 51.3712 44.3823 51.0581 44.3823C51.2132 44.3823 51.3667 44.3517 51.51 44.2923C51.6532 44.233 51.7834 44.1459 51.893 44.0363C52.0026 43.9266 52.0896 43.7964 52.1489 43.6531C52.2082 43.5098 52.2387 43.3562 52.2386 43.2012Z" fill="white"/>
<path id="Vector_14" d="M52.2386 62.7674V64.6997C52.2387 64.8547 52.2081 65.0082 52.1488 65.1515C52.0895 65.2947 52.0025 65.4249 51.8929 65.5345C51.7833 65.6442 51.6531 65.7311 51.5099 65.7905C51.3666 65.8498 51.2131 65.8804 51.0581 65.8804H24.7962C24.6411 65.8804 24.4876 65.8498 24.3443 65.7905C24.2011 65.7311 24.0709 65.6442 23.9613 65.5345C23.8517 65.4249 23.7647 65.2947 23.7054 65.1515C23.646 65.0082 23.6155 64.8547 23.6155 64.6997V62.7674C23.6155 63.0806 23.7399 63.3809 23.9613 63.6023C24.1827 63.8237 24.483 63.9481 24.7962 63.9481H51.0581C51.2131 63.9481 51.3666 63.9176 51.5099 63.8582C51.6531 63.7989 51.7833 63.7119 51.8929 63.6023C52.0025 63.4926 52.0895 63.3625 52.1488 63.2192C52.2081 63.076 52.2387 62.9225 52.2386 62.7674ZM52.2386 57.393V59.3252C52.2386 59.6384 52.1143 59.9386 51.8929 60.16C51.6715 60.3814 51.3712 60.5058 51.0581 60.5058H24.7962C24.4831 60.5058 24.1828 60.3814 23.9613 60.16C23.7399 59.9386 23.6155 59.6384 23.6155 59.3252V57.3925C23.6155 57.7056 23.7399 58.0059 23.9613 58.2272C24.1828 58.4486 24.4831 58.573 24.7962 58.573H51.0581C51.3712 58.573 51.6715 58.4486 51.8929 58.2272C52.1143 58.0058 52.2386 57.7056 52.2386 57.3925V57.393ZM52.2386 52.0184V53.9507C52.2386 54.2638 52.1143 54.5641 51.8929 54.7855C51.6715 55.0069 51.3712 55.1313 51.0581 55.1313H24.7962C24.4831 55.1313 24.1828 55.0069 23.9613 54.7855C23.7399 54.5641 23.6155 54.2638 23.6155 53.9507V52.0179C23.6155 52.331 23.7399 52.6313 23.9613 52.8527C24.1828 53.0741 24.4831 53.1985 24.7962 53.1985H51.0581C51.3712 53.1985 51.6715 53.0741 51.8929 52.8527C52.1143 52.6313 52.2386 52.331 52.2386 52.0179V52.0184ZM52.2386 46.6439V48.576C52.2386 48.8891 52.1143 49.1894 51.8929 49.4108C51.6715 49.6323 51.3712 49.7567 51.0581 49.7567H24.7962C24.4831 49.7567 24.1828 49.6323 23.9613 49.4108C23.7399 49.1894 23.6155 48.8891 23.6155 48.576V46.6434C23.6155 46.9565 23.7399 47.2567 23.9613 47.4781C24.1828 47.6995 24.4831 47.8239 24.7962 47.8239H51.0581C51.3712 47.8239 51.6715 47.6995 51.8929 47.4781C52.1143 47.2567 52.2386 46.9565 52.2386 46.6434V46.6439ZM52.2386 41.2693V43.2016C52.2386 43.5147 52.1143 43.815 51.8929 44.0364C51.6715 44.2578 51.3712 44.3823 51.0581 44.3823H24.7962C24.4831 44.3823 24.1828 44.2579 23.9613 44.0364C23.7399 43.815 23.6155 43.5147 23.6155 43.2016V41.2688C23.6155 41.5819 23.7399 41.8822 23.9613 42.1036C24.1828 42.325 24.4831 42.4494 24.7962 42.4494H51.0581C51.3712 42.4494 51.6715 42.325 51.8929 42.1036C52.1143 41.8822 52.2386 41.5819 52.2386 41.2688V41.2693Z" fill="white"/>
<path id="Vector_15" d="M65.5963 52.3693C65.5963 55.173 64.7649 57.9138 63.2072 60.245C61.6496 62.5762 59.4356 64.3932 56.8453 65.4662C54.255 66.5391 51.4047 66.8199 48.6549 66.2729C45.905 65.7259 43.3791 64.3758 41.3965 62.3933C39.414 60.4108 38.0638 57.8849 37.5168 55.1351C36.9698 52.3852 37.2505 49.5349 38.3234 46.9446C39.3963 44.3543 41.2132 42.1403 43.5444 40.5826C45.8756 39.0249 48.6163 38.1934 51.4201 38.1934C53.2817 38.1933 55.1251 38.5599 56.8451 39.2723C58.565 39.9847 60.1278 41.0289 61.4442 42.3453C62.7606 43.6616 63.8048 45.2244 64.5172 46.9443C65.2297 48.6643 65.5963 50.5077 65.5963 52.3693Z" fill="white"/>
<path id="Vector_16" d="M51.42 66.5451C47.668 66.5335 44.0736 65.0348 41.4246 62.3776C38.7756 59.7204 37.2881 56.1213 37.2881 52.3692C37.2881 48.6172 38.7756 45.0181 41.4246 42.3609C44.0736 39.7037 47.668 38.205 51.42 38.1934V66.5451Z" fill="white"/>
<path id="Vector_17" d="M51.4201 62.6156C49.3935 62.6156 47.4125 62.0147 45.7274 60.8888C44.0424 59.7629 42.7291 58.1626 41.9536 56.2903C41.178 54.418 40.9751 52.3577 41.3705 50.3701C41.7658 48.3825 42.7417 46.5567 44.1747 45.1237C45.6077 43.6907 47.4335 42.7148 49.4211 42.3194C51.4087 41.9241 53.469 42.127 55.3413 42.9025C57.2136 43.6781 58.8139 44.9914 59.9398 46.6764C61.0657 48.3615 61.6666 50.3425 61.6666 52.3691C61.6636 55.0857 60.5831 57.6902 58.6621 59.6111C56.7412 61.5321 54.1367 62.6126 51.4201 62.6156Z" fill="white"/>
<path id="Vector_18" d="M51.4201 62.6156C48.7026 62.6156 46.0963 61.5361 44.1747 59.6145C42.2531 57.6929 41.1736 55.0866 41.1736 52.3691C41.1736 49.6515 42.2531 47.0453 44.1747 45.1237C46.0963 43.2021 48.7026 42.1226 51.4201 42.1226V62.6156Z" fill="white"/>
<path id="Vector_19" d="M54.751 53.9884C54.8621 54.6364 54.7647 55.303 54.4728 55.8921C54.1808 56.4813 53.7094 56.9626 53.1265 57.2667C52.8446 57.4174 52.5459 57.5342 52.2365 57.6147V58.5565C52.2365 58.8104 52.1357 59.0538 51.9562 59.2333C51.7767 59.4127 51.5333 59.5136 51.2794 59.5136C51.0256 59.5136 50.7822 59.4127 50.6027 59.2333C50.4232 59.0538 50.3224 58.8104 50.3224 58.5565V57.6605C50.0766 57.6084 49.8364 57.5332 49.6048 57.4359C48.6975 57.053 48.0388 56.3489 47.7976 55.5055C47.7279 55.2615 47.7579 54.9997 47.8811 54.7778C48.0044 54.5559 48.2107 54.3921 48.4548 54.3223C48.6988 54.2525 48.9606 54.2826 49.1825 54.4058C49.4044 54.529 49.5682 54.7354 49.638 54.9794C49.7191 55.2633 49.9787 55.5159 50.3498 55.6729C50.6495 55.7948 50.9724 55.8498 51.2956 55.8338C51.6189 55.8179 51.9347 55.7314 52.221 55.5806C52.4458 55.4651 52.6288 55.2824 52.7447 55.0579C52.8606 54.8334 52.9035 54.5783 52.8674 54.3282C52.7467 53.6583 51.9758 53.1638 50.8053 53.0036C49.4655 52.8202 48.4775 52.0788 48.0951 50.9696C47.9261 50.4701 47.8977 49.9337 48.0129 49.4191C48.128 48.9045 48.3824 48.4314 48.7482 48.0516C49.183 47.6153 49.7265 47.3032 50.3224 47.1476V46.2062C50.3224 45.9524 50.4232 45.7089 50.6027 45.5295C50.7822 45.35 51.0256 45.2492 51.2794 45.2492C51.5333 45.2492 51.7767 45.35 51.9562 45.5295C52.1357 45.7089 52.2365 45.9524 52.2365 46.2062V47.1222C53.033 47.318 53.7427 47.771 54.2557 48.4111C54.4147 48.6082 54.4891 48.8604 54.4626 49.1123C54.436 49.3642 54.3107 49.5953 54.114 49.755C53.9174 49.9146 53.6654 49.9898 53.4134 49.964C53.1614 49.9383 52.9299 49.8136 52.7697 49.6175C52.6071 49.411 52.4016 49.2424 52.1674 49.1234C51.9331 49.0044 51.6757 48.9378 51.4132 48.9283C51.1781 48.9129 50.9424 48.9455 50.7204 49.0241C50.4983 49.1028 50.2946 49.2257 50.1216 49.3856C50.0008 49.5105 49.9168 49.6662 49.8785 49.8356C49.8403 50.0051 49.8494 50.1818 49.9047 50.3464C50.0453 50.7543 50.4574 51.0247 51.0648 51.1078C53.0978 51.3852 54.4758 52.4624 54.751 53.9884ZM61.8653 52.3812C61.8653 54.475 61.2443 56.5217 60.0811 58.2625C58.9178 60.0034 57.2645 61.3602 55.3301 62.1614C53.3957 62.9626 51.2672 63.1721 49.2137 62.7636C47.1602 62.3551 45.274 61.3469 43.7935 59.8663C42.313 58.3858 41.3048 56.4995 40.8964 54.446C40.488 52.3925 40.6977 50.264 41.4989 48.3297C42.3002 46.3953 43.6571 44.742 45.398 43.5788C47.1389 42.4156 49.1856 41.7948 51.2793 41.7948C54.086 41.798 56.7768 42.9144 58.7614 44.8991C60.746 46.8837 61.8622 49.5746 61.8653 52.3812ZM59.9512 52.3812C59.9513 50.6661 59.4427 48.9894 58.4898 47.5633C57.5369 46.1371 56.1826 45.0256 54.598 44.3692C53.0134 43.7128 51.2697 43.541 49.5875 43.8756C47.9053 44.2102 46.36 45.0361 45.1472 46.2489C43.9344 47.4617 43.1084 49.0069 42.7738 50.6891C42.4391 52.3713 42.6108 54.115 43.2672 55.6996C43.9235 57.2842 45.035 58.6387 46.4611 59.5916C47.8872 60.5445 49.5639 61.0531 51.279 61.0532C53.5782 61.0507 55.7826 60.1362 57.4084 58.5105C59.0342 56.8847 59.9487 54.6804 59.9512 52.3812ZM25.5015 34.1369C25.5648 34.3326 25.5848 34.5397 25.5599 34.7438C25.535 34.948 25.466 35.1443 25.3576 35.319C25.2298 35.5366 25.1932 35.7959 25.2557 36.0403C25.3181 36.2848 25.4746 36.4947 25.6911 36.6244C25.9075 36.7541 26.1664 36.7931 26.4115 36.7328C26.6565 36.6726 26.8678 36.518 26.9994 36.3027C27.3603 35.7081 27.5263 35.0156 27.474 34.3221L28.1115 34.0896C28.2305 34.0473 28.34 33.9819 28.4335 33.8971C28.5271 33.8123 28.603 33.7098 28.6568 33.5956C28.7106 33.4813 28.7413 33.3575 28.747 33.2314C28.7528 33.1052 28.7335 32.9792 28.6903 32.8605C28.6471 32.7418 28.5808 32.6328 28.4953 32.5399C28.4098 32.447 28.3068 32.3719 28.1921 32.3189C28.0774 32.266 27.9534 32.2363 27.8272 32.2315C27.701 32.2267 27.5751 32.247 27.4568 32.2911L26.7969 32.5319C26.4897 32.1165 26.0828 31.7853 25.6138 31.5687C25.1776 31.3752 24.6967 31.3053 24.2236 31.3667C23.7504 31.428 23.3032 31.6182 22.9308 31.9165C22.1205 32.5727 21.7874 33.6622 22.04 34.8296C22.2408 35.7577 22.0923 36.468 21.6435 36.7299C21.4779 36.818 21.2889 36.8522 21.103 36.8277C20.9171 36.8032 20.7434 36.7212 20.6063 36.5932C20.4162 36.4207 20.266 36.2088 20.1664 35.9721C20.0667 35.7355 20.02 35.48 20.0295 35.2234C20.0265 35.0968 20.0511 34.9711 20.1017 34.855C20.1524 34.739 20.2278 34.6353 20.3226 34.5515C20.526 34.4016 20.6618 34.1775 20.7006 33.9279C20.7394 33.6784 20.678 33.4236 20.5297 33.2191C20.3814 33.0147 20.1583 32.8771 19.909 32.8364C19.6598 32.7958 19.4045 32.8553 19.1989 33.002C18.8712 33.2526 18.604 33.5736 18.4169 33.9413C18.2298 34.3089 18.1277 34.7139 18.118 35.1264C18.106 35.3746 18.12 35.6233 18.1599 35.8686L17.6026 36.0715C17.4845 36.1145 17.376 36.1803 17.2834 36.2652C17.1907 36.3502 17.1157 36.4525 17.0626 36.5664C17.0095 36.6803 16.9793 36.8036 16.9738 36.9291C16.9683 37.0547 16.9877 37.1801 17.0306 37.2982C17.0736 37.4163 17.1395 37.5248 17.2244 37.6175C17.3093 37.7101 17.4116 37.7851 17.5255 37.8383C17.6395 37.8914 17.7627 37.9215 17.8883 37.927C18.0138 37.9325 18.1393 37.9132 18.2574 37.8702L18.9478 37.6189C19.0651 37.7627 19.1934 37.8972 19.3316 38.0211C19.8532 38.4911 20.5298 38.7523 21.2319 38.7549C21.715 38.7553 22.1896 38.6275 22.6071 38.3844C23.8087 37.6844 24.2962 36.2043 23.9115 34.4254C23.8118 33.9651 23.8919 33.6024 24.1367 33.404C24.2332 33.327 24.3491 33.278 24.4716 33.2625C24.5941 33.2469 24.7185 33.2653 24.8312 33.3157C24.9929 33.3998 25.1357 33.5161 25.251 33.6573C25.3662 33.7985 25.4515 33.9617 25.5015 34.1369ZM69.1695 19.5665L61.3875 40.9481C64.0334 43.2871 65.7865 46.4712 66.348 49.9579C66.9095 53.4445 66.2447 57.018 64.4668 60.0694C62.6889 63.1209 59.9081 65.4615 56.5979 66.6924C53.2878 67.9233 49.6533 67.9685 46.3137 66.8201H24.7907C24.224 66.8195 23.6806 66.5941 23.2799 66.1933C22.8791 65.7926 22.6537 65.2492 22.653 64.6825V63.7149L19.9416 64.7018C19.3132 64.9305 18.6196 64.9002 18.0135 64.6175C17.4074 64.3349 16.9384 63.823 16.7097 63.1946L0.830365 19.5665C0.60249 18.938 0.633243 18.2448 0.915878 17.6389C1.19851 17.033 1.70995 16.564 2.33796 16.3348L19.2501 10.1793V4.8716C19.2508 4.20322 19.5166 3.56241 19.9891 3.08972C20.4617 2.61702 21.1024 2.35104 21.7708 2.3501H47.3336C48.0021 2.35082 48.6431 2.61671 49.1158 3.08943C49.5885 3.56215 49.8544 4.20308 49.8551 4.8716V9.85336L67.6622 16.3348C68.2902 16.564 68.8016 17.033 69.0843 17.6389C69.3669 18.2448 69.3977 18.938 69.1698 19.5665H69.1695ZM59.5951 18.9266L49.8548 15.3814V27.5292C51.7926 28.3243 53.3936 29.7683 54.3838 31.614C55.3739 33.4597 55.6917 35.5922 55.2826 37.6464C55.8209 37.7921 56.3507 37.9675 56.8696 38.1718L61.9986 24.0799C61.1292 23.5589 60.4358 22.7895 60.0075 21.8709C59.5791 20.9523 59.4356 19.9265 59.5954 18.9256L59.5951 18.9266ZM49.8551 37.1796C50.3242 37.136 50.7992 37.1126 51.2794 37.1126C51.9912 37.1128 52.7022 37.1626 53.4071 37.2615C53.6995 35.7792 53.513 34.2423 52.8745 32.8729C52.236 31.5036 51.1786 30.3728 49.8551 29.6439V37.1796ZM21.1633 9.48271L26.3586 7.59176C26.5491 7.52322 26.7472 7.47782 26.9486 7.45654C27.0293 7.17399 27.07 6.88154 27.0696 6.5877C27.0696 6.33387 27.1704 6.09045 27.3499 5.91097C27.5294 5.73149 27.7728 5.63066 28.0266 5.63066H41.5071C41.7609 5.63066 42.0043 5.73149 42.1838 5.91097C42.3633 6.09045 42.4641 6.33387 42.4641 6.5877C42.465 7.42384 42.7976 8.22548 43.3888 8.81674C43.98 9.408 44.7816 9.74058 45.6178 9.74152C45.8716 9.74152 46.115 9.84235 46.2945 10.0218C46.474 10.2013 46.5748 10.4447 46.5748 10.6986V37.8554C47.0214 37.7102 47.4772 37.5855 47.942 37.4812V4.8716C47.9418 4.71055 47.8778 4.55615 47.7639 4.44228C47.65 4.3284 47.4956 4.26434 47.3346 4.26416H21.7708C21.6097 4.26434 21.4553 4.3284 21.3414 4.44228C21.2276 4.55615 21.1635 4.71055 21.1633 4.8716V9.48271ZM10.3956 21.7245C9.9074 22.7793 9.06898 23.6324 8.02287 24.139L19.2925 55.1025C20.478 54.9125 21.6926 55.1467 22.7225 55.7641C22.7813 55.5328 22.8786 55.3131 23.0104 55.1141C22.7771 54.7645 22.6527 54.3536 22.653 53.9334V50.9201C22.6528 50.4999 22.7771 50.089 23.0102 49.7394C22.7771 49.3899 22.6528 48.9791 22.653 48.559V45.5457C22.6526 45.1256 22.7768 44.7147 23.0098 44.3651C22.9365 44.2553 22.8734 44.1388 22.8216 44.0173C20.9699 44.0171 19.1631 43.4478 17.6458 42.3864C16.1285 41.3251 14.974 39.823 14.3389 38.0837C13.8423 36.7234 13.6807 35.2635 13.8677 33.8275C14.0547 32.3915 14.5847 31.0217 15.413 29.8338C16.2413 28.646 17.3435 27.6751 18.6264 27.0033C19.9092 26.3315 21.335 25.9785 22.7831 25.9742C24.2312 25.9699 25.6591 26.3144 26.9459 26.9785C28.2327 27.6427 29.3406 28.607 30.176 29.7899C31.0113 30.9728 31.5495 32.3395 31.7451 33.7743C31.9406 35.2092 31.7876 36.67 31.2992 38.0333H34.5932L26.9982 17.1659C25.9973 17.3256 24.9715 17.1821 24.0529 16.7537C23.1343 16.3254 22.3649 15.6319 21.8439 14.7625L10.8078 18.7799C10.9701 19.7805 10.8265 20.8069 10.3956 21.7245ZM36.0108 52.3812C36.011 51.8183 36.0422 51.2559 36.1042 50.6964H24.7907C24.7314 50.6965 24.6746 50.7201 24.6327 50.762C24.5907 50.804 24.5671 50.8608 24.5671 50.9201V53.9334C24.5671 53.9927 24.5907 54.0495 24.6327 54.0915C24.6746 54.1334 24.7314 54.157 24.7907 54.1571H36.1146C36.0457 53.5676 36.0111 52.9747 36.0108 52.3812ZM24.7907 38.0334H29.2296C29.7282 36.9766 29.9582 35.8129 29.8992 34.6459C29.8401 33.4788 29.4939 32.3443 28.8912 31.3432C28.2884 30.342 27.4479 29.5051 26.444 28.9068C25.4402 28.3085 24.3043 27.9673 23.1369 27.9134C21.9696 27.8596 20.807 28.0947 19.7523 28.598C18.6977 29.1013 17.7836 29.8572 17.0912 30.7986C16.3989 31.74 15.9496 32.8377 15.7833 33.9944C15.6171 35.1511 15.7389 36.331 16.1381 37.4293C16.6346 38.7686 17.5201 39.9289 18.6811 40.7611C19.842 41.5933 21.2252 42.0593 22.653 42.0994V40.1717C22.6535 39.6048 22.8789 39.0613 23.2797 38.6605C23.6804 38.2596 24.2239 38.0341 24.7907 38.0334ZM24.7907 59.5315H37.7927C37.2097 58.4367 36.7632 57.2746 36.4631 56.0711H24.7907C24.7314 56.0712 24.6746 56.0947 24.6326 56.1367C24.5907 56.1786 24.5671 56.2355 24.5671 56.2948V59.3085C24.5673 59.3677 24.5909 59.4244 24.6329 59.4662C24.6748 59.508 24.7315 59.5314 24.7907 59.5315ZM37.7439 45.3222H24.7907C24.7314 45.3222 24.6746 45.3458 24.6326 45.3877C24.5907 45.4297 24.5671 45.4865 24.5671 45.5458V48.5591C24.5672 48.6184 24.5908 48.6752 24.6327 48.7171C24.6746 48.7589 24.7315 48.7825 24.7907 48.7825H36.4403C36.732 47.5802 37.1698 46.4181 37.7439 45.3222ZM42.427 39.9476H24.7903C24.731 39.9477 24.6742 39.9713 24.6322 40.0132C24.5903 40.0551 24.5667 40.112 24.5667 40.1713V43.1844C24.5667 43.2437 24.5903 43.3006 24.6322 43.3425C24.6742 43.3844 24.731 43.408 24.7903 43.4081H38.9339C39.9054 42.0749 41.0848 40.9064 42.427 39.9475V39.9476ZM38.6203 33.9075C39.8592 33.0421 40.7899 31.804 41.2768 30.3734C41.7638 28.9427 41.7818 27.3939 41.3281 25.9524C40.8743 24.5108 39.9726 23.2515 38.754 22.3576C37.5354 21.4637 36.0635 20.9818 34.5522 20.982C34.3429 20.982 34.1345 20.9943 33.9268 21.0125L38.6203 33.9075ZM40.122 38.0334H44.6603V11.5649C43.6661 11.3717 42.7523 10.8858 42.0361 10.1696C41.32 9.45344 40.8341 8.53963 40.6408 7.54541H28.8941C28.8656 7.69443 28.8279 7.84127 28.7861 7.98701C29.1527 8.27559 29.4314 8.66091 29.5907 9.09949L33.2534 19.1627C34.5339 18.9763 35.8395 19.0676 37.0815 19.4305C38.3236 19.7935 39.473 20.4194 40.4517 21.266C41.4304 22.1125 42.2154 23.1598 42.7534 24.3366C43.2915 25.5135 43.5699 26.7923 43.5699 28.0863C43.5747 29.624 43.1839 31.1371 42.4349 32.4801C41.6858 33.823 40.6039 34.9507 39.293 35.7546L40.122 38.0334ZM22.653 61.6778V61.6692C22.6528 61.249 22.7771 60.8381 23.0102 60.4885C22.7771 60.139 22.6527 59.7281 22.653 59.3079V58.2298C22.2442 57.6819 21.6698 57.2804 21.0149 57.0848C20.3599 56.8891 19.6594 56.9098 19.0171 57.1437C18.899 57.1867 18.7736 57.206 18.648 57.2005C18.5224 57.1951 18.3991 57.1649 18.2852 57.1118C18.1713 57.0587 18.069 56.9836 17.984 56.891C17.8991 56.7983 17.8333 56.6898 17.7903 56.5717L5.89853 23.899C5.8527 23.7731 5.83383 23.6389 5.84315 23.5052C5.85246 23.3715 5.88976 23.2413 5.95262 23.1229C6.01547 23.0045 6.10249 22.9007 6.20804 22.8181C6.31358 22.7355 6.4353 22.676 6.56531 22.6434C6.67228 22.6166 6.77779 22.5843 6.8814 22.5466C7.27058 22.405 7.62806 22.1881 7.9334 21.9083C8.23875 21.6285 8.48599 21.2913 8.661 20.9159C8.83601 20.5406 8.93537 20.1344 8.9534 19.7207C8.97143 19.3069 8.90777 18.8937 8.76607 18.5045C8.72308 18.3864 8.70378 18.261 8.70927 18.1354C8.71475 18.0099 8.74492 17.8866 8.79803 17.7727C8.85115 17.6588 8.92619 17.5565 9.01885 17.4716C9.11152 17.3867 9.22 17.3209 9.3381 17.2779L22.0051 12.6674C22.1232 12.6244 22.2486 12.6051 22.3742 12.6106C22.4998 12.6161 22.6231 12.6462 22.737 12.6993C22.8509 12.7525 22.9532 12.8275 23.0381 12.9202C23.1231 13.0129 23.1889 13.1214 23.2319 13.2395C23.5179 14.0254 24.1045 14.6656 24.8625 15.0191C25.6206 15.3726 26.488 15.4105 27.274 15.1244C27.3921 15.0814 27.5175 15.0621 27.643 15.0675C27.7686 15.073 27.8919 15.1032 28.0058 15.1563C28.1197 15.2094 28.2221 15.2844 28.307 15.3771C28.3919 15.4697 28.4577 15.5782 28.5007 15.6963L36.6307 38.0334H38.0849L27.7918 9.75342C27.7368 9.60204 27.6238 9.47874 27.4778 9.41064C27.3318 9.34254 27.1648 9.33522 27.0134 9.39029L2.99189 18.1333C2.84064 18.1886 2.71748 18.3016 2.64941 18.4476C2.58134 18.5935 2.57392 18.7605 2.62876 18.9119L18.5084 62.5398C18.5637 62.6911 18.6767 62.8143 18.8226 62.8824C18.9686 62.9504 19.1356 62.9579 19.287 62.9031L22.653 61.6778ZM42.5575 64.906C41.1925 63.9525 39.9912 62.7838 39.0005 61.4455H24.7907C24.7314 61.4456 24.6746 61.4692 24.6327 61.5111C24.5907 61.5531 24.5671 61.6099 24.5671 61.6692V64.6825C24.5671 64.7418 24.5907 64.7986 24.6327 64.8405C24.6746 64.8824 24.7314 64.906 24.7907 64.906H42.5575ZM51.2801 39.0267C48.6389 39.0267 46.0569 39.8099 43.8607 41.2773C41.6646 42.7447 39.9529 44.8304 38.9421 47.2707C37.9314 49.7109 37.6669 52.396 38.1822 54.9866C38.6975 57.5771 39.9694 59.9567 41.837 61.8243C43.7047 63.692 46.0843 64.9639 48.6748 65.4792C51.2653 65.9945 53.9505 65.73 56.3907 64.7192C58.8309 63.7085 60.9166 61.9968 62.384 59.8006C63.8515 57.6045 64.6347 55.0225 64.6347 52.3812C64.6307 48.8405 63.2223 45.4459 60.7186 42.9423C58.2148 40.4387 54.8202 39.0305 51.2794 39.0267H51.2801ZM67.0087 18.1333L49.8551 11.8902V13.3445L61.0651 17.4246C61.1832 17.4676 61.2917 17.5334 61.3843 17.6183C61.477 17.7032 61.552 17.8055 61.6052 17.9194C61.6583 18.0333 61.6884 18.1566 61.6939 18.2821C61.6994 18.4077 61.6801 18.5331 61.6371 18.6512C61.3511 19.4372 61.389 20.3046 61.7424 21.0626C62.0958 21.8206 62.7359 22.4073 63.5218 22.6934C63.6399 22.7364 63.7484 22.8022 63.8411 22.8871C63.9338 22.972 64.0088 23.0743 64.0619 23.1882C64.1151 23.3022 64.1452 23.4254 64.1507 23.551C64.1562 23.6765 64.1369 23.802 64.094 23.9201L58.6089 38.9903C59.017 39.2146 59.4135 39.4566 59.7984 39.7162L67.3707 18.9119C67.4256 18.7606 67.4182 18.5936 67.3502 18.4477C67.2822 18.3017 67.1592 18.1887 67.008 18.1333H67.0087Z" fill="#1B6D24"/>
</g>
</g>
</svg>
