<svg width="20" height="20" viewBox="0 0 20 20" fill="none" xmlns="http://www.w3.org/2000/svg">
<path d="M10.125 2C8.51803 2 6.94714 2.47652 5.61099 3.36931C4.27485 4.2621 3.23344 5.53105 2.61848 7.0157C2.00352 8.50035 1.84262 10.134 2.15612 11.7101C2.46963 13.2862 3.24346 14.7339 4.37976 15.8702C5.51606 17.0065 6.9638 17.7804 8.53989 18.0939C10.116 18.4074 11.7497 18.2465 13.2343 17.6315C14.719 17.0166 15.9879 15.9752 16.8807 14.639C17.7735 13.3029 18.25 11.732 18.25 10.125C18.2477 7.97081 17.391 5.90551 15.8677 4.38227C14.3445 2.85903 12.2792 2.00227 10.125 2ZM10.125 17C8.76526 17 7.43605 16.5968 6.30546 15.8414C5.17487 15.0859 4.29368 14.0122 3.77333 12.7559C3.25298 11.4997 3.11683 10.1174 3.3821 8.78375C3.64738 7.45013 4.30216 6.22513 5.26364 5.26364C6.22513 4.30215 7.45014 3.64737 8.78376 3.3821C10.1174 3.11683 11.4997 3.25298 12.756 3.77333C14.0122 4.29368 15.0859 5.17487 15.8414 6.30545C16.5968 7.43604 17 8.76525 17 10.125C16.9979 11.9477 16.2729 13.6952 14.9841 14.9841C13.6952 16.2729 11.9477 16.9979 10.125 17ZM11.375 13.875C11.375 14.0408 11.3092 14.1997 11.1919 14.3169C11.0747 14.4341 10.9158 14.5 10.75 14.5C10.4185 14.5 10.1005 14.3683 9.86612 14.1339C9.6317 13.8995 9.5 13.5815 9.5 13.25V10.125C9.33424 10.125 9.17527 10.0592 9.05806 9.94194C8.94085 9.82473 8.875 9.66576 8.875 9.5C8.875 9.33424 8.94085 9.17527 9.05806 9.05806C9.17527 8.94085 9.33424 8.875 9.5 8.875C9.83152 8.875 10.1495 9.00669 10.3839 9.24112C10.6183 9.47554 10.75 9.79348 10.75 10.125V13.25C10.9158 13.25 11.0747 13.3158 11.1919 13.4331C11.3092 13.5503 11.375 13.7092 11.375 13.875ZM8.875 6.6875C8.875 6.50208 8.92999 6.32082 9.033 6.16665C9.13601 6.01248 9.28243 5.89232 9.45374 5.82136C9.62504 5.75041 9.81354 5.73184 9.9954 5.76801C10.1773 5.80419 10.3443 5.89347 10.4754 6.02459C10.6065 6.1557 10.6958 6.32274 10.732 6.5046C10.7682 6.68646 10.7496 6.87496 10.6786 7.04626C10.6077 7.21757 10.4875 7.36399 10.3333 7.467C10.1792 7.57002 9.99792 7.625 9.8125 7.625C9.56386 7.625 9.3254 7.52623 9.14959 7.35041C8.97377 7.1746 8.875 6.93614 8.875 6.6875Z" fill="#B1B1B1"/>
</svg>
