<svg width="20" height="20" viewBox="0 0 20 20" fill="none" xmlns="http://www.w3.org/2000/svg">
<path d="M10 18C8.89897 18 7.86193 17.7896 6.88889 17.3689C5.91586 16.9476 5.06845 16.3757 4.34667 15.6533C3.62489 14.931 3.05304 14.0836 2.63112 13.1111C2.20919 12.1387 1.99882 11.1016 2 10C2 8.89541 2.21038 7.85748 2.63112 6.88622C3.05245 5.91437 3.6243 5.06785 4.34667 4.34667C5.06904 3.62548 5.91645 3.05363 6.88889 2.63111C7.86193 2.21037 8.89897 2 10 2C11.1046 2 12.1425 2.21037 13.1138 2.63111C14.0856 3.05244 14.9324 3.6243 15.6542 4.34667C16.376 5.06904 16.9476 5.91555 17.3689 6.88622C17.7896 7.85807 18 8.896 18 10C18 11.101 17.7896 12.1381 17.3689 13.1111C16.9476 14.0841 16.3757 14.9316 15.6533 15.6533C14.931 16.3751 14.0844 16.947 13.1138 17.3689C12.1431 17.7908 11.1052 18.0012 10 18ZM10 17.1182C10.5215 16.448 10.9517 15.7899 11.2907 15.144C11.629 14.4981 11.9043 13.7751 12.1164 12.9751H7.88356C8.11882 13.8201 8.39971 14.5656 8.72623 15.2116C9.05334 15.8575 9.47793 16.493 10 17.1182ZM8.86845 16.9849C8.45363 16.496 8.07497 15.8916 7.73245 15.1716C7.38993 14.4521 7.13511 13.7197 6.968 12.9742H3.55912C4.06875 14.0794 4.79082 14.9861 5.72534 15.6942C6.66045 16.4018 7.70815 16.832 8.86845 16.9849ZM11.1316 16.9849C12.2919 16.832 13.3396 16.4018 14.2747 15.6942C15.2092 14.9861 15.9313 14.0794 16.4409 12.9742H13.0329C12.8077 13.731 12.5241 14.469 12.1822 15.1884C11.8397 15.9084 11.4895 16.5078 11.1316 16.9849ZM3.19645 12.0862H6.78311C6.71556 11.7212 6.66815 11.3656 6.64089 11.0196C6.61245 10.6741 6.59823 10.3342 6.59823 10C6.59823 9.66578 6.61215 9.32592 6.64 8.98044C6.66786 8.63496 6.71526 8.27941 6.78223 7.91378H3.19734C3.10075 8.22192 3.02519 8.55763 2.97067 8.92089C2.91615 9.28355 2.88889 9.64326 2.88889 10C2.88889 10.3567 2.91586 10.7167 2.96978 11.08C3.02371 11.4433 3.09926 11.7784 3.19645 12.0853M7.672 12.0853H12.328C12.3956 11.7209 12.443 11.3713 12.4702 11.0364C12.4987 10.7022 12.5129 10.3567 12.5129 10C12.5129 9.64326 12.499 9.29778 12.4711 8.96355C12.4433 8.62933 12.3959 8.2797 12.3289 7.91466H7.67111C7.60415 8.27911 7.55674 8.62874 7.52889 8.96355C7.50104 9.29778 7.48711 9.64326 7.48711 10C7.48711 10.3567 7.50104 10.7022 7.52889 11.0364C7.55674 11.3707 7.60504 11.7203 7.672 12.0853ZM13.2178 12.0853H16.8036C16.9001 11.7778 16.9757 11.4427 17.0302 11.08C17.0841 10.7167 17.1111 10.3567 17.1111 10C17.1111 9.64326 17.0841 9.28326 17.0302 8.92C16.9763 8.55674 16.9007 8.22163 16.8036 7.91466H13.2169C13.2844 8.27911 13.3319 8.63437 13.3591 8.98044C13.3876 9.32652 13.4018 9.66637 13.4018 10C13.4018 10.3336 13.3879 10.6735 13.36 11.0196C13.3321 11.3656 13.2847 11.7212 13.2178 12.0862M13.0329 7.02578H16.4409C15.92 5.89748 15.2065 4.99081 14.3004 4.30578C13.3944 3.62074 12.3381 3.18489 11.1316 2.99822C11.5464 3.544 11.9194 4.1683 12.2507 4.87111C12.5819 5.57333 12.8427 6.29155 13.0329 7.02578ZM7.88356 7.02578H12.1164C11.8818 6.19141 11.5923 5.43704 11.248 4.76267C10.9037 4.0883 10.4877 3.46133 10 2.88178C9.5123 3.46074 9.0963 4.0877 8.752 4.76267C8.40771 5.43763 8.11763 6.192 7.88356 7.02578ZM3.56 7.02578H6.968C7.15823 6.29215 7.41897 5.57392 7.75023 4.87111C8.08148 4.1683 8.45452 3.544 8.86934 2.99822C7.65215 3.18548 6.59319 3.624 5.69245 4.31378C4.79171 5.00474 4.0806 5.90844 3.55912 7.02489" fill="#B1B1B1"/>
</svg>
