<svg width="20" height="20" viewBox="0 0 20 20" fill="none" xmlns="http://www.w3.org/2000/svg">
<path d="M10.254 18.0385C10.1071 18.144 9.93084 18.2007 9.75 18.2007C9.56916 18.2007 9.39287 18.144 9.24598 18.0385C4.89976 14.9406 0.287123 8.56839 4.95016 3.96386C6.2303 2.70459 7.9543 1.99921 9.75 2C11.5501 2 13.2772 2.70652 14.5498 3.96296C19.2129 8.56749 14.6002 14.9388 10.254 18.0385Z" stroke="#B1B1B1" stroke-linecap="round" stroke-linejoin="round"/>
<path d="M9.74982 10.1001C10.2272 10.1001 10.6851 9.91046 11.0226 9.57288C11.3602 9.23531 11.5499 8.77746 11.5499 8.30005C11.5499 7.82265 11.3602 7.3648 11.0226 7.02722C10.6851 6.68965 10.2272 6.5 9.74982 6.5C9.27242 6.5 8.81457 6.68965 8.47699 7.02722C8.13942 7.3648 7.94977 7.82265 7.94977 8.30005C7.94977 8.77746 8.13942 9.23531 8.47699 9.57288C8.81457 9.91046 9.27242 10.1001 9.74982 10.1001Z" stroke="#B1B1B1" stroke-linecap="round" stroke-linejoin="round"/>
</svg>
