<svg width="20" height="20" viewBox="0 0 20 20" fill="none" xmlns="http://www.w3.org/2000/svg">
<path fill-rule="evenodd" clip-rule="evenodd" d="M8.86 3C10.6627 3 12.1293 4.46663 12.1293 6.26933V6.95622C12.1293 7.26133 11.8817 7.50897 11.5766 7.50897C11.2715 7.50897 11.0238 7.26133 11.0238 6.95622V6.26933C11.0238 5.07539 10.0532 4.1055 8.86 4.1055H5.26712C4.07539 4.1055 3.1055 5.07539 3.1055 6.26933V14.4714C3.1055 15.6646 4.07539 16.6345 5.26712 16.6345H8.8681C10.0561 16.6345 11.0238 15.6676 11.0238 14.4795V13.7845C11.0238 13.4794 11.2715 13.2318 11.5766 13.2318C11.8817 13.2318 12.1293 13.4794 12.1293 13.7845V14.4795C12.1293 16.2778 10.6656 17.74 8.8681 17.74H5.26712C3.46589 17.74 2 16.2741 2 14.4714V6.26933C2 4.46663 3.46589 3 5.26712 3H8.86ZM14.815 7.8303L16.973 9.97865C16.9922 9.99776 17.0095 10.0176 17.0252 10.0386L16.973 9.97865C16.9991 10.0044 17.0223 10.0325 17.0424 10.0625C17.0513 10.0761 17.0599 10.0902 17.0678 10.1046C17.0742 10.1159 17.0802 10.1277 17.0856 10.1397C17.0903 10.1502 17.0948 10.1608 17.0989 10.1716C17.1045 10.1856 17.1093 10.2 17.1136 10.2146C17.1168 10.2261 17.1198 10.2375 17.1223 10.2491C17.1256 10.2632 17.1282 10.2774 17.1303 10.2916C17.1314 10.3009 17.1326 10.3106 17.1334 10.3204C17.1351 10.3373 17.1358 10.3536 17.1358 10.37L17.1321 10.4157L17.1306 10.445C17.1304 10.4462 17.1302 10.4475 17.1301 10.4487L17.1358 10.37C17.1358 10.4109 17.1313 10.4514 17.1225 10.4908C17.1198 10.5025 17.1168 10.5139 17.1135 10.5253C17.1093 10.54 17.1045 10.5544 17.099 10.5686C17.0948 10.5792 17.0903 10.5898 17.0855 10.6002C17.0801 10.6123 17.0742 10.6241 17.0679 10.6357C17.0599 10.6498 17.0513 10.6639 17.0422 10.6775C17.037 10.6856 17.0313 10.6936 17.0254 10.7014C17.0079 10.7245 16.9888 10.7462 16.9681 10.7663L14.815 12.9104C14.7074 13.018 14.5659 13.0718 14.4252 13.0718C14.2837 13.0718 14.1414 13.018 14.0338 12.909C13.8186 12.6923 13.8193 12.3429 14.0353 12.1277L15.2439 10.9227H7.70865C7.40354 10.9227 7.1559 10.6751 7.1559 10.37C7.1559 10.0649 7.40354 9.81725 7.70865 9.81725H15.2454L14.0353 8.61299C13.8193 8.39779 13.8179 8.04845 14.0338 7.83177C14.249 7.61509 14.5984 7.61509 14.815 7.8303Z" fill="#B1B1B1"/>
</svg>
