<svg width="28" height="29" viewBox="0 0 28 29" fill="none" xmlns="http://www.w3.org/2000/svg">
<g id="material-symbols-light:notifications-active-outline-rounded">
<path id="Vector" d="M6.41669 22.3983C6.25102 22.3983 6.11258 22.3419 6.00136 22.2292C5.89013 22.1164 5.83413 21.9776 5.83336 21.8127C5.83258 21.6478 5.88858 21.5093 6.00136 21.3973C6.11413 21.2853 6.25258 21.2297 6.41669 21.2305H7.71869V11.987C7.71869 10.4626 8.20091 9.12206 9.16536 7.9655C10.1298 6.80894 11.3525 6.08833 12.8334 5.80367V5.16667C12.8334 4.84233 12.9465 4.567 13.1729 4.34067C13.3992 4.11356 13.6741 4 13.9977 4C14.3212 4 14.597 4.11356 14.8249 4.34067C15.0527 4.56778 15.1667 4.84311 15.1667 5.16667V5.80367C16.6476 6.08756 17.8702 6.80817 18.8347 7.9655C19.7991 9.12283 20.2814 10.4633 20.2814 11.987V21.2305H21.5834C21.749 21.2305 21.8875 21.2865 21.9987 21.3985C22.1107 21.5105 22.1667 21.6493 22.1667 21.815C22.1667 21.9807 22.1107 22.1191 21.9987 22.2303C21.8867 22.3416 21.7482 22.3972 21.5834 22.3972L6.41669 22.3983ZM13.9965 25.4492C13.477 25.4492 13.0336 25.2644 12.6665 24.895C12.2994 24.5256 12.1159 24.0822 12.1159 23.565H15.8842C15.8842 24.0861 15.6995 24.5302 15.33 24.8973C14.9598 25.2644 14.5153 25.4492 13.9965 25.4492ZM8.88536 21.2317H19.1159V11.987C19.1159 10.5691 18.6177 9.362 17.6214 8.36567C16.625 7.36933 15.4179 6.87156 14 6.87233C12.5821 6.87311 11.375 7.37089 10.3787 8.36567C9.38236 9.36044 8.88458 10.5676 8.88536 11.987V21.2317ZM4.36336 11.9648C4.18913 11.9648 4.04641 11.9018 3.93519 11.7758C3.82397 11.6506 3.77263 11.4974 3.78119 11.3162C3.86208 10.0818 4.15102 8.91633 4.64802 7.81967C5.14425 6.723 5.79563 5.75272 6.60219 4.90883C6.73441 4.78439 6.88258 4.71322 7.04669 4.69533C7.2108 4.67744 7.35275 4.73344 7.47252 4.86333C7.5923 4.994 7.64752 5.13983 7.63819 5.30083C7.62963 5.46261 7.55886 5.60767 7.42586 5.736C6.72663 6.471 6.16391 7.311 5.73769 8.256C5.31147 9.201 5.0583 10.2129 4.97819 11.2917C4.95486 11.4729 4.88991 11.6304 4.78336 11.7642C4.67758 11.8979 4.53758 11.9648 4.36336 11.9648ZM23.6484 11.9648C23.4664 11.9648 23.3225 11.8979 23.2167 11.7642C23.1109 11.6304 23.046 11.4729 23.0219 11.2917C22.941 10.2129 22.6909 9.20489 22.2717 8.26767C21.8532 7.32967 21.2948 6.49356 20.5964 5.75933C20.4579 5.63178 20.3778 5.48322 20.356 5.31367C20.3342 5.14411 20.3836 4.994 20.5042 4.86333C20.6247 4.73267 20.7702 4.68056 20.9405 4.707C21.1109 4.73344 21.2629 4.80811 21.3967 4.931C22.2032 5.77489 22.8546 6.74167 23.3509 7.83133C23.8479 8.92022 24.1368 10.0818 24.2177 11.3162C24.2262 11.4974 24.1745 11.6506 24.0625 11.7758C23.9513 11.9018 23.8129 11.9648 23.6472 11.9648" fill="white"/>
</g>
</svg>
