<svg width="45" height="45" viewBox="0 0 45 45" fill="none" xmlns="http://www.w3.org/2000/svg">
<g id="offer (1) 1" clip-path="url(#clip0_78_1229)">
<path id="Vector" d="M32.3181 35.5142L39.67 32.0414C41.2908 31.2232 43.2688 31.8229 44.1618 33.4041L29.218 43.0706C27.2146 43.9951 24.9663 44.2496 22.8066 43.7963L12.5003 40.9036C11.5516 40.6377 10.5371 40.7485 9.66855 41.2137L7.51303 42.3665L7.80349 31.8552L7.88899 31.8573C10.9691 29.669 15.0138 29.3859 18.3684 31.1242L18.9853 31.4433C19.9495 31.9432 21.0148 32.2181 22.101 32.2479L28.1592 32.4153C30.0607 32.4672 31.7249 33.7072 32.3181 35.5142Z" fill="#FFE8D5"/>
<path id="Vector_2" d="M40.957 12.674C41.8815 14.0142 41.8815 15.786 40.957 17.1262C40.5049 17.782 40.2627 18.5601 40.2627 19.357C40.2627 19.429 40.2648 19.5022 40.2693 19.5746L40.2713 19.6041C40.3621 21.2073 39.4585 22.7112 37.9693 23.4361L37.9534 23.4434C37.1597 23.8251 36.5089 24.4515 36.0969 25.23L36.0896 25.2447C35.3364 26.6782 33.7729 27.5475 32.1054 27.4587L32.0763 27.4575C31.1796 27.4084 30.2902 27.6399 29.5314 28.1194C28.1171 29.0104 26.3175 29.0104 24.9033 28.1194C24.2127 27.6829 23.4121 27.4509 22.5951 27.4514C22.5166 27.4514 22.4368 27.4534 22.3583 27.4575L22.3292 27.4587C20.6618 27.5475 19.0982 26.6782 18.3455 25.2447L18.3381 25.23C17.9257 24.4515 17.2749 23.8251 16.4812 23.4434L16.4653 23.4361C14.9749 22.7112 14.0725 21.2073 14.1633 19.6041L14.1657 19.5746C14.2136 18.7049 13.9718 17.8437 13.4776 17.1262C12.5519 15.7864 12.5519 14.0138 13.4776 12.674C13.9297 12.0182 14.1719 11.2401 14.1719 10.4432C14.1719 10.3712 14.1698 10.298 14.1657 10.2256L14.1633 10.1973C14.0847 8.5716 14.9933 7.05918 16.4653 6.36535L16.4812 6.35799C17.2749 5.97549 17.9253 5.34957 18.3381 4.57106L18.3455 4.55674C19.0982 3.12286 20.6618 2.25354 22.3292 2.34149L22.3583 2.34354C23.255 2.39181 24.144 2.16067 24.9033 1.68162C26.3175 0.791022 28.1171 0.791022 29.5314 1.68162C30.2906 2.16067 31.18 2.39181 32.0763 2.34354L32.1054 2.34149C33.7729 2.25354 35.3364 3.12286 36.0896 4.55674L36.0969 4.57106C36.5093 5.34957 37.1597 5.97549 37.9534 6.35799L37.9693 6.36535C39.4409 7.05918 40.3495 8.57201 40.2713 10.1973L40.2693 10.2256C40.221 11.0953 40.4628 11.9569 40.957 12.674ZM34.5959 19.0784C34.5959 17.2109 33.3143 15.6976 31.7339 15.6976C30.1536 15.6976 28.8715 17.2109 28.8715 19.0784C28.8715 20.9455 30.1524 22.46 31.7339 22.46C33.3151 22.46 34.5959 20.9467 34.5959 19.0784ZM25.5631 10.7218C25.5631 8.8547 24.2814 7.34145 22.7011 7.34145C21.1208 7.34145 19.8387 8.8547 19.8387 10.7218C19.8387 12.5893 21.1208 14.1038 22.7011 14.1038C24.2814 14.1038 25.5631 12.5901 25.5631 10.7218Z" fill="#3DB44A"/>
<path id="Vector_3" d="M31.7339 15.6978C33.3143 15.6978 34.596 17.211 34.596 19.0785C34.596 20.9456 33.3143 22.4601 31.7339 22.4601C30.1536 22.4601 28.8715 20.9469 28.8715 19.0785C28.8715 17.2102 30.1524 15.6978 31.7339 15.6978Z" fill="#3DB44A"/>
<path id="Vector_4" d="M22.7011 7.34131C24.2814 7.34131 25.5631 8.85455 25.5631 10.7217C25.5631 12.5892 24.2814 14.1037 22.7011 14.1037C21.1208 14.1037 19.8387 12.59 19.8387 10.7217C19.8387 8.85332 21.1208 7.34131 22.7011 7.34131Z" fill="#3DB44A"/>
<path id="Vector_5" d="M7.51304 42.3664L7.48072 43.5512L0.83783 43.3679L1.23874 28.7886L7.88286 28.9706L7.80349 31.8552L7.51304 42.3664Z" fill="#243B58"/>
<g id="Group">
<path id="Vector_6" d="M13.3295 19.5226L13.3279 19.5455C13.3279 19.5492 13.3279 19.5529 13.3271 19.5561C13.2166 21.4977 14.3048 23.3165 16.0991 24.1891L16.1106 24.1945L16.1175 24.1977C16.7488 24.4996 17.2659 24.9963 17.5935 25.6144L17.5968 25.621C17.5993 25.6251 17.6013 25.6296 17.6034 25.6336C18.5071 27.3543 20.3762 28.3971 22.366 28.2952L22.3877 28.2944C22.393 28.2944 22.398 28.2944 22.4033 28.294C23.1266 28.2543 23.8445 28.4409 24.4569 28.8279C26.144 29.8907 28.2918 29.8907 29.9789 28.8275C30.5901 28.4392 31.3076 28.2527 32.0305 28.2932L32.0469 28.294L32.0686 28.2948C34.0596 28.3975 35.9276 27.3539 36.8312 25.6332C36.8333 25.6291 36.8357 25.6246 36.8378 25.6206L36.8411 25.614C37.1667 24.9983 37.6809 24.5033 38.3085 24.2014L38.324 24.194L38.3359 24.1883C40.1298 23.3153 41.218 21.4969 41.1079 19.5553L41.1067 19.5418L41.1051 19.5193C41.1022 19.4649 41.1006 19.4101 41.1006 19.3557C41.0997 18.7293 41.29 18.1173 41.6463 17.6019C42.7689 15.9753 42.7689 13.8247 41.6471 12.1977C41.2605 11.6348 41.0703 10.9606 41.1051 10.2791L41.1067 10.2599C41.1067 10.2545 41.1075 10.2496 41.1079 10.2439C41.2057 8.28106 40.1114 6.4524 38.3355 5.6113C38.331 5.60885 38.3265 5.6068 38.322 5.60476L38.3118 5.60026C37.6834 5.29794 37.1679 4.80252 36.8411 4.18683L36.8312 4.1672C35.9267 2.44491 34.0572 1.39926 32.0612 1.50522L32.0456 1.50603L32.0244 1.50767C31.3036 1.54612 30.5885 1.35917 29.9785 0.973391C28.2914 -0.0894378 26.144 -0.0894378 24.4569 0.973391C23.847 1.35958 23.1319 1.54612 22.4106 1.50767L22.3894 1.50603C22.384 1.50603 22.3787 1.50522 22.3738 1.50522C20.3787 1.39967 18.5083 2.44491 17.6038 4.1672L17.594 4.18683C17.2671 4.80293 16.7516 5.29835 16.1233 5.60067L16.1126 5.60517C16.1081 5.60721 16.104 5.60926 16.0995 5.61171C14.3228 6.45281 13.2285 8.28147 13.3271 10.2447C13.3271 10.2488 13.3271 10.2533 13.3279 10.2574L13.3295 10.2799C13.3328 10.3339 13.334 10.3891 13.334 10.4431C13.3349 11.0703 13.1446 11.6823 12.7883 12.1977C11.6645 13.8239 11.6645 15.9757 12.7883 17.6019C13.1745 18.1652 13.3647 18.8402 13.3295 19.5226ZM14.1674 13.1497C14.7172 12.3544 15.0109 11.4102 15.0097 10.4431C15.0097 10.3552 15.0072 10.2652 15.0019 10.1768C15.0019 10.1731 15.0019 10.169 15.0011 10.1649L14.9999 10.1441C14.9434 8.86075 15.663 7.66946 16.8253 7.12209L16.8339 7.118L16.8445 7.11309C17.8005 6.65531 18.5836 5.90176 19.0781 4.96371C19.0806 4.95839 19.0839 4.95266 19.0863 4.94734L19.09 4.93998C19.7208 3.78428 20.9633 3.09741 22.2773 3.17801L22.2985 3.17964L22.3133 3.18046C23.3831 3.24019 24.4451 2.96405 25.3504 2.3905C26.491 1.67213 27.9428 1.67213 29.0838 2.3905C29.9891 2.96364 31.0511 3.23978 32.1209 3.18005L32.1361 3.17923L32.1569 3.1776C33.4709 3.09741 34.7129 3.78388 35.3438 4.93957L35.3475 4.94693C35.3503 4.95266 35.3532 4.95798 35.356 4.96371C35.8506 5.90135 36.6337 6.65491 37.5897 7.11268L37.5999 7.11759L37.6089 7.12168C38.7704 7.66905 39.49 8.85952 39.4347 10.142L39.4331 10.1621C39.4331 10.1678 39.4323 10.1735 39.4323 10.1793C39.3754 11.2343 39.6691 12.2787 40.2672 13.1501C40.9938 14.2035 40.9938 15.5969 40.2672 16.6503C39.7174 17.4456 39.4233 18.3898 39.4249 19.3569C39.4249 19.4461 39.4274 19.5357 39.4327 19.6232C39.4327 19.6273 39.4327 19.6318 39.4331 19.6359L39.4351 19.658C39.49 20.9413 38.7695 22.133 37.6069 22.6804L37.5897 22.6882C36.6337 23.1459 35.8502 23.8999 35.356 24.838C35.3532 24.8429 35.3507 24.8482 35.3483 24.8531L35.3442 24.8609C34.742 26.0027 33.4877 26.6928 32.15 26.622L32.1348 26.6212L32.1136 26.6204C31.0462 26.5615 29.9875 26.8376 29.085 27.4103C27.9441 28.1291 26.4922 28.1295 25.3512 27.4112C24.5265 26.8896 23.5708 26.6126 22.5951 26.6134C22.5043 26.6134 22.4123 26.6159 22.3219 26.6204L22.3002 26.6212C22.2949 26.6212 22.2895 26.6212 22.2842 26.622C20.9678 26.7059 19.7221 26.019 19.09 24.8609L19.0863 24.8531C19.0839 24.8482 19.081 24.8429 19.0786 24.838C18.5823 23.8974 17.796 23.1418 16.8363 22.6841L16.8265 22.6796C15.6638 22.1322 14.9438 20.9401 14.9999 19.6564L15.0015 19.633C15.0015 19.629 15.0015 19.6249 15.0019 19.6208C15.0588 18.5653 14.7651 17.5209 14.1666 16.6495C13.4388 15.5961 13.4392 14.2027 14.1674 13.1497Z" fill="#1B6D24"/>
<path id="Vector_7" d="M21.8113 23.5616C22.2036 23.8067 22.7203 23.6872 22.9654 23.2945L32.8904 7.39461C33.0528 7.14056 33.0659 6.81901 32.9252 6.55269C32.7845 6.28637 32.5116 6.11578 32.2105 6.10637C31.909 6.09696 31.6263 6.25037 31.4692 6.50728L21.5442 22.4072C21.2991 22.7999 21.4186 23.3166 21.8113 23.5616Z" fill="#1B6D24"/>
<path id="Vector_8" d="M22.7011 14.9414C24.7413 14.9414 26.401 13.0485 26.401 10.7216C26.401 8.39507 24.7413 6.50342 22.7011 6.50342C20.6605 6.50342 19.0008 8.39548 19.0008 10.7216C19.0008 13.0477 20.6605 14.9414 22.7011 14.9414ZM22.7011 8.17907C23.8171 8.17907 24.7253 9.31963 24.7253 10.7216C24.7253 12.124 23.8171 13.2658 22.7011 13.2658C21.5847 13.2658 20.6765 12.124 20.6765 10.7216C20.6765 9.31922 21.5847 8.17907 22.7011 8.17907Z" fill="#1B6D24"/>
<path id="Vector_9" d="M28.0336 19.0785C28.0336 21.405 29.6933 23.2979 31.7339 23.2979C33.7741 23.2979 35.4338 21.405 35.4338 19.0785C35.4338 16.7515 33.7741 14.8599 31.7339 14.8599C29.6933 14.8599 28.0336 16.7523 28.0336 19.0785ZM33.7581 19.0785C33.7581 20.4808 32.8499 21.6222 31.7339 21.6222C30.6175 21.6222 29.7093 20.4804 29.7093 19.0785C29.7093 17.6761 30.6175 16.5355 31.7339 16.5355C32.8499 16.5355 33.7581 17.6761 33.7581 19.0785Z" fill="#1B6D24"/>
<path id="Vector_10" d="M44.8912 32.9916C43.7822 31.023 41.3219 30.2727 39.303 31.2881L32.7415 34.3874C31.8325 32.704 30.0951 31.6329 28.1826 31.5777L22.1235 31.41C21.1641 31.3826 20.2232 31.1396 19.3702 30.6994L18.7537 30.3799C15.5972 28.7345 11.8351 28.7382 8.68181 30.3905L8.72027 28.9935C8.73336 28.5308 8.36845 28.1454 7.90576 28.1327L1.26205 27.9507C1.25428 27.9507 1.24651 27.9507 1.23833 27.9507C0.785049 27.9507 0.414 28.3119 0.401318 28.7652L0.000405066 43.3445C-0.0122769 43.8072 0.352227 44.1926 0.814504 44.2053L7.4578 44.3885H7.48071C7.93481 44.3885 8.30626 44.0273 8.31854 43.5736L8.33776 42.8757L10.0646 41.9516C10.7416 41.5875 11.534 41.5007 12.2741 41.7098L22.5808 44.6025C22.5988 44.6074 22.6168 44.6119 22.6348 44.6156C23.3802 44.7719 24.1399 44.85 24.9016 44.8496C26.513 44.8508 28.1052 44.5031 29.5698 43.8305C29.6058 43.8142 29.6406 43.7953 29.6737 43.7741L44.6175 34.1076C44.9894 33.8666 45.1097 33.3777 44.8912 32.9916ZM6.6752 42.3435L6.66579 42.6904L1.69815 42.5533L2.05324 29.6488L7.02211 29.7851L6.6752 42.3435ZM28.8138 42.3337C26.9941 43.1555 24.9613 43.3822 23.0055 42.9817L12.7265 40.0967C11.57 39.7699 10.3317 39.9053 9.27337 40.4747L8.39054 40.9468L8.6274 32.3669C11.4219 30.5079 15.0068 30.3165 17.983 31.8678L18.5999 32.1873C19.6771 32.7436 20.8659 33.0505 22.0776 33.0852L28.1363 33.2526C29.6839 33.2967 31.038 34.306 31.5224 35.7767C31.5662 35.9092 31.6018 36.0438 31.63 36.1805L22.6045 35.9321C22.1419 35.9194 21.7569 36.2844 21.7442 36.7466C21.7315 37.2093 22.096 37.5947 22.5587 37.6074L32.5169 37.8806H32.5402C32.9939 37.8806 33.3654 37.5194 33.3781 37.0657C33.3879 36.7016 33.3605 36.3375 33.2967 35.9788L40.0279 32.7985L40.0475 32.7891C41.0024 32.3055 42.1572 32.4671 42.9423 33.1945L28.8138 42.3337Z" fill="#1B6D24"/>
</g>
</g>
<defs>
<clipPath id="clip0_78_1229">
<rect width="45" height="45" fill="white"/>
</clipPath>
</defs>
</svg>
