<svg width="20" height="20" viewBox="0 0 20 20" fill="none" xmlns="http://www.w3.org/2000/svg">
<path d="M13.1865 12.5833C13.0373 12.5833 12.8942 12.6492 12.7887 12.7664C12.6832 12.8836 12.6239 13.0426 12.6239 13.2083C12.6239 13.3741 12.6832 13.5331 12.7887 13.6503C12.8942 13.7675 13.0373 13.8333 13.1865 13.8333H15.812C15.9612 13.8333 16.1043 13.7675 16.2098 13.6503C16.3153 13.5331 16.3746 13.3741 16.3746 13.2083C16.3746 13.0426 16.3153 12.8836 16.2098 12.7664C16.1043 12.6492 15.9612 12.5833 15.812 12.5833H13.1865ZM1 6.125C1 5.2962 1.29637 4.50134 1.8239 3.91529C2.35143 3.32924 3.06692 3 3.81297 3H16.187C16.9331 3 17.6486 3.32924 18.1761 3.91529C18.7036 4.50134 19 5.2962 19 6.125V14.875C19 15.7038 18.7036 16.4987 18.1761 17.0847C17.6486 17.6708 16.9331 18 16.187 18H3.81372C3.06767 18 2.35218 17.6708 1.82465 17.0847C1.29712 16.4987 1.00075 15.7038 1.00075 14.875L1 6.125ZM3.81297 4.25C3.36534 4.25 2.93605 4.44754 2.61953 4.79917C2.30301 5.15081 2.12519 5.62772 2.12519 6.125V6.75H17.8748V6.125C17.8748 5.62772 17.697 5.15081 17.3805 4.79917C17.064 4.44754 16.6347 4.25 16.187 4.25H3.81297ZM2.12519 14.875C2.12519 15.3723 2.30301 15.8492 2.61953 16.2008C2.93605 16.5525 3.36534 16.75 3.81297 16.75H16.187C16.6347 16.75 17.064 16.5525 17.3805 16.2008C17.697 15.8492 17.8748 15.3723 17.8748 14.875V8H2.12594L2.12519 14.875Z" fill="#B1B1B1"/>
</svg>
