<svg width="20" height="20" viewBox="0 0 20 20" fill="none" xmlns="http://www.w3.org/2000/svg">
<g id="iconamoon:phone-thin">
<path id="Vector" d="M16.2549 6.63301C15.6603 8.95174 14.4536 11.0681 12.761 12.7607C11.0684 14.4534 8.95199 15.6601 6.63325 16.2547C4.84909 16.7088 3.33325 15.1747 3.33325 13.333V12.4997C3.33325 12.0397 3.70742 11.6705 4.16492 11.6247C4.92358 11.5493 5.66831 11.3701 6.37825 11.0922L7.64492 12.3588C9.70731 11.3702 11.3704 9.70707 12.3591 7.64467L11.0924 6.37801C11.3706 5.6681 11.5501 4.92338 11.6258 4.16467C11.6708 3.70634 12.0399 3.33301 12.4999 3.33301H13.3333C15.1749 3.33301 16.7091 4.84884 16.2549 6.63301Z" stroke="#3DB44A" stroke-linecap="round" stroke-linejoin="round"/>
</g>
</svg>
