<svg width="20" height="21" viewBox="0 0 20 21" fill="none" xmlns="http://www.w3.org/2000/svg">
<path d="M16.7857 10.8573C16.3571 10.8573 16.0714 11.143 16.0714 11.5716C16.0714 14.9287 13.3571 17.643 10 17.643C6.64286 17.643 3.92857 14.9287 3.92857 11.5716C3.92857 8.42871 6.35714 5.78585 9.5 5.50014L8.42857 6.57157C8.14285 6.85728 8.14285 7.28585 8.42857 7.57157C8.71428 7.85728 9.14285 7.85728 9.42857 7.57157L11.6429 5.35728C11.9286 5.07157 11.9286 4.643 11.6429 4.35728L9.42857 2.143C9.14285 1.85728 8.71428 1.85728 8.42857 2.143C8.14285 2.42871 8.14285 2.85728 8.42857 3.143L9.35714 4.07157C5.28571 4.42871 2.21428 8.07157 2.5 12.2144C2.78571 16.3573 6.5 19.3573 10.6429 19.0716C14.5 18.7144 17.5 15.5001 17.5 11.5716C17.5 11.2144 17.2143 10.8573 16.7857 10.8573Z" fill="#3DB44A"/>
</svg>
