<svg width="38" height="38" viewBox="0 0 38 38" fill="none" xmlns="http://www.w3.org/2000/svg">
<g id="sedan 1" clip-path="url(#clip0_307_11172)">
<g id="Group">
<g id="Group_2" filter="url(#filter0_d_307_11172)">
<g id="Group_3">
<path id="Vector" d="M31.1677 16.4757C31.1479 16.4638 31.1161 16.4638 31.0843 16.4836L30.1192 17.0436C30.0557 17.0794 30.004 17.1668 30.004 17.2383V17.2621L29.6347 17.4765L29.3807 17.3298L29.7501 17.1153V17.0915C29.7501 17.016 29.8017 16.9287 29.8653 16.8929L30.8304 16.3369C30.8622 16.317 30.8939 16.317 30.9138 16.3289L31.1677 16.4757Z" fill="#434240"/>
<path id="Vector_2" d="M31.0847 16.4839C31.1481 16.4473 31.2015 16.4748 31.2017 16.5477L31.2034 17.1363C31.2036 17.212 31.1505 17.301 31.0871 17.3376L30.121 17.8954C30.0576 17.932 30.0067 17.903 30.0065 17.8273L30.0053 17.4135L29.6351 17.6273L29.6346 17.4758L30.0049 17.262L30.0048 17.2387C30.0046 17.1659 30.0551 17.0783 30.1185 17.0417L31.0847 16.4839Z" fill="#2D2C2B"/>
<g id="Group_4">
<g id="Group_5">
<g id="Group_6">
<g id="Group_7">
<path id="Vector_3" d="M35.3534 27.1816C34.873 27.8072 34.2504 28.3078 33.6145 28.7746C32.3571 29.6975 31.0105 30.5192 29.5432 31.0484C28.0758 31.5777 26.3299 31.9987 24.7943 31.7248C27.3215 29.6805 30.1388 27.6186 32.9249 25.9441C33.6086 25.5332 34.3278 25.1271 35.1187 24.9702C35.3336 24.9276 35.9909 24.7766 36.1269 25.0102C36.2654 25.2479 36.0576 25.8107 35.9766 26.0453C35.835 26.4555 35.6173 26.838 35.3534 27.1816Z" fill="#3DB44A"/>
</g>
<g id="Group_8">
<g id="Group_9">
<g id="Group_10">
<g id="Group_11">
<path id="Vector_4" d="M7.28832 23.2483L8.74617 22.4011C9.09411 22.1989 9.30995 21.7691 9.31168 21.1585C9.31339 19.9223 8.44862 18.4295 7.37996 17.8125L5.92212 18.6597C6.99077 19.2767 7.85555 20.7695 7.85384 22.0057C7.8521 22.6163 7.63626 23.0461 7.28832 23.2483Z" fill="#21201F"/>
</g>
</g>
<g id="Group_12">
<g id="Group_13">
<path id="Vector_5" d="M21.9978 31.7673L23.4556 30.9201C23.8036 30.7179 24.0194 30.2881 24.0212 29.6775C24.0229 28.4413 23.1581 26.9485 22.0894 26.3315L20.6316 27.1788C21.7002 27.7957 22.565 29.2885 22.5633 30.5247C22.5616 31.1353 22.3457 31.5651 21.9978 31.7673Z" fill="#21201F"/>
</g>
</g>
<g id="Group_14">
<g id="Group_15">
<g id="Group_16">
<g id="Group_17">
<g id="Group_18">
<path id="Vector_6" d="M2.64962 17.2111L13.219 11.0688L12.3685 11.1701L1.79907 17.3123L2.64962 17.2111Z" fill="#434240"/>
</g>
</g>
<g id="Group_19">
<g id="Group_20">
<path id="Vector_7" d="M12.9193 7.27281C9.55766 7.38088 6.0641 9.07363 2.34998 13.4151C2.7998 13.1537 4.38084 12.8078 4.46783 12.7887L15.0372 6.64648C14.9502 6.66551 13.3692 7.01147 12.9193 7.27281Z" fill="#21201F"/>
</g>
</g>
<g id="Group_21">
<g id="Group_22">
<path id="Vector_8" d="M16.5616 7.87617C16.5556 7.86126 16.5506 7.84718 16.5467 7.83398C13.0235 9.88142 9.5005 11.9288 5.97729 13.9763C5.9812 13.9894 5.98627 14.0035 5.99218 14.0184C9.163 12.1757 13.3908 9.71884 16.5616 7.87617Z" fill="#3DB44A"/>
</g>
</g>
<g id="Group_23">
<g id="Group_24">
<path id="Vector_9" d="M16.2139 8.0234C12.8013 10.0066 9.38891 11.9897 5.97632 13.9728C5.97664 13.974 5.97697 13.9751 5.97731 13.9763C9.50051 11.9288 13.0235 9.88142 16.5467 7.83398C16.5463 7.83284 16.546 7.8317 16.5457 7.83057C16.4351 7.89484 16.3245 7.95913 16.2139 8.0234Z" fill="#3DB44A"/>
</g>
</g>
<g id="Group_25">
<g id="Group_26">
<path id="Vector_10" d="M13.7247 9.37981C11.1492 10.8765 8.57391 12.3731 5.99847 13.8698C5.96503 13.8898 5.96272 13.9254 5.97625 13.9731C9.49945 11.9256 13.0224 9.87825 16.5456 7.83082C16.5321 7.78319 16.5344 7.74757 16.5678 7.72754C15.6201 8.2783 14.6724 8.82906 13.7247 9.37981Z" fill="#3DB44A"/>
</g>
</g>
<g id="Group_27">
<g id="Group_28">
<path id="Vector_11" d="M16.5679 7.72758C16.5682 7.7274 16.5685 7.72723 16.5688 7.72705L5.99944 13.8693C5.99913 13.8695 5.99883 13.8697 5.99854 13.8698C8.51102 12.4098 11.0234 10.9497 13.5358 9.48963C14.5465 8.90228 15.5611 8.3217 16.5679 7.72758Z" fill="#3DB44A"/>
</g>
</g>
<g id="Group_29">
<g id="Group_30">
<path id="Vector_12" d="M16.9472 26.0625L27.5166 19.9202L13.219 11.0688L2.64966 17.2111L16.9472 26.0625Z" fill="#434240"/>
</g>
</g>
<g id="Group_31">
<g id="Group_32">
<path id="Vector_13" d="M17.8935 9.31401C17.58 9.07982 16.7066 8.03212 16.6277 7.84229L6.05835 13.9845C6.1372 14.1744 7.01059 15.2221 7.32409 15.4563C10.4949 13.6136 14.7227 11.1567 17.8935 9.31401Z" fill="#21201F"/>
</g>
</g>
<g id="Group_33">
<g id="Group_34">
<path id="Vector_14" d="M7.49878 15.6598L18.0682 9.51753L18.1004 9.47656L7.53101 15.6188L7.49878 15.6598Z" fill="#21201F"/>
</g>
</g>
<g id="Group_35">
<g id="Group_36">
<path id="Vector_15" d="M8.40296 16.3528L18.9723 10.2105L18.0682 9.51758L7.49878 15.6598L8.40296 16.3528Z" fill="#21201F"/>
</g>
</g>
<g id="Group_37">
<g id="Group_38">
<path id="Vector_16" d="M20.0647 11.0501C19.3713 10.6498 18.2001 9.65056 17.88 9.4126C14.3569 11.46 10.8339 13.5074 7.31067 15.5549C7.6307 15.7928 8.80188 16.7921 9.49527 17.1924C13.0185 15.1449 16.5415 13.0976 20.0647 11.0501Z" fill="#3DB44A"/>
</g>
</g>
<g id="Group_39">
<g id="Group_40">
<path id="Vector_17" d="M18.1004 9.47654C18.0139 9.40719 17.943 9.35162 17.8935 9.31396L7.3241 15.4562C7.3736 15.4939 7.44449 15.5494 7.53104 15.6188C10.7019 13.7761 14.9296 11.3192 18.1004 9.47654Z" fill="#21201F"/>
</g>
</g>
<g id="Group_41">
<g id="Group_42">
<path id="Vector_18" d="M8.32483 14.6087L18.8942 8.46642L18.9146 8.44043L8.34517 14.5827L8.32483 14.6087Z" fill="#21201F"/>
</g>
</g>
<g id="Group_43">
<g id="Group_44">
<path id="Vector_19" d="M8.40296 16.3526L18.9723 10.2104C18.9765 10.2018 18.9803 10.1919 18.9837 10.1806C19.077 9.88297 18.945 8.70048 18.9189 8.47698C18.916 8.4533 18.9145 8.44107 18.9145 8.44043L8.34509 14.5827C8.34517 14.5833 8.34667 14.5956 8.34947 14.6192C8.37557 14.8427 8.50759 16.0252 8.41435 16.3229C8.4109 16.3341 8.40711 16.3441 8.40296 16.3526Z" fill="#21201F"/>
</g>
</g>
<g id="Group_45">
<g id="Group_46">
<path id="Vector_20" d="M16.6363 7.83484L6.06689 13.9771C6.17915 13.9119 7.08466 14.1779 7.5291 14.3094L18.0985 8.16716C17.654 8.03564 16.7485 7.7696 16.6363 7.83484Z" fill="#434240"/>
</g>
</g>
<g id="Group_47">
<g id="Group_48">
<path id="Vector_21" d="M8.32485 14.6089L18.8942 8.4666C18.5896 8.33483 18.3183 8.23121 18.0986 8.16699L7.52917 14.3092C7.74896 14.3735 8.02021 14.4771 8.32485 14.6089Z" fill="#434240"/>
</g>
</g>
<g id="Group_49">
<g id="Group_50">
<path id="Vector_22" d="M18.7061 8.28159C18.4668 8.18241 18.2539 8.10389 18.0757 8.05127L7.50635 14.1935C7.68447 14.2461 7.89746 14.3247 8.13674 14.4238C11.6599 12.3764 15.1829 10.329 18.7061 8.28159Z" fill="#21201F"/>
</g>
</g>
<g id="Group_51">
<g id="Group_52">
<path id="Vector_23" d="M11.9115 18.7661L22.4809 12.6238L22.4793 12.5439L11.9099 18.6862L11.9115 18.7661Z" fill="#21201F"/>
</g>
</g>
<g id="Group_53">
<g id="Group_54">
<path id="Vector_24" d="M11.91 18.686L22.4793 12.5437C21.2796 11.7348 20.3333 11.0987 20.065 10.9438C19.7604 10.768 19.3625 10.4748 18.9838 10.1807L8.41443 16.3229C8.79315 16.617 9.19098 16.9102 9.49558 17.0861C9.76391 17.241 10.7102 17.877 11.91 18.686Z" fill="#21201F"/>
</g>
</g>
<g id="Group_55">
<g id="Group_56">
<path id="Vector_25" d="M12.8786 19.4002L23.448 13.258L22.4809 12.6235L11.9115 18.7658L12.8786 19.4002Z" fill="#21201F"/>
</g>
</g>
<g id="Group_57">
<g id="Group_58">
<path id="Vector_26" d="M12.8786 19.4003L23.448 13.2581L23.4363 13.187L12.8669 19.3293L12.8786 19.4003Z" fill="#21201F"/>
</g>
</g>
<g id="Group_59">
<g id="Group_60">
<path id="Vector_27" d="M17.9027 22.6125L28.4721 16.4703C27.2835 15.7616 25.2119 14.3793 23.4363 13.187L12.8669 19.3293C14.6425 20.5216 16.7141 21.9038 17.9027 22.6125Z" fill="#21201F"/>
</g>
</g>
<g id="Group_61">
<g id="Group_62">
<path id="Vector_28" d="M11.9099 18.6859L22.4793 12.5437L22.4361 10.3184L11.8667 16.4606L11.9099 18.6859Z" fill="#434240"/>
</g>
</g>
<g id="Group_63">
<g id="Group_64">
<path id="Vector_29" d="M12.8669 19.3295L23.4363 13.1872L23.0247 10.668L12.4553 16.8102L12.8669 19.3295Z" fill="#21201F"/>
</g>
</g>
<g id="Group_65">
<g id="Group_66">
<path id="Vector_30" d="M18.0925 22.1599L28.6619 16.0176C27.7427 14.7992 25.9035 12.6506 24.8508 11.8604C24.4488 11.5597 23.7947 11.1327 23.0247 10.668L12.4553 16.8102C13.2253 17.275 13.8794 17.7019 14.2815 18.0027C15.3341 18.7929 17.1733 20.9414 18.0925 22.1599Z" fill="#434240"/>
</g>
</g>
<g id="Group_67">
<g id="Group_68">
<path id="Vector_31" d="M25.6093 12.4121C22.0861 14.4596 18.5632 16.5072 15.0398 18.5542C16.2112 19.6802 17.7527 21.5291 18.4105 22.4625C19.4831 21.8392 20.5556 21.2159 21.6282 20.5926C24.0788 19.1685 26.5293 17.7444 28.9798 16.3202C28.322 15.3867 26.7807 13.5381 25.6093 12.4121Z" fill="#21201F"/>
</g>
</g>
<g id="Group_69">
<g id="Group_70">
<path id="Vector_32" d="M17.972 22.6642L28.5414 16.5219L28.5483 16.4385L17.9789 22.5807L17.972 22.6642Z" fill="#434240"/>
</g>
</g>
<g id="Group_71">
<g id="Group_72">
<path id="Vector_33" d="M20.0646 11.0503C20.1594 11.105 20.3431 11.2228 20.595 11.3886L11.8667 16.4609L11.9099 18.6862L12.688 18.2341L12.867 19.3295C14.6425 20.5218 16.7142 21.9041 17.9028 22.6128L18.3374 22.3602C18.3552 22.3848 18.3724 22.4088 18.3891 22.4324C18.2233 22.5287 18.0598 22.6237 17.8992 22.7171C15.6212 21.3563 10.1886 17.5928 9.49524 17.1925C13.0184 15.1451 16.5414 13.0977 20.0646 11.0503Z" fill="#3DB44A"/>
</g>
</g>
<g id="Group_73">
<g id="Group_74">
<path id="Vector_34" d="M11.6604 16.341L22.2298 10.1987C21.1764 9.59054 19.8845 8.89661 18.9189 8.47705L8.34949 14.6193C9.31508 15.0389 10.607 15.7328 11.6604 16.341Z" fill="#434240"/>
</g>
</g>
<g id="Group_75">
<g id="Group_76">
<path id="Vector_35" d="M18.7061 8.28174C15.1829 10.3292 11.6599 12.3766 8.13672 14.424C8.95759 14.7642 10.0879 15.3477 11.1815 15.9634C14.7047 13.9159 18.2276 11.8686 21.7508 9.82113C20.6573 9.20545 19.527 8.62199 18.7061 8.28174Z" fill="#21201F"/>
</g>
</g>
<g id="Group_77">
<g id="Group_78">
<path id="Vector_36" d="M11.6604 16.3413C10.607 15.7331 9.31509 15.0392 8.34949 14.6196C8.37559 14.8431 8.50761 16.0256 8.41436 16.3233C8.79308 16.6174 9.19092 16.9106 9.49552 17.0865C9.76385 17.2414 10.7102 17.8774 11.9099 18.6863L11.8667 16.461C11.7984 16.4212 11.7297 16.3813 11.6604 16.3413Z" fill="#434240"/>
</g>
</g>
<g id="Group_79">
<g id="Group_80">
<path id="Vector_37" d="M12.4398 16.7151L23.0092 10.5729L22.4347 10.2451L11.8654 16.3874L12.4398 16.7151Z" fill="#21201F"/>
</g>
</g>
<g id="Group_81">
<g id="Group_82">
<path id="Vector_38" d="M11.8668 16.461L22.4361 10.3187L22.4347 10.2451L11.8654 16.3874L11.8668 16.461Z" fill="#21201F"/>
</g>
</g>
<g id="Group_83">
<g id="Group_84">
<path id="Vector_39" d="M11.8667 16.4607L22.436 10.3184C22.3678 10.2786 22.2991 10.2388 22.2298 10.1987L11.6604 16.341C11.7297 16.381 11.7984 16.4209 11.8667 16.4607Z" fill="#434240"/>
</g>
</g>
<g id="Group_85">
<g id="Group_86">
<path id="Vector_40" d="M12.4554 16.8102L23.0248 10.6679L23.0092 10.5728L12.4398 16.715L12.4554 16.8102Z" fill="#21201F"/>
</g>
</g>
<g id="Group_87">
<g id="Group_88">
<path id="Vector_41" d="M23.1636 10.6464C23.0748 10.5925 22.9846 10.5381 22.893 10.4834C19.3699 12.5309 15.8469 14.5783 12.3237 16.6257C12.4153 16.6804 12.5055 16.7348 12.5942 16.7887C16.1174 14.7412 19.6404 12.6939 23.1636 10.6464Z" fill="#21201F"/>
</g>
</g>
<g id="Group_89">
<g id="Group_90">
<path id="Vector_42" d="M24.8644 11.7616C24.4773 11.4718 23.8689 11.0748 23.1636 10.6465C19.6404 12.6939 16.1174 14.7413 12.5942 16.7887C13.2995 17.2171 13.908 17.6141 14.295 17.9038C14.5124 18.0671 14.766 18.2909 15.0399 18.5541C18.5633 16.507 22.0862 14.4594 25.6094 12.412C25.3355 12.1487 25.0818 11.9249 24.8644 11.7616Z" fill="#21201F"/>
</g>
</g>
<g id="Group_91">
<g id="Group_92">
<path id="Vector_43" d="M17.9721 22.664L28.5415 16.5218C28.5019 16.495 28.4755 16.476 28.4722 16.4702L17.9028 22.6125C17.9061 22.6183 17.9325 22.6372 17.9721 22.664Z" fill="#21201F"/>
</g>
</g>
<g id="Group_93">
<g id="Group_94">
<path id="Vector_44" d="M28.9687 16.9167C28.733 16.7806 28.4818 16.585 28.4685 16.5747L17.8992 22.717C17.9124 22.7273 18.1636 22.9228 18.3993 23.0589C21.5701 21.2162 25.7979 18.7593 28.9687 16.9167Z" fill="#3DB44A"/>
</g>
</g>
<g id="Group_95">
<g id="Group_96">
<path id="Vector_45" d="M17.979 22.5808L28.5484 16.4385C28.572 16.2849 28.612 16.1485 28.662 16.0176L18.0926 22.1598C18.0426 22.2907 18.0026 22.4272 17.979 22.5808Z" fill="#434240"/>
</g>
</g>
<g id="Group_97">
<g id="Group_98">
<path id="Vector_46" d="M18.0757 8.05138C17.3305 7.8316 16.9291 7.72989 16.7254 7.71191C13.2022 9.75935 9.6792 11.8067 6.15601 13.8542C6.35973 13.8721 6.76113 13.9738 7.50636 14.1936C10.6772 12.351 14.9049 9.89406 18.0757 8.05138Z" fill="#21201F"/>
</g>
</g>
<g id="Group_99">
<g id="Group_100">
<path id="Vector_47" d="M17.2993 26.6872L27.8687 20.545L27.5166 19.9199L16.9473 26.0622L17.2993 26.6872Z" fill="#434240"/>
</g>
</g>
<g id="Group_101">
<g id="Group_102">
<path id="Vector_48" d="M22.237 10.0985C22.0765 10.0058 21.914 9.91321 21.7508 9.82129C18.2276 11.8687 14.7046 13.9161 11.1814 15.9635C11.3447 16.0555 11.5071 16.1481 11.6676 16.2408C11.8911 16.3698 12.1109 16.4989 12.3237 16.6261C15.8469 14.5787 19.3698 12.5313 22.893 10.4839C22.6802 10.3566 22.4605 10.2275 22.237 10.0985Z" fill="#21201F"/>
</g>
</g>
<g id="Group_103">
<g id="Group_104">
<path id="Vector_49" d="M29.3026 17.025C29.2471 17.0573 29.1132 17 28.9687 16.9165L18.3993 23.0588C18.5439 23.1422 18.6777 23.1995 18.7333 23.1672C21.9041 21.3246 26.1318 18.8677 29.3026 17.025Z" fill="#3DB44A"/>
</g>
</g>
<g id="Group_105">
<g id="Group_106">
<path id="Vector_50" d="M28.9822 16.3232C28.4936 16.6071 28.0051 16.8911 27.5165 17.175C24.4819 18.9385 21.4474 20.702 18.4127 22.4654C18.5431 22.6505 18.6385 22.7994 18.6891 22.8993C18.7724 23.0627 18.7765 23.1421 18.7333 23.1672L29.3027 17.025C29.3459 16.9999 29.3418 16.9205 29.2585 16.757C29.2079 16.6572 29.1125 16.5083 28.9822 16.3232Z" fill="#21201F"/>
</g>
</g>
<g id="Group_107">
<g id="Group_108">
<path id="Vector_51" d="M16.7253 7.71192C16.6461 7.70494 16.5968 7.7106 16.5688 7.72689L5.99939 13.8691C6.02743 13.8528 6.07676 13.8472 6.15594 13.8542C9.67914 11.8067 13.2021 9.75936 16.7253 7.71192Z" fill="#21201F"/>
</g>
</g>
<g id="Group_109">
<g id="Group_110">
<path id="Vector_52" d="M28.9821 16.3235C28.9813 16.3225 28.9806 16.3214 28.9798 16.3203C27.9072 16.9437 26.8346 17.5671 25.762 18.1904C23.3115 19.6145 20.8611 21.0386 18.4105 22.4627C18.4112 22.4637 18.4119 22.4647 18.4127 22.4657C21.9359 20.4184 25.4589 18.371 28.9821 16.3235Z" fill="#21201F"/>
</g>
</g>
<g id="Group_111">
<g id="Group_112">
<path id="Vector_53" d="M19.7272 23.532C22.1576 24.949 24.6759 27.7464 25.4206 28.512C25.5653 28.6567 25.6378 28.8738 25.6378 29.0445L35.2407 23.4701L35.3751 23.3923L35.7422 23.1752L36.2076 22.9063C36.2076 22.777 35.9646 22.4099 35.7837 22.172C35.7215 22.0945 35.6698 22.0324 35.6337 21.9963C35.2871 21.6395 34.6304 20.9206 33.7772 20.1139C33.7306 20.0674 33.679 20.0207 33.6272 19.9743C32.686 19.0797 31.5225 18.1075 30.297 17.3887L19.7272 23.532Z" fill="#3DB44A"/>
</g>
<g id="Group_113">
<g id="Group_114">
<path id="Vector_54" d="M30.2982 17.3881L19.7289 23.5304C19.5825 23.3203 16.9219 19.5081 14.5459 17.6613L25.1153 11.519C27.4912 13.3658 30.1518 17.178 30.2982 17.3881Z" fill="url(#paint0_linear_307_11172)"/>
</g>
<g id="Group_115">
<path id="Vector_55" d="M15.0006 17.6936C16.7019 19.1157 18.4756 21.3859 19.3754 22.5959C19.6391 22.9529 20.0943 23.113 20.5234 22.9994C24.7069 21.8565 27.9285 20.2845 29.5213 17.9729C29.785 17.5903 29.7695 17.0836 29.4902 16.7111C28.5956 15.5115 26.8684 13.3085 25.2344 11.9435C25.1878 11.9071 25.1413 11.8657 25.0947 11.8296C23.0366 14.3998 19.3806 16.1165 15.2747 17.5954C15.1868 17.6264 15.0937 17.6626 15.0006 17.6936Z" fill="#21201F"/>
</g>
<g id="Group_116">
<path id="Vector_56" d="M29.4188 17.8957C28.5871 19.1073 27.2679 20.1542 25.4396 21.0647C24.9592 21.3013 24.4501 21.5308 23.8981 21.753C23.2026 22.0327 22.4569 22.2908 21.6467 22.5417C21.2739 22.6564 20.8939 22.764 20.4924 22.8715C20.4135 22.893 20.3275 22.9074 20.2415 22.9074C19.9403 22.9074 19.6607 22.764 19.4815 22.5202C19.209 22.1545 18.8649 21.6957 18.4634 21.1938C17.5599 20.0681 16.3984 18.7345 15.2584 17.7451C17.2803 17.0138 19.4098 16.1678 21.2811 15.078C22.7796 14.2247 24.1132 13.2138 25.1098 12.0093C25.4324 12.2746 25.755 12.5757 26.0777 12.8912C26.515 13.3213 26.9452 13.7874 27.3468 14.2533C27.6263 14.5689 27.8916 14.8772 28.1426 15.1855C28.6373 15.795 29.0675 16.3541 29.3901 16.7915C29.6339 17.1213 29.6411 17.5659 29.4188 17.8957Z" fill="#434240"/>
</g>
<g id="Group_117" opacity="0.1">
<path id="Vector_57" d="M26.0777 12.8912L21.6468 22.5417C21.2739 22.6564 20.894 22.764 20.4924 22.8715C20.4135 22.893 20.3275 22.9074 20.2415 22.9074C19.9404 22.9074 19.6607 22.764 19.4815 22.5202C19.209 22.1545 18.8649 21.6957 18.4634 21.1938L21.2811 15.078C22.7796 14.2247 24.1132 13.2138 25.1098 12.0093C25.4324 12.2746 25.7551 12.5757 26.0777 12.8912Z" fill="white"/>
<path id="Vector_58" d="M28.1426 15.1855L25.4396 21.0647C24.9592 21.3014 24.4501 21.5309 23.8981 21.7531L27.3467 14.2534C27.6263 14.5689 27.8916 14.8773 28.1426 15.1855Z" fill="white"/>
</g>
<g id="Group_118">
<path id="Vector_59" d="M15.254 17.7402C16.9089 19.1723 18.5998 21.334 19.4788 22.5182C19.6547 22.7613 19.9443 22.906 20.2443 22.906C20.327 22.906 20.4097 22.8957 20.4925 22.875C25.0482 21.6339 27.9648 20.0051 29.4179 17.9002C29.6454 17.5642 29.6351 17.1195 29.3869 16.7885C29.3197 16.6956 29.242 16.5973 29.1645 16.4888C29.3197 16.7988 29.304 17.1713 29.1024 17.4556C27.6545 19.5602 24.7328 21.1893 20.1822 22.4303C20.0995 22.451 20.0166 22.4614 19.934 22.4614C19.634 22.4614 19.3445 22.3164 19.1686 22.0735C18.3671 20.9928 16.8932 19.1052 15.3833 17.6934C15.3419 17.7091 15.2954 17.7245 15.254 17.7402Z" fill="#21201F"/>
</g>
<g id="Group_119">
<path id="Vector_60" d="M11.3029 15.5855C8.84782 14.1679 5.9415 12.7228 4.32715 12.2668C7.40914 8.50481 10.9041 6.27222 14.8965 6.12451C16.5109 6.58052 19.4173 8.02592 21.8722 9.44319C22.9851 10.0856 24.005 10.7224 24.7698 11.2589C24.8839 11.3387 24.9996 11.4291 25.1154 11.519L14.5459 17.6613C14.4303 17.5714 14.3145 17.481 14.2005 17.4012C13.4356 16.8646 12.4156 16.2278 11.3029 15.5855Z" fill="#3DB44A"/>
</g>
</g>
</g>
<g id="Group_120">
<g id="Group_121">
<path id="Vector_61" d="M4.46788 12.7886L4.32716 12.2666C5.94152 12.7228 8.84793 14.1679 11.3029 15.5853C12.4157 16.2277 13.4357 16.8645 14.2006 17.4009C16.6561 19.1225 19.5754 23.3098 19.729 23.5302C22.159 24.9482 24.6776 27.7475 25.4228 28.5121C25.5646 28.6548 25.6367 28.8752 25.6363 29.0459C25.9441 29.817 25.9167 30.6283 25.6293 31.4701L17.2993 26.6873L16.9473 26.0622L2.64968 17.2109L1.7992 17.312C1.76246 15.5127 1.89906 14.1545 2.29321 13.4521C2.64456 13.1875 4.37671 12.8086 4.46788 12.7886ZM5.99221 14.0184C6.08415 14.2463 6.99059 15.313 7.3107 15.5548C7.63073 15.7927 8.80191 16.792 9.4953 17.1923C10.1886 17.5926 15.6213 21.3561 17.8992 22.7168C17.9125 22.7271 18.1637 22.9227 18.3994 23.0588C18.6564 23.2072 18.8795 23.2729 18.6891 22.8993C18.3241 22.1793 15.6282 18.9053 14.295 17.9038C13.7461 17.4929 12.7517 16.8662 11.6677 16.2404C10.119 15.3462 8.38682 14.4536 7.50636 14.1934C6.01279 13.7529 5.90029 13.7867 5.99221 14.0184Z" fill="url(#paint1_linear_307_11172)"/>
</g>
</g>
<g id="Group_122">
<g id="Group_123">
<g id="Group_124">
<g id="Group_125">
<path id="Vector_62" d="M6.92779 16.6668C6.61169 16.4843 6.35376 16.476 6.35327 16.6489C6.35278 16.8238 6.60991 17.1127 6.92601 17.2952C7.24206 17.4777 7.49831 17.4852 7.49881 17.3103C7.4993 17.1374 7.24384 16.8493 6.92779 16.6668Z" fill="url(#paint2_linear_307_11172)"/>
</g>
</g>
</g>
</g>
<g id="Group_126">
<g id="Group_127">
<g id="Group_128">
<g id="Group_129">
<path id="Vector_63" d="M13.0951 20.3558C12.7791 20.1733 12.5211 20.1649 12.5206 20.3379C12.5201 20.5127 12.7773 20.8016 13.0934 20.9841C13.4094 21.1666 13.6657 21.1741 13.6662 20.9993C13.6667 20.8263 13.4112 20.5383 13.0951 20.3558Z" fill="url(#paint3_linear_307_11172)"/>
</g>
</g>
</g>
</g>
<g id="Group_130">
<g id="Group_131">
<path id="Vector_64" d="M18.0925 22.1597C17.1733 20.9413 15.3341 18.7927 14.2815 18.0025C13.8794 17.7017 13.2253 17.2748 12.4553 16.8101L12.8669 19.3293C14.6425 20.5216 16.7141 21.9039 17.9027 22.6126C17.9061 22.6184 17.9325 22.6374 17.972 22.6641L17.9789 22.5807C18.0025 22.4271 18.0425 22.2906 18.0925 22.1597Z" fill="#434240"/>
</g>
</g>
<g id="Group_132">
<g id="Group_133">
<path id="Vector_65" d="M11.6676 16.2404C12.7517 16.8663 13.746 17.4929 14.2949 17.9039C15.6281 18.9053 18.324 22.1793 18.6891 22.8993C18.8794 23.2729 18.6563 23.2072 18.3993 23.0588C18.1636 22.9227 17.9124 22.7271 17.8992 22.7169C15.6212 21.3561 10.1885 17.5926 9.49522 17.1923C8.80183 16.792 7.63065 15.7928 7.31062 15.5548C6.99051 15.3131 6.08407 14.2463 5.99213 14.0184C5.90021 13.7868 6.01271 13.753 7.50628 14.1935C8.38674 14.4536 10.1189 15.3463 11.6676 16.2404ZM7.32409 15.4562C7.37359 15.4939 7.44448 15.5494 7.53104 15.6188L7.4988 15.6597L8.40298 16.3527C8.40714 16.3441 8.41093 16.3342 8.41437 16.323C8.79309 16.6171 9.19092 16.9103 9.49552 17.0861C9.76385 17.241 10.7102 17.8771 11.9099 18.686L11.9115 18.7659L12.8786 19.4003L12.867 19.3293C14.6425 20.5216 16.7142 21.9038 17.9028 22.6126C17.9061 22.6184 17.9325 22.6373 17.9721 22.6641L17.9789 22.5807C18.0025 22.4271 18.0426 22.2906 18.0925 22.1597C17.1733 20.9412 15.3341 18.7927 14.2815 18.0025C13.8794 17.7017 13.2253 17.2748 12.4553 16.81L12.4397 16.7148L11.8653 16.3871L11.8667 16.4607C11.7984 16.4209 11.7297 16.381 11.6604 16.341C10.607 15.7328 9.31509 15.0389 8.34949 14.6193C8.34669 14.5956 8.34519 14.5834 8.34511 14.5827L8.32477 14.6087C8.02013 14.477 7.74888 14.3733 7.5291 14.3091C7.06982 14.1732 6.11817 13.8937 6.05835 13.9845C6.1372 14.1743 7.01059 15.222 7.32409 15.4562Z" fill="#21201F"/>
</g>
</g>
<g id="Group_134">
<g id="Group_135">
<path id="Vector_66" d="M6.05835 13.9847L6.08077 13.9717C6.08049 13.9718 6.0801 13.9718 6.07982 13.9719C6.07978 13.9719 6.07986 13.9718 6.07982 13.9719C6.07496 13.9732 6.07076 13.9749 6.06732 13.9769C6.0634 13.9791 6.06034 13.9817 6.05835 13.9847ZM7.94011 15.0984C7.73089 15.22 7.52535 15.3395 7.32409 15.4564L7.94011 15.0984Z" fill="#3DB44A"/>
</g>
</g>
<g id="Group_136">
<g id="Group_137">
<path id="Vector_67" d="M6.0669 13.977L6.25587 13.8672C6.25694 13.8674 6.25796 13.8675 6.25905 13.8677C6.25984 13.8678 6.26063 13.8679 6.26143 13.8681C6.19315 13.9069 6.12528 13.9458 6.05835 13.9847C6.06029 13.9817 6.06314 13.9792 6.0669 13.977Z" fill="#21201F"/>
</g>
</g>
<g id="Group_138">
<g id="Group_139">
<path id="Vector_68" d="M7.5291 14.3092C7.06982 14.1733 6.11817 13.8938 6.05835 13.9846C6.1372 14.1744 7.01059 15.2221 7.32409 15.4563C7.3736 15.494 7.44448 15.5495 7.53104 15.6189L8.32477 14.6089C8.02013 14.4771 7.74888 14.3735 7.5291 14.3092Z" fill="#434240"/>
</g>
</g>
<g id="Group_140">
<g id="Group_141">
<path id="Vector_69" d="M12.4398 16.715L11.8654 16.3872L11.8668 16.4608L11.91 18.6861L11.9115 18.766L12.8787 19.4004L12.867 19.3294L12.4554 16.8101L12.4398 16.715Z" fill="#21201F"/>
</g>
</g>
<g id="Group_142">
<g id="Group_143">
<path id="Vector_70" d="M25.6274 31.4697C30.6279 30.4873 33.9013 28.4652 35.7733 25.9004C35.8508 25.7918 35.9232 25.6779 35.9801 25.559C36.1198 25.2901 36.1973 24.9954 36.2024 24.6904V24.0698L36.2076 23.6716V22.9062L35.7423 23.1752L35.3751 23.3873V23.3923L35.2407 23.4701L25.6378 29.0445C25.9433 29.7989 25.9179 30.611 25.6274 31.4697Z" fill="#3DB44A"/>
</g>
</g>
</g>
</g>
<g id="Group_144">
<path id="Vector_71" d="M7.4989 15.6615L8.40385 16.3544C8.40903 16.344 8.40903 16.3337 8.41421 16.3233C8.46597 16.1579 8.45044 15.7287 8.41938 15.3408L8.86921 14.8341L8.34704 14.5806L8.32634 14.6066L7.52996 15.6201L7.4989 15.6615Z" fill="#21201F"/>
</g>
</g>
<g id="Group_145">
<g id="Group_146">
<path id="Vector_72" d="M2.64962 17.2109L1.79908 17.3122L1.79249 17.423C1.79079 18.0224 2.21205 18.7519 2.73366 19.0531L24.4484 31.5901C24.7158 31.7445 24.977 31.7812 25.179 31.6927L25.4744 31.5528L25.6293 31.4701L17.2993 26.6874L16.9472 26.0623L2.64962 17.2109Z" fill="#2D2C2B"/>
</g>
</g>
<g id="Group_147">
<path id="Vector_73" d="M2.36152 13.4326C2.36152 13.4326 2.28839 13.9526 2.66215 14.1883C3.0359 14.4239 4.22217 14.952 3.90529 15.1551C3.58841 15.3583 2.41839 15.3339 2.02839 14.887C1.63838 14.4401 2.25589 13.4651 2.36152 13.4326Z" fill="#F25A5A"/>
</g>
<g id="Group_148">
<g id="Group_149">
<g id="Group_150">
<path id="Vector_74" d="M5.92206 18.6595C4.85018 18.0407 3.97978 18.5317 3.9745 19.7619C3.97091 20.995 4.83639 22.4939 5.90943 23.1134C6.97916 23.731 7.85029 23.2347 7.85377 22.0055C7.85548 20.7693 6.99071 19.2765 5.92206 18.6595Z" fill="#434240"/>
</g>
</g>
<g id="Group_151">
<g id="Group_152">
<path id="Vector_75" d="M5.91982 18.2594C5.2199 17.8553 4.59489 17.8592 4.17727 18.1844C3.8359 18.447 3.63281 18.9188 3.63098 19.5637L3.97445 19.762C3.97973 18.5317 4.85013 18.0408 5.92201 18.6596C6.99066 19.2766 7.85544 20.7694 7.85374 22.0017L8.20043 22.2018C8.20206 21.6253 8.03852 20.9951 7.76237 20.4023C7.35152 19.5115 6.67591 18.6959 5.91982 18.2594Z" fill="#434240"/>
</g>
</g>
</g>
<g id="Group_153">
<g id="Group_154">
<g id="Group_155">
<path id="Vector_76" d="M20.676 27.1556C19.6041 26.5368 18.7337 27.0278 18.7284 28.258C18.7248 29.4911 19.5903 30.99 20.6633 31.6095C21.7331 32.2271 22.6042 31.7308 22.6077 30.5016C22.6094 29.2654 21.7446 27.7726 20.676 27.1556Z" fill="#434240"/>
</g>
</g>
<g id="Group_156">
<g id="Group_157">
<path id="Vector_77" d="M20.6737 26.7555C19.9738 26.3514 19.3488 26.3553 18.9312 26.6805C18.5898 26.9431 18.3867 27.4149 18.3849 28.0597L18.7284 28.2581C18.7336 27.0278 19.604 26.5369 20.6759 27.1557C21.7446 27.7727 22.6093 29.2655 22.6076 30.4978L22.9543 30.6979C22.956 30.1214 22.7924 29.4912 22.5163 28.8984C22.1054 28.0076 21.4298 27.192 20.6737 26.7555Z" fill="#434240"/>
</g>
</g>
</g>
<g id="Group_158">
<g id="Group_159">
<g id="Group_160">
<path id="Vector_78" d="M4.31509 19.9572C4.31039 20.9652 5.02287 22.2073 5.89464 22.7135C5.89933 22.7135 5.90402 22.7181 5.90872 22.7229C5.9181 22.7275 5.92279 22.7275 5.93218 22.7321C6.79937 23.2338 7.51654 22.8259 7.51654 21.8088C7.51654 20.7917 6.80864 19.559 5.92279 19.0479C5.02756 18.5277 4.32447 18.9543 4.31509 19.9572ZM4.80727 19.6668L4.84939 19.7558C4.83073 19.8025 4.81654 19.8588 4.77912 19.873C4.76974 19.8824 4.75566 19.8824 4.74159 19.873C4.71813 19.8588 4.69936 19.8213 4.69936 19.7792C4.71355 19.7465 4.7322 19.6995 4.75097 19.648C4.75566 19.6245 4.76974 19.6199 4.77912 19.6245C4.78851 19.6339 4.79789 19.648 4.80727 19.6668ZM5.49629 19.3434C5.63682 19.6105 5.68843 19.8682 5.68374 20.1074C5.68374 20.2667 5.58532 20.3418 5.4353 20.2573C5.37911 20.2058 5.32281 20.1589 5.27131 20.1074C5.10721 19.9527 4.95718 19.7792 4.84 19.5636L4.83531 19.4979C4.96657 19.3198 5.14944 19.2308 5.38849 19.2496C5.40726 19.2496 5.42122 19.2542 5.4306 19.259C5.45876 19.2777 5.47283 19.3011 5.49629 19.3434ZM5.80561 19.4089C5.80561 19.4794 5.76338 19.4698 5.7072 19.451C5.68374 19.4418 5.66497 19.4324 5.65101 19.4276C5.61347 19.4043 5.60409 19.3761 5.56655 19.2729C5.64162 19.2965 5.71189 19.3198 5.78215 19.3526L5.80561 19.4089ZM6.69146 20.234C6.61181 20.4589 6.44782 20.5525 6.22273 20.534C6.19938 20.534 6.17123 20.5198 6.14308 20.5056C6.04467 20.4496 5.95094 20.3182 5.92279 20.187C5.89464 20.0369 5.87599 19.887 5.85722 19.7558C5.87118 19.648 5.88057 19.5636 5.89933 19.4794C5.90872 19.4464 5.9181 19.4183 5.96502 19.4464C5.96502 19.4464 5.96971 19.4464 5.96971 19.451C6.23211 19.6151 6.47128 19.8495 6.67749 20.1541L6.69146 20.234ZM6.96335 20.6416H6.92124V20.637C6.86494 20.6043 6.77591 20.4496 6.78529 20.412L6.82283 20.3511L6.87902 20.426L6.94459 20.5573L6.96335 20.6416ZM7.16018 21.7713L7.12745 21.7946C7.07115 21.7713 7.01496 21.7479 6.96335 21.7198C6.95397 21.715 6.94459 21.7104 6.9352 21.701C6.80406 21.6166 6.68219 21.49 6.56031 21.3495C6.4009 21.162 6.34472 20.951 6.42905 20.8432C6.45251 20.8151 6.49463 20.7963 6.53216 20.7823C6.66811 20.726 6.81802 20.7121 6.9962 20.7729C7.00089 20.7775 7.00558 20.7775 7.01496 20.7823C7.03842 20.7963 7.05238 20.8199 7.06646 20.8572C7.14622 21.0963 7.18833 21.3213 7.19303 21.5417C7.18364 21.6214 7.17437 21.6962 7.16018 21.7713ZM7.05719 22.1228C7.01966 22.0901 6.9962 22.0105 7.01027 21.9775L7.02904 21.9306C7.03373 21.8839 7.06177 21.8697 7.09461 21.8885C7.0993 21.8885 7.0993 21.8933 7.104 21.8978C7.11338 21.8978 7.11807 21.9027 7.12276 21.9072C7.15561 21.926 7.16957 21.9402 7.15561 21.9729C7.13684 22.0244 7.11807 22.0713 7.09461 22.1183L7.05719 22.1228ZM6.34929 22.4089C6.19938 22.1183 6.14777 21.8464 6.16185 21.5978C6.17123 21.4573 6.28372 21.4104 6.39621 21.476C6.41029 21.4806 6.41967 21.49 6.43375 21.4994C6.66342 21.6916 6.86963 21.926 7.02904 22.2354C7.00558 22.2634 6.98212 22.2869 6.96335 22.3103C6.82283 22.4462 6.64465 22.5073 6.42436 22.4744C6.41498 22.4744 6.4056 22.4744 6.39621 22.4698C6.37744 22.4556 6.36337 22.4368 6.34929 22.4089ZM6.05874 22.3901C6.05405 22.2682 6.07751 22.2588 6.20877 22.3197H6.21346C6.24619 22.3384 6.27903 22.4041 6.28841 22.4744C6.21346 22.4462 6.13839 22.4229 6.05874 22.3901ZM5.93687 21.0448C5.86191 21.0027 5.79623 20.8947 5.80092 20.8105C5.80092 20.7308 5.8666 20.6885 5.93687 20.7308C6.00713 20.7729 6.07282 20.8807 6.07282 20.9652C6.07751 21.0542 6.01182 21.0915 5.93687 21.0448ZM5.18686 21.4667L5.20093 21.4431C5.276 21.298 5.40726 21.2323 5.56186 21.2135C5.60878 21.2087 5.66028 21.2229 5.7072 21.2463C5.81499 21.3119 5.90872 21.4479 5.93687 21.5838C5.96502 21.7292 5.97909 21.8745 6.00255 22.0105C5.98836 22.1089 5.96971 22.1931 5.96033 22.2775C5.95094 22.329 5.92748 22.3245 5.88537 22.3009C5.65558 22.1604 5.44937 21.9635 5.25723 21.715C5.15413 21.579 5.14944 21.5651 5.18686 21.4667ZM4.91976 21.1478L5.00879 21.176C5.08844 21.2556 5.11659 21.3822 5.0651 21.4573C5.01818 21.3776 4.98064 21.3074 4.94311 21.2371L4.91976 21.1478ZM4.65256 20.0323C4.65256 19.976 4.68071 19.9714 4.71813 19.9854C4.77443 20.0042 4.82593 20.0277 4.87754 20.0557C5.03225 20.1449 5.17747 20.2854 5.31811 20.4496C5.44937 20.6043 5.49629 20.8338 5.41184 20.9089C5.27131 21.0307 5.09783 21.0776 4.87754 21.0213C4.86815 21.0167 4.86346 21.0167 4.85408 21.0119C4.83531 20.9979 4.82593 20.9792 4.81197 20.9464C4.70417 20.6745 4.65256 20.4168 4.65256 20.1728C4.65256 20.1262 4.65725 20.0838 4.65256 20.0323Z" fill="white"/>
</g>
</g>
</g>
<g id="Group_161">
<g id="Group_162">
<g id="Group_163">
<path id="Vector_79" d="M19.0447 28.4572C19.04 29.4652 19.7525 30.7073 20.6243 31.2135C20.6289 31.2135 20.6336 31.2181 20.6383 31.2229C20.6477 31.2275 20.6524 31.2275 20.6618 31.2321C21.529 31.7338 22.2462 31.3259 22.2462 30.3088C22.2462 29.2917 21.5383 28.059 20.6524 27.5479C19.7572 27.0277 19.0541 27.4543 19.0447 28.4572ZM19.5369 28.1668L19.579 28.2558C19.5603 28.3025 19.5462 28.3588 19.5087 28.373C19.4994 28.3824 19.4853 28.3824 19.4712 28.373C19.4477 28.3588 19.429 28.3213 19.429 28.2792C19.4432 28.2465 19.4618 28.1995 19.4806 28.148C19.4853 28.1245 19.4994 28.1199 19.5087 28.1245C19.5181 28.1339 19.5275 28.148 19.5369 28.1668ZM20.2259 27.8434C20.3664 28.1105 20.418 28.3682 20.4133 28.6074C20.4133 28.7667 20.3149 28.8418 20.1649 28.7573C20.1087 28.7058 20.0524 28.6589 20.0009 28.6074C19.8368 28.4527 19.6868 28.2792 19.5696 28.0636L19.5649 27.9979C19.6962 27.8198 19.8791 27.7308 20.1181 27.7496C20.1369 27.7496 20.1508 27.7542 20.1602 27.759C20.1884 27.7777 20.2024 27.8011 20.2259 27.8434ZM20.5352 27.9089C20.5352 27.9794 20.493 27.9698 20.4368 27.951C20.4133 27.9418 20.3946 27.9324 20.3806 27.9276C20.3431 27.9043 20.3337 27.8761 20.2962 27.7729C20.3712 27.7965 20.4415 27.8198 20.5118 27.8526L20.5352 27.9089ZM21.4211 28.734C21.3414 28.9589 21.1774 29.0525 20.9523 29.034C20.929 29.034 20.9008 29.0198 20.8727 29.0056C20.7743 28.9496 20.6806 28.8182 20.6524 28.687C20.6243 28.5369 20.6056 28.387 20.5868 28.2558C20.6008 28.148 20.6102 28.0636 20.6289 27.9794C20.6383 27.9464 20.6477 27.9183 20.6946 27.9464C20.6946 27.9464 20.6993 27.9464 20.6993 27.951C20.9617 28.1151 21.2009 28.3494 21.4071 28.6541L21.4211 28.734ZM21.693 29.1416H21.6509V29.137C21.5946 29.1043 21.5055 28.9496 21.5149 28.912L21.5524 28.8511L21.6086 28.926L21.6742 29.0574L21.693 29.1416ZM21.8898 30.2713L21.8571 30.2946C21.8008 30.2713 21.7446 30.2479 21.693 30.2198C21.6836 30.215 21.6742 30.2104 21.6648 30.201C21.5337 30.1166 21.4118 29.99 21.2899 29.8495C21.1305 29.662 21.0743 29.451 21.1587 29.3432C21.1821 29.3151 21.2242 29.2963 21.2618 29.2823C21.3977 29.226 21.5476 29.2121 21.7258 29.2729C21.7305 29.2775 21.7352 29.2775 21.7446 29.2823C21.768 29.2963 21.782 29.3199 21.7961 29.3572C21.8758 29.5963 21.9179 29.8213 21.9226 30.0417C21.9133 30.1214 21.904 30.1962 21.8898 30.2713ZM21.7868 30.6228C21.7493 30.5901 21.7258 30.5105 21.7399 30.4775L21.7587 30.4306C21.7633 30.3839 21.7914 30.3697 21.8242 30.3885C21.8289 30.3885 21.8289 30.3933 21.8336 30.3978C21.843 30.3978 21.8477 30.4027 21.8524 30.4072C21.8852 30.426 21.8992 30.4402 21.8852 30.4729C21.8665 30.5244 21.8477 30.5713 21.8242 30.6182L21.7868 30.6228ZM21.0789 30.9089C20.929 30.6182 20.8774 30.3464 20.8915 30.0978C20.9008 29.9573 21.0133 29.9104 21.1258 29.976C21.1399 29.9806 21.1493 29.99 21.1634 29.9994C21.393 30.1916 21.5992 30.426 21.7587 30.7354C21.7352 30.7634 21.7117 30.7869 21.693 30.8103C21.5524 30.9462 21.3743 31.0073 21.154 30.9744C21.1446 30.9744 21.1352 30.9744 21.1258 30.9698C21.1071 30.9556 21.093 30.9368 21.0789 30.9089ZM20.7884 30.8901C20.7837 30.7682 20.8071 30.7588 20.9384 30.8197H20.9431C20.9758 30.8384 21.0086 30.9041 21.018 30.9744C20.9431 30.9462 20.868 30.9229 20.7884 30.8901ZM20.6665 29.5448C20.5915 29.5027 20.5258 29.3947 20.5305 29.3105C20.5305 29.2308 20.5962 29.1885 20.6665 29.2308C20.7367 29.2729 20.8024 29.3807 20.8024 29.4652C20.8071 29.5542 20.7414 29.5915 20.6665 29.5448ZM19.9165 29.9667L19.9305 29.9431C20.0056 29.798 20.1369 29.7323 20.2915 29.7135C20.3384 29.7087 20.3899 29.7229 20.4368 29.7463C20.5446 29.8119 20.6383 29.9479 20.6665 30.0838C20.6946 30.2292 20.7087 30.3745 20.7322 30.5105C20.718 30.6089 20.6993 30.6931 20.6899 30.7775C20.6806 30.829 20.6571 30.8245 20.615 30.8009C20.3852 30.6604 20.179 30.4635 19.9868 30.215C19.8837 30.079 19.8791 30.0651 19.9165 29.9667ZM19.6494 29.6478L19.7384 29.676C19.8181 29.7556 19.8462 29.8822 19.7947 29.9573C19.7478 29.8776 19.7103 29.8074 19.6727 29.7371L19.6494 29.6478ZM19.3822 28.5323C19.3822 28.476 19.4103 28.4714 19.4477 28.4854C19.504 28.5042 19.5555 28.5277 19.6072 28.5557C19.7619 28.6449 19.9071 28.7854 20.0477 28.9496C20.179 29.1043 20.2259 29.3338 20.1415 29.4089C20.0009 29.5307 19.8274 29.5776 19.6072 29.5213C19.5978 29.5167 19.5931 29.5167 19.5837 29.5119C19.5649 29.4979 19.5555 29.4792 19.5416 29.4464C19.4338 29.1745 19.3822 28.9168 19.3822 28.6728C19.3822 28.6262 19.3869 28.5838 19.3822 28.5323Z" fill="white"/>
</g>
</g>
</g>
<g id="Group_164">
<g id="Group_165">
<g id="Group_166">
<g id="Group_167">
<path id="Vector_80" d="M33.1903 27.5853C33.2319 27.5525 33.287 27.4709 33.3519 27.3613L29.9611 29.319C30.0415 29.3447 30.1119 29.3538 30.1562 29.3372C31.1623 29.01 32.6989 28.0279 33.1903 27.5853Z" fill="#21201F"/>
</g>
</g>
<g id="Group_168">
<g id="Group_169">
<path id="Vector_81" d="M29.8188 29.2707C29.8727 29.289 29.9193 29.3073 29.9611 29.3192L33.3519 27.3615C33.3826 27.3078 33.4153 27.2437 33.4474 27.1758L29.8188 29.2707Z" fill="#434240"/>
</g>
</g>
<g id="Group_170">
<g id="Group_171">
<path id="Vector_82" d="M33.4473 27.1756C33.5075 27.0597 33.5714 26.9235 33.6314 26.7852L29.5573 29.1374C29.6491 29.188 29.737 29.2365 29.8188 29.2705L33.4473 27.1756Z" fill="#21201F"/>
</g>
</g>
<g id="Group_172">
<g id="Group_173">
<path id="Vector_83" d="M29.4487 29.0739C29.4854 29.0979 29.5213 29.1176 29.5572 29.1374L33.6314 26.7852L33.6979 26.6206L29.4487 29.0739Z" fill="#434240"/>
</g>
</g>
<g id="Group_174">
<g id="Group_175">
<path id="Vector_84" d="M33.698 26.6208C33.7495 26.4965 33.7944 26.3759 33.8359 26.2573L29.217 28.924C29.291 28.976 29.369 29.0302 29.4488 29.0741L33.698 26.6208Z" fill="#21201F"/>
</g>
</g>
<g id="Group_176">
<g id="Group_177">
<path id="Vector_85" d="M29.1177 28.8505L29.217 28.9239L33.8359 26.2572L33.8984 26.0903L29.1177 28.8505Z" fill="#434240"/>
</g>
</g>
<g id="Group_178">
<g id="Group_179">
<path id="Vector_86" d="M33.8984 26.0901C33.9393 25.9674 33.9761 25.8425 34.0033 25.7456L28.9221 28.6792C28.9808 28.7265 29.0463 28.7924 29.1176 28.8502L33.8984 26.0901Z" fill="#21201F"/>
</g>
</g>
<g id="Group_180">
<g id="Group_181">
<path id="Vector_87" d="M28.8499 28.5951L28.9221 28.6796L34.0033 25.7459L34.0433 25.5967L28.8499 28.5951Z" fill="#434240"/>
</g>
</g>
<g id="Group_182">
<g id="Group_183">
<path id="Vector_88" d="M29.2366 27.4073C29.2334 27.412 29.1729 27.5025 29.089 27.6277L33.5462 25.0543C33.4387 25.0396 33.3611 25.0289 33.3571 25.0283L29.2366 27.4073Z" fill="#21201F"/>
</g>
</g>
<g id="Group_184">
<g id="Group_185">
<path id="Vector_89" d="M29.089 27.6276C29.0516 27.6851 29.0123 27.7528 28.973 27.8207L33.7009 25.091C33.6444 25.0784 33.5946 25.0622 33.5462 25.0542L29.089 27.6276Z" fill="#434240"/>
</g>
</g>
<g id="Group_186">
<g id="Group_187">
<path id="Vector_90" d="M28.7444 28.399C28.7428 28.454 28.783 28.5207 28.8499 28.5948L34.0433 25.5964C34.0722 25.467 34.0816 25.3716 34.0666 25.3262L34.0552 25.3013L28.7462 28.3664L28.7444 28.399Z" fill="#21201F"/>
</g>
</g>
<g id="Group_188">
<g id="Group_189">
<path id="Vector_91" d="M28.7796 28.2209C28.7635 28.2755 28.7458 28.3217 28.7462 28.3667L34.0552 25.3015C34.0383 25.266 34.0163 25.2428 33.9796 25.2188L28.7796 28.2209Z" fill="#434240"/>
</g>
</g>
<g id="Group_190">
<g id="Group_191">
<path id="Vector_92" d="M28.9731 27.821C28.897 27.9504 28.8198 28.0943 28.7797 28.2209L33.9796 25.2187C33.9077 25.1568 33.8065 25.1159 33.7009 25.0913L28.9731 27.821Z" fill="#21201F"/>
</g>
</g>
</g>
</g>
<g id="Group_192">
<g id="Group_193">
<path id="Vector_93" d="M27.9922 28.2991C27.9922 28.2991 27.9217 29.0678 27.4669 29.1639C27.012 29.26 25.9422 29.1511 25.7885 29.1639C25.6348 29.1767 24.0461 27.6521 23.8283 27.3253C23.6105 26.9986 23.7514 26.6655 23.7514 26.6655C23.7514 26.6655 26.8775 28.3823 27.9922 28.2991Z" fill="#E9E8E6"/>
</g>
<g id="Group_194">
<path id="Vector_94" d="M35.3751 23.3923C35.3648 23.5941 35.3285 23.7801 35.2459 23.9612C35.2459 23.9612 35.6802 24.1422 35.7939 24.018C35.856 23.9508 36.0732 23.6819 36.2076 23.3976V22.9062C36.2076 22.777 35.9646 22.4098 35.7837 22.172C35.7216 22.0945 35.6698 22.0323 35.6337 21.9962C35.2871 21.6395 34.6304 20.9206 33.7772 20.1139C33.7668 20.1088 33.7513 20.1035 33.741 20.1035C33.8392 20.2121 35.4268 21.9859 35.3751 23.3873V23.3923Z" fill="#E9E8E6"/>
</g>
</g>
<g id="Group_195">
<g id="Group_196">
<g id="Group_197">
<path id="Vector_95" d="M26.5855 29.6925C26.1702 30.0653 25.9811 30.489 26.1894 31.0135C26.5243 30.9457 26.8626 30.8605 27.2047 30.7464C27.2487 30.7317 27.2929 30.7166 27.3369 30.701C27.4238 30.672 27.5144 30.6375 27.6019 30.5838C27.8576 30.4284 28.0571 30.1398 28.2417 29.8643L28.2643 29.7291C28.0202 29.5513 27.6759 29.5838 27.3494 29.6188C27.0948 29.6419 26.8401 29.6693 26.5855 29.6925Z" fill="#3DB44A"/>
</g>
</g>
<g id="Group_198">
<g id="Group_199">
<path id="Vector_96" d="M34.8114 25.5068L34.8476 25.631C35.0441 25.75 35.2612 25.8689 35.5044 25.8068C35.5871 25.781 35.6698 25.7396 35.7474 25.6932C35.7887 25.6724 35.8301 25.6467 35.8715 25.626C35.9076 25.6053 35.9439 25.5846 35.9801 25.5586C36.1197 25.2897 36.1972 24.995 36.2024 24.69V24.0693C36.0008 24.2504 35.7939 24.4261 35.5923 24.6072C35.3026 24.8503 34.9976 25.119 34.8114 25.5068Z" fill="#3DB44A"/>
</g>
</g>
</g>
<g id="Group_200">
<g id="Group_201">
<path id="Vector_97" d="M27.1891 28.4098C27.0703 28.4784 26.9936 28.655 27.0188 28.8044C27.0438 28.9522 27.1614 29.0184 27.2802 28.9498C27.4002 28.8805 27.4778 28.7016 27.4529 28.5537C27.4277 28.4044 27.3092 28.3405 27.1891 28.4098Z" fill="#FFD651"/>
</g>
</g>
<g id="Group_202">
<g id="Group_203">
<path id="Vector_98" d="M35.6819 23.1954C35.5631 23.264 35.4864 23.4407 35.5116 23.59C35.5366 23.7379 35.6542 23.804 35.773 23.7354C35.893 23.6661 35.9706 23.4873 35.9457 23.3394C35.9205 23.19 35.802 23.1261 35.6819 23.1954Z" fill="#FFD651"/>
</g>
</g>
<g id="Group_204">
<g id="Group_205">
<path id="Vector_99" d="M26.1597 28.0771C25.942 28.2028 25.8015 28.5265 25.8476 28.8001C25.8933 29.0711 26.1088 29.1924 26.3266 29.0667C26.5466 28.9396 26.6888 28.6119 26.6431 28.3409C26.597 28.0672 26.3797 27.9501 26.1597 28.0771Z" fill="#FFD651"/>
</g>
</g>
</g>
</g>
</g>
</g>
</g>
<g id="Group_206">
<g id="Group_207">
<g id="Group_208">
<g id="Group_209">
<path id="Vector_100" d="M18.8599 23.6273L18.6053 23.4794L18.9756 23.2656L19.2301 23.4135L18.8599 23.6273Z" fill="#434240"/>
<path id="Vector_101" d="M18.8252 23.5297C18.8054 23.5178 18.7776 23.5217 18.7418 23.5416L17.7767 24.0976C17.7132 24.1334 17.6615 24.2207 17.6615 24.2962L17.6655 24.884C17.6655 24.9197 17.6774 24.9475 17.6973 24.9595L17.4433 24.8127C17.4235 24.8008 17.4116 24.773 17.4116 24.7372L17.4076 24.1454C17.4076 24.074 17.4592 23.9866 17.5228 23.9508L18.4879 23.3908C18.5236 23.375 18.5514 23.371 18.5713 23.3829L18.8252 23.5297Z" fill="#434240"/>
<path id="Vector_102" d="M18.7428 23.5402C18.8088 23.5022 18.8596 23.5312 18.8598 23.604L18.8599 23.6273L19.2301 23.4136L19.2306 23.5651L18.8603 23.7788L18.8615 24.1926C18.8617 24.2684 18.8112 24.3559 18.7452 24.394L17.7791 24.9518C17.7157 24.9884 17.6648 24.9594 17.6646 24.8836L17.663 24.295C17.6628 24.2222 17.7133 24.1346 17.7767 24.098L18.7428 23.5402Z" fill="#2D2C2B"/>
</g>
</g>
</g>
</g>
</g>
<path id="Vector_103" d="M19.5633 18.3881C19.3371 18.4619 19.1354 18.5898 18.9731 18.757C18.8059 18.9292 18.678 19.1308 18.6042 19.3522C18.5747 19.4259 18.4813 19.4259 18.4517 19.3522C18.3042 18.8948 17.95 18.5357 17.4926 18.3881C17.4188 18.3685 17.4188 18.2701 17.4926 18.2455C17.7188 18.1668 17.9205 18.0438 18.0927 17.8766C18.2501 17.7143 18.378 17.5077 18.4517 17.2863C18.4813 17.2027 18.5747 17.2027 18.6042 17.2863C18.678 17.5077 18.8059 17.7143 18.9731 17.8766C19.1354 18.0438 19.3371 18.1668 19.5633 18.2455C19.6371 18.2701 19.6371 18.3685 19.5633 18.3881Z" fill="white"/>
</g>
</g>
</g>
<defs>
<filter id="filter0_d_307_11172" x="-2.20752" y="6.12451" width="42.4152" height="33.7505" filterUnits="userSpaceOnUse" color-interpolation-filters="sRGB">
<feFlood flood-opacity="0" result="BackgroundImageFix"/>
<feColorMatrix in="SourceAlpha" type="matrix" values="0 0 0 0 0 0 0 0 0 0 0 0 0 0 0 0 0 0 127 0" result="hardAlpha"/>
<feOffset dy="4"/>
<feGaussianBlur stdDeviation="2"/>
<feComposite in2="hardAlpha" operator="out"/>
<feColorMatrix type="matrix" values="0 0 0 0 0 0 0 0 0 0 0 0 0 0 0 0 0 0 0.07 0"/>
<feBlend mode="normal" in2="BackgroundImageFix" result="effect1_dropShadow_307_11172"/>
<feBlend mode="normal" in="SourceGraphic" in2="effect1_dropShadow_307_11172" result="shape"/>
</filter>
<linearGradient id="paint0_linear_307_11172" x1="22.4221" y1="11.519" x2="22.4221" y2="23.5304" gradientUnits="userSpaceOnUse">
<stop stop-color="#3DB44A"/>
<stop offset="1" stop-color="#1B6D24"/>
</linearGradient>
<linearGradient id="paint1_linear_307_11172" x1="13.8248" y1="12.2666" x2="13.8248" y2="31.4701" gradientUnits="userSpaceOnUse">
<stop stop-color="#3DB44A"/>
<stop offset="1" stop-color="#1B6D24"/>
</linearGradient>
<linearGradient id="paint2_linear_307_11172" x1="6.92604" y1="16.5244" x2="6.92604" y2="17.4369" gradientUnits="userSpaceOnUse">
<stop stop-color="#3DB44A"/>
<stop offset="1" stop-color="#1B6D24"/>
</linearGradient>
<linearGradient id="paint3_linear_307_11172" x1="13.0934" y1="20.2134" x2="13.0934" y2="21.1258" gradientUnits="userSpaceOnUse">
<stop stop-color="#3DB44A"/>
<stop offset="1" stop-color="#1B6D24"/>
</linearGradient>
<clipPath id="clip0_307_11172">
<rect width="38" height="38" fill="white"/>
</clipPath>
</defs>
</svg>
