<svg width="20" height="20" viewBox="0 0 20 20" fill="none" xmlns="http://www.w3.org/2000/svg">
<path d="M2 12.9686C2 10.7528 2 9.64419 2.6887 8.95627C3.37661 8.26758 4.48526 8.26758 6.701 8.26758H12.969C15.1847 8.26758 16.2934 8.26758 16.9813 8.95627C17.67 9.64419 17.67 10.7528 17.67 12.9686C17.67 15.1843 17.67 16.293 16.9813 16.9809C16.2934 17.6696 15.1847 17.6696 12.969 17.6696H6.701C4.48526 17.6696 3.37661 17.6696 2.6887 16.9809C2 16.293 2 15.1843 2 12.9686Z" stroke="#B1B1B1"/>
<path d="M5.13367 8.268V6.701C5.13367 5.45422 5.62895 4.2585 6.51056 3.37689C7.39217 2.49528 8.58788 2 9.83467 2C11.0814 2 12.2772 2.49528 13.1588 3.37689C14.0404 4.2585 14.5357 5.45422 14.5357 6.701V8.268" stroke="#B1B1B1" stroke-linecap="round"/>
<path d="M6.70105 12.9688H6.7081M9.828 12.9688H9.83505M12.962 12.9688H12.969" stroke="#B1B1B1" stroke-linecap="round" stroke-linejoin="round"/>
</svg>
