<svg width="184" height="24" viewBox="0 0 184 24" fill="none" xmlns="http://www.w3.org/2000/svg">
<g id="Stars">
<path id="Star" d="M12.2327 17.5574L12 17.4351L11.7673 17.5574L5.61064 20.7942L6.78646 13.9386L6.8309 13.6795L6.64267 13.4961L1.6618 8.64092L8.54519 7.6407L8.80532 7.6029L8.92166 7.36718L12 1.12978L15.0783 7.36718L15.1947 7.6029L15.4548 7.6407L22.3382 8.64092L17.3573 13.4961L17.1691 13.6795L17.2135 13.9386L18.3894 20.7942L12.2327 17.5574Z" stroke="#FFD651"/>
<path id="Star_2" d="M52.2328 17.5574L52.0001 17.4351L51.7674 17.5574L45.6107 20.7942L46.7865 13.9386L46.831 13.6795L46.6427 13.4961L41.6619 8.64092L48.5453 7.6407L48.8054 7.6029L48.9217 7.36718L52.0001 1.12978L55.0784 7.36718L55.1948 7.6029L55.4549 7.6407L62.3383 8.64092L57.3574 13.4961L57.1692 13.6795L57.2136 13.9386L58.3894 20.7942L52.2328 17.5574Z" stroke="#FFD651"/>
<path id="Star_3" d="M92.2327 17.5574L92 17.4351L91.7673 17.5574L85.6106 20.7942L86.7865 13.9386L86.8309 13.6795L86.6427 13.4961L81.6618 8.64092L88.5452 7.6407L88.8053 7.6029L88.9217 7.36718L92 1.12978L95.0783 7.36718L95.1947 7.6029L95.4548 7.6407L102.338 8.64092L97.3573 13.4961L97.1691 13.6795L97.2135 13.9386L98.3894 20.7942L92.2327 17.5574Z" stroke="#FFD651"/>
<path id="Star_4" d="M132.233 17.5574L132 17.4351L131.767 17.5574L125.611 20.7942L126.786 13.9386L126.831 13.6795L126.643 13.4961L121.662 8.64092L128.545 7.6407L128.805 7.6029L128.922 7.36718L132 1.12978L135.078 7.36718L135.195 7.6029L135.455 7.6407L142.338 8.64092L137.357 13.4961L137.169 13.6795L137.214 13.9386L138.389 20.7942L132.233 17.5574Z" stroke="#FFD651"/>
<path id="Star_5" d="M172.233 17.5574L172 17.4351L171.767 17.5574L165.611 20.7942L166.786 13.9386L166.831 13.6795L166.643 13.4961L161.662 8.64092L168.545 7.6407L168.805 7.6029L168.922 7.36718L172 1.12978L175.078 7.36718L175.195 7.6029L175.455 7.6407L182.338 8.64092L177.357 13.4961L177.169 13.6795L177.214 13.9386L178.389 20.7942L172.233 17.5574Z" stroke="#FFD651"/>
</g>
</svg>
