<svg width="70" height="70" viewBox="0 0 70 70" fill="none" xmlns="http://www.w3.org/2000/svg">
<g clip-path="url(#clip0_212_6125)">
<path d="M61.8941 21.5929L43.6092 19.8971L36.3458 3.031C35.8372 1.85002 34.1629 1.85002 33.6544 3.031L26.3911 19.8969L8.10612 21.5929C6.82574 21.7116 6.3084 23.3041 7.27432 24.1527L21.0704 36.2723L17.0329 54.1865C16.7502 55.4409 18.1049 56.425 19.2104 55.7686L35.0001 46.3929L50.7898 55.7686C51.8954 56.4251 53.2499 55.4409 52.9673 54.1865L48.9297 36.2723L62.7259 24.1527C63.6918 23.3041 63.1744 21.7116 61.8941 21.5929Z" fill="#F1FFF2"/>
<path d="M16.3074 2.45042C17.2396 3.74515 19.8706 9.30551 21.3748 12.546C21.6113 13.0554 20.9722 13.5156 20.564 13.1297C17.9682 10.6753 13.5296 6.41623 12.5974 5.12136C11.8598 4.09693 12.0924 2.66849 13.117 1.93089C14.1414 1.19329 15.5698 1.42599 16.3074 2.45042Z" fill="#1B6D24"/>
<path d="M53.6924 2.45042C52.7602 3.74515 50.1292 9.30551 48.625 12.546C48.3885 13.0554 49.0277 13.5156 49.4358 13.1297C52.0317 10.6753 56.4701 6.41609 57.4024 5.12136C58.14 4.09693 57.9074 2.66849 56.8829 1.93089C55.8584 1.19329 54.43 1.42599 53.6924 2.45042Z" fill="#1B6D24"/>
<path d="M68.4225 40.418C66.9058 39.9233 60.8088 39.1062 57.2646 38.6577C56.7075 38.5872 56.4633 39.336 56.9548 39.6075C60.082 41.335 65.4883 44.2695 67.005 44.7642C68.2051 45.1556 69.4954 44.5 69.8868 43.2998C70.2782 42.0995 69.6226 40.8094 68.4225 40.418Z" fill="#1B6D24"/>
<path d="M1.57754 40.418C3.0943 39.9233 9.19129 39.1062 12.7355 38.6577C13.2926 38.5872 13.5368 39.336 13.0453 39.6075C9.91808 41.335 4.5118 44.2695 2.99504 44.7642C1.79492 45.1556 0.504705 44.5 0.113278 43.2998C-0.278149 42.0995 0.377419 40.8094 1.57754 40.418Z" fill="#1B6D24"/>
<path d="M32.7844 66.2144C32.7844 64.6191 33.898 58.5692 34.5707 55.0606C34.6763 54.5091 35.464 54.5091 35.5697 55.0606C36.2423 58.5692 37.3559 64.6191 37.3559 66.2144C37.3559 67.4768 36.3326 68.5001 35.0702 68.5001C33.8078 68.5002 32.7844 67.4768 32.7844 66.2144Z" fill="#1B6D24"/>
</g>
<defs>
<clipPath id="clip0_212_6125">
<rect width="70" height="70" fill="white"/>
</clipPath>
</defs>
</svg>
