<svg width="20" height="20" viewBox="0 0 20 20" fill="none" xmlns="http://www.w3.org/2000/svg">
<g clip-path="url(#clip0_83_4188)">
<path d="M2.66667 16.667V17.3337H4V16.667H2.66667ZM9.33333 16.667V17.3337H10.6667V16.667H9.33333ZM4 16.667V16.0003H2.66667V16.667H4ZM9.33333 16.0003V16.667H10.6667V16.0003H9.33333ZM6.66667 13.3337C7.37391 13.3337 8.05219 13.6146 8.55229 14.1147C9.05238 14.6148 9.33333 15.2931 9.33333 16.0003H10.6667C10.6667 14.9395 10.2452 13.922 9.49509 13.1719C8.74495 12.4218 7.72753 12.0003 6.66667 12.0003V13.3337ZM4 16.0003C4 15.2931 4.28095 14.6148 4.78105 14.1147C5.28115 13.6146 5.95942 13.3337 6.66667 13.3337V12.0003C5.6058 12.0003 4.58839 12.4218 3.83824 13.1719C3.08809 13.922 2.66667 14.9395 2.66667 16.0003H4ZM6.66667 5.33366C5.95942 5.33366 5.28115 5.61461 4.78105 6.11471C4.28095 6.6148 4 7.29308 4 8.00033H5.33333C5.33333 7.6467 5.47381 7.30757 5.72386 7.05752C5.97391 6.80747 6.31305 6.66699 6.66667 6.66699V5.33366ZM9.33333 8.00033C9.33333 7.29308 9.05238 6.6148 8.55229 6.11471C8.05219 5.61461 7.37391 5.33366 6.66667 5.33366V6.66699C7.02029 6.66699 7.35943 6.80747 7.60948 7.05752C7.85952 7.30757 8 7.6467 8 8.00033H9.33333ZM6.66667 10.667C7.37391 10.667 8.05219 10.386 8.55229 9.88594C9.05238 9.38585 9.33333 8.70757 9.33333 8.00033H8C8 8.35395 7.85952 8.69309 7.60948 8.94313C7.35943 9.19318 7.02029 9.33366 6.66667 9.33366V10.667ZM6.66667 9.33366C6.31305 9.33366 5.97391 9.19318 5.72386 8.94313C5.47381 8.69309 5.33333 8.35395 5.33333 8.00033H4C4 8.70757 4.28095 9.38585 4.78105 9.88594C5.28115 10.386 5.95942 10.667 6.66667 10.667V9.33366ZM2 4.00033H18V2.66699H2V4.00033ZM18.6667 4.66699V15.3337H20V4.66699H18.6667ZM18 16.0003H2V17.3337H18V16.0003ZM1.33333 15.3337V4.66699H0V15.3337H1.33333ZM2 16.0003C1.82319 16.0003 1.65362 15.9301 1.5286 15.8051C1.40357 15.68 1.33333 15.5105 1.33333 15.3337H0C0 15.8641 0.210714 16.3728 0.585786 16.7479C0.960859 17.1229 1.46957 17.3337 2 17.3337V16.0003ZM18.6667 15.3337C18.6667 15.5105 18.5964 15.68 18.4714 15.8051C18.3464 15.9301 18.1768 16.0003 18 16.0003V17.3337C18.5304 17.3337 19.0391 17.1229 19.4142 16.7479C19.7893 16.3728 20 15.8641 20 15.3337H18.6667ZM18 4.00033C18.1768 4.00033 18.3464 4.07056 18.4714 4.19559C18.5964 4.32061 18.6667 4.49018 18.6667 4.66699H20C20 4.13656 19.7893 3.62785 19.4142 3.25278C19.0391 2.87771 18.5304 2.66699 18 2.66699V4.00033ZM2 2.66699C1.46957 2.66699 0.960859 2.87771 0.585786 3.25278C0.210714 3.62785 0 4.13656 0 4.66699H1.33333C1.33333 4.49018 1.40357 4.32061 1.5286 4.19559C1.65362 4.07056 1.82319 4.00033 2 4.00033V2.66699ZM12 8.00033H16V6.66699H12V8.00033ZM12 12.0003H16V10.667H12V12.0003Z" fill="#B1B1B1"/>
</g>
<defs>
<clipPath id="clip0_83_4188">
<rect width="20" height="20" fill="white"/>
</clipPath>
</defs>
</svg>
