<svg width="16" height="16" viewBox="0 0 16 16" fill="none" xmlns="http://www.w3.org/2000/svg">
<path d="M14.0002 3.98665C11.7802 3.76665 9.54691 3.65332 7.32024 3.65332C6.00024 3.65332 4.68024 3.71999 3.36024 3.85332L2.00024 3.98665" stroke="#3DB44A" stroke-width="1.22209" stroke-linecap="round" stroke-linejoin="round"/>
<path d="M5.6665 3.3135L5.81317 2.44016C5.91984 1.80683 5.99984 1.3335 7.1265 1.3335H8.87317C9.99984 1.3335 10.0865 1.8335 10.1865 2.44683L10.3332 3.3135" stroke="#3DB44A" stroke-width="1.22209" stroke-linecap="round" stroke-linejoin="round"/>
<path d="M12.5665 6.09326L12.1332 12.8066C12.0598 13.8533 11.9998 14.6666 10.1398 14.6666H5.85983C3.99983 14.6666 3.93983 13.8533 3.8665 12.8066L3.43317 6.09326" stroke="#3DB44A" stroke-width="1.22209" stroke-linecap="round" stroke-linejoin="round"/>
<path d="M6.88696 11H9.10696" stroke="#3DB44A" stroke-width="1.22209" stroke-linecap="round" stroke-linejoin="round"/>
<path d="M6.33325 8.3335H9.66659" stroke="#3DB44A" stroke-width="1.22209" stroke-linecap="round" stroke-linejoin="round"/>
</svg>
