<svg width="20" height="20" viewBox="0 0 20 20" fill="none" xmlns="http://www.w3.org/2000/svg">
<path d="M15.8333 16.6663H4.16667C3.72464 16.6663 3.30072 16.4907 2.98816 16.1782C2.67559 15.8656 2.5 15.4417 2.5 14.9997V7.49967C2.5 7.05765 2.67559 6.63372 2.98816 6.32116C3.30072 6.0086 3.72464 5.83301 4.16667 5.83301H15.8333C16.2754 5.83301 16.6993 6.0086 17.0118 6.32116C17.3244 6.63372 17.5 7.05765 17.5 7.49967V14.9997C17.5 15.4417 17.3244 15.8656 17.0118 16.1782C16.6993 16.4907 16.2754 16.6663 15.8333 16.6663Z" stroke="#B1B1B1" stroke-width="1.25"/>
<path d="M13.7502 11.6663C13.6397 11.6663 13.5337 11.6224 13.4555 11.5443C13.3774 11.4662 13.3335 11.3602 13.3335 11.2497C13.3335 11.1392 13.3774 11.0332 13.4555 10.955C13.5337 10.8769 13.6397 10.833 13.7502 10.833C13.8607 10.833 13.9667 10.8769 14.0448 10.955C14.1229 11.0332 14.1668 11.1392 14.1668 11.2497C14.1668 11.3602 14.1229 11.4662 14.0448 11.5443C13.9667 11.6224 13.8607 11.6663 13.7502 11.6663Z" fill="#B1B1B1" stroke="#B1B1B1" stroke-width="1.25" stroke-linecap="round" stroke-linejoin="round"/>
<path d="M15 5.8333V4.66913C14.9999 4.41372 14.9412 4.16174 14.8282 3.93265C14.7153 3.70356 14.5512 3.50349 14.3487 3.34789C14.1461 3.1923 13.9105 3.08533 13.66 3.03527C13.4096 2.9852 13.151 2.99336 12.9042 3.05913L3.7375 5.5033C3.38254 5.59789 3.06878 5.8071 2.84499 6.0984C2.6212 6.38971 2.49992 6.74679 2.5 7.11413V7.49997" stroke="#B1B1B1" stroke-width="1.25"/>
</svg>
